<svg width="123" height="35" viewBox="0 0 123 35" fill="none" xmlns="http://www.w3.org/2000/svg">
<path d="M17.8916 35C27.5562 35 35.391 27.1651 35.391 17.4995C35.391 7.83486 27.5562 0 17.8916 0C8.22695 0 0.39209 7.83486 0.39209 17.5005C0.39209 27.1651 8.22695 35 17.8916 35Z" fill="white"/>
<path fill-rule="evenodd" clip-rule="evenodd" d="M17.8917 5.94904C23.6662 5.94904 27.5868 10.395 27.5868 15.1894C27.5868 17.1149 27.1657 18.7941 26.1866 20.8955C20.4468 20.8955 19.3961 24.7098 19.1519 27.2649L18.9771 29.0494H16.8062L16.6315 27.2649C16.3872 24.7098 15.3366 20.8955 9.59674 20.8955C8.61765 18.7941 8.19653 17.1149 8.19653 15.1894C8.19653 10.395 12.1171 5.95009 17.8927 5.95009L17.8917 5.94904Z" fill="#101010"/>
<path fill-rule="evenodd" clip-rule="evenodd" d="M122.996 20.2996H117.922C117.151 22.7842 114.806 24.5002 112.042 24.5002C108.016 24.5002 105.391 21.0345 105.391 17.4992C105.391 13.965 107.946 10.4992 112.182 10.4992C114.981 10.4992 117.151 12.2152 117.922 14.6998H122.996C122.261 9.69486 118.306 5.94904 112.042 5.94904C105.111 5.94904 100.492 10.814 100.492 17.4992C100.492 24.1844 105.111 29.0494 112.042 29.0494C118.306 29.0494 122.261 25.3751 122.996 20.2996ZM84.3912 6.29961H79.4916V28.6998H84.3554L93.4916 14.385V28.6988H98.3912V6.29961H93.4916L84.3902 20.6144L84.3912 6.29961ZM66.5412 10.8498H77.0417V6.29961H61.6415V28.6998H66.5412V10.8498ZM49.8124 5.95009C44.3515 5.95009 40.2562 9.2748 40.292 15.0493H45.3664C45.2969 12.7395 46.7666 10.4992 49.8113 10.4992C52.1211 10.4992 53.5908 12.0394 53.5908 13.9997C53.5908 16.0295 51.9811 17.1497 49.3912 18.4099C45.996 20.0543 43.9662 20.825 40.292 22.0494V28.6998H58.8421V24.1497H47.1499C48.8382 23.4355 50.5075 22.6768 52.1559 21.8746C56.2512 19.9143 58.6653 17.7097 58.6653 13.7544C58.6653 8.99475 55.0974 5.95009 49.8124 5.95009Z" fill="white"/>
</svg>
