<svg width="123" height="35" viewBox="0 0 123 35" fill="none" xmlns="http://www.w3.org/2000/svg">
<path d="M17.4995 35C27.1641 35 34.9989 27.1651 34.9989 17.4995C34.9989 7.83486 27.1641 0 17.4995 0C7.83486 0 0 7.83486 0 17.5005C0 27.1651 7.83486 35 17.4995 35Z" fill="#101010"/>
<path fill-rule="evenodd" clip-rule="evenodd" d="M17.4993 5.94922C23.2739 5.94922 27.1945 10.3952 27.1945 15.1896C27.1945 17.1151 26.7734 18.7943 25.7943 20.8957C20.0545 20.8957 19.0038 24.7099 18.7595 27.2651L18.5848 29.0495H16.4139L16.2392 27.2651C15.9949 24.7099 14.9442 20.8957 9.20441 20.8957C8.22532 18.7943 7.8042 17.1151 7.8042 15.1896C7.8042 10.3952 11.7248 5.95027 17.5004 5.95027L17.4993 5.94922Z" fill="#F4F4F4"/>
<path fill-rule="evenodd" clip-rule="evenodd" d="M122.604 20.2998H117.529C116.759 22.7844 114.414 24.5004 111.649 24.5004C107.624 24.5004 104.999 21.0346 104.999 17.4994C104.999 13.9652 107.554 10.4994 111.789 10.4994C114.589 10.4994 116.759 12.2154 117.529 14.7H122.604C121.869 9.69505 117.913 5.94922 111.649 5.94922C104.719 5.94922 100.099 10.8142 100.099 17.4994C100.099 24.1846 104.719 29.0495 111.649 29.0495C117.913 29.0495 121.869 25.3753 122.604 20.2998ZM83.9989 6.2998H79.0992V28.7H83.9631L93.0992 14.3852V28.699H97.9989V6.2998H93.0992L83.9979 20.6146L83.9989 6.2998ZM66.1489 10.85H76.6494V6.2998H61.2492V28.7H66.1489V10.85ZM49.42 5.95027C43.9592 5.95027 39.8639 9.27498 39.8996 15.0495H44.9741C44.9046 12.7397 46.3743 10.4994 49.419 10.4994C51.7288 10.4994 53.1985 12.0396 53.1985 13.9999C53.1985 16.0297 51.5888 17.1498 48.9989 18.41C45.6037 20.0545 43.5739 20.8251 39.8996 22.0495V28.7H58.4498V24.1499H46.7575C48.4459 23.4356 50.1152 22.677 51.7635 21.8748C55.8589 19.9145 58.2729 17.7099 58.2729 13.7546C58.2729 8.99494 54.705 5.95027 49.42 5.95027Z" fill="#101010"/>
</svg>
