<svg width="114" height="30" viewBox="0 0 114 30" fill="none" xmlns="http://www.w3.org/2000/svg">
<g clip-path="url(#clip0_133_66)">
<path d="M83.915 3.41437C79.5414 3.77126 75.1678 4.12815 71.4145 4.6768C67.746 5.20947 64.6818 5.91793 62.8157 6.97794C62.0576 7.40408 61.5169 7.88348 61.167 8.38419C60.8277 8.87425 60.6634 9.39094 60.6475 9.9023C60.6369 10.4296 60.7853 10.9783 61.0716 11.5056C61.448 12.1928 62.047 12.8267 62.8157 13.3434C63.1285 13.5511 63.4678 13.7429 63.8283 13.9133C64.1676 13.3434 64.6288 12.8693 65.249 12.5177C66.3782 11.8785 67.958 11.7773 69.5749 11.9584C71.5947 12.1821 73.7524 12.8533 75.0618 13.4552C75.8888 13.8334 76.4561 14.2276 76.7529 14.6164C77.0657 15.0266 77.1611 15.4581 77.0339 15.9161C76.9173 16.3316 76.631 16.6725 76.1804 16.9229C75.6768 17.2052 74.8391 17.4023 73.6623 17.4982C71.9499 17.6313 69.3523 17.5728 66.8288 17.0934C66.2775 16.9868 65.7314 16.859 65.1907 16.7098C65.0794 18.0255 65.2543 19.6182 65.4452 21.099C65.811 23.9541 66.2298 26.9371 66.7069 29.7709H64.5174C64.0562 27.0543 63.6639 24.1885 63.314 21.4506C63.1073 19.8632 62.9164 18.1374 63.0543 16.6086C63.0755 16.3956 63.102 16.1878 63.1338 15.9854C62.5719 15.735 62.047 15.4527 61.5699 15.1331C60.5202 14.43 59.6932 13.5458 59.1684 12.5816C58.7178 11.756 58.4845 10.8505 58.5057 9.93426C58.5269 9.00741 58.8185 8.08057 59.4229 7.21764C59.9636 6.44527 60.7482 5.72616 61.8085 5.12425C63.9502 3.91508 67.2741 3.12673 71.1971 2.55677C75.0247 1.99747 79.4354 1.64058 83.8408 1.28369L83.915 3.41437ZM65.8799 14.659C66.3464 14.7869 66.8288 14.8987 67.3112 14.9893C69.6279 15.4367 72.0188 15.4847 73.5827 15.3622C73.7047 15.3515 73.8213 15.3409 73.9326 15.3302C72.761 14.8188 70.9533 14.2702 69.2515 14.0838C68.0375 13.9453 66.9189 13.9879 66.2457 14.3661C66.1078 14.446 65.9859 14.5419 65.8799 14.659Z" fill="#101010"/>
<path fill-rule="evenodd" clip-rule="evenodd" d="M90.0537 9.80127C90.8489 9.80127 91.4957 10.4458 91.4957 11.2395C91.4957 12.0385 90.8489 12.683 90.0537 12.683C89.2532 12.683 88.6064 12.0385 88.6064 11.2395C88.6064 10.4458 89.2532 9.80127 90.0537 9.80127Z" fill="#101010"/>
<path d="M8.63058 4.98047C9.16601 4.98047 9.69085 4.99645 10.2051 5.03374C10.714 5.07635 11.2123 5.12962 11.7001 5.20952C12.1931 5.28409 12.6543 5.39595 13.0837 5.5451C13.5131 5.69957 13.916 5.88601 14.2924 6.10973C14.6635 6.33345 15.0028 6.60511 15.305 6.91939C15.6018 7.23367 15.8669 7.59055 16.0949 7.99006C16.3175 8.39489 16.4872 8.85831 16.6038 9.38565C16.7151 9.913 16.7681 10.4936 16.7681 11.1381C16.7681 11.8466 16.6833 12.4964 16.5084 13.0984C16.3334 13.695 16.0684 14.2436 15.7185 14.7337C15.3686 15.2237 14.9392 15.6445 14.4302 16.0014C14.0273 16.2784 13.5661 16.5181 13.0572 16.7099C13.7517 16.859 14.3772 17.0774 14.9339 17.3704C15.6018 17.7166 16.1744 18.1694 16.6568 18.7234C17.1392 19.2827 17.4997 19.9165 17.7383 20.6303C17.9768 21.3441 18.0988 22.1325 18.0988 23.006C18.0988 23.6985 18.0246 24.3271 17.8814 24.8917C17.733 25.4616 17.5156 25.9624 17.2241 26.4045C16.9325 26.8413 16.5985 27.2301 16.2221 27.5763C15.851 27.9226 15.4322 28.2209 14.9657 28.4712C14.5098 28.7269 14.022 28.94 13.5025 29.1104C12.983 29.2862 12.4369 29.4194 11.8591 29.5099C11.2866 29.6058 10.714 29.6751 10.1415 29.723C9.56362 29.7656 8.99107 29.7923 8.41853 29.7923H0V4.98047H8.63058ZM2.48633 7.28161V15.9748H7.89369C8.29129 15.9748 8.68359 15.9535 9.07059 15.9162C9.45759 15.8789 9.84459 15.8256 10.2316 15.7511C11.0003 15.6019 11.6948 15.3462 12.3097 14.9787C12.6172 14.7976 12.8982 14.5898 13.1473 14.3448C13.3965 14.1051 13.6191 13.8335 13.8153 13.5352C14.0061 13.2369 14.1493 12.9013 14.2447 12.5284C14.3401 12.1502 14.3878 11.7347 14.3878 11.282C14.3878 10.8345 14.3507 10.435 14.2712 10.0781C14.1917 9.73189 14.0751 9.42294 13.916 9.16193C13.757 8.8956 13.5714 8.66122 13.3647 8.46413C13.1526 8.26704 12.9141 8.10192 12.649 7.96342C12.3839 7.83026 12.0977 7.71307 11.7902 7.62251C11.4827 7.53196 11.1593 7.46271 10.8147 7.4201C10.4701 7.37216 10.1203 7.3402 9.75976 7.31356C9.39927 7.29226 9.03878 7.28161 8.66239 7.28161H2.48633ZM8.3178 27.4911C9.15011 27.4911 10.0036 27.4432 10.873 27.3526C11.3025 27.3047 11.716 27.2301 12.103 27.1342C12.4953 27.033 12.861 26.9052 13.2162 26.7507C13.5608 26.5962 13.8736 26.4098 14.1599 26.1808C14.4408 25.9517 14.6953 25.68 14.918 25.3764C15.1353 25.0728 15.2997 24.7159 15.411 24.3004C15.5223 23.8796 15.5753 23.4002 15.5753 22.8675C15.5753 22.3988 15.5329 21.9727 15.4428 21.5945C15.358 21.2163 15.2254 20.8807 15.0505 20.5877C14.8756 20.2947 14.6741 20.0337 14.4408 19.7994C14.2129 19.5703 13.9584 19.3679 13.6722 19.1974C13.3912 19.027 13.0784 18.8832 12.7497 18.766C12.4157 18.6435 12.0605 18.5529 11.6842 18.4837C10.9261 18.3452 10.1521 18.2759 9.36217 18.2759H2.48633V27.4911H8.3178ZM32.0201 27.2994C31.6225 27.7575 31.1931 28.1516 30.7478 28.4819C30.2335 28.8601 29.6875 29.1531 29.115 29.3661C28.5477 29.5792 27.9487 29.7337 27.3178 29.8402C26.6922 29.9467 26.0402 30 25.3616 30C24.9481 30 24.5452 29.9734 24.1476 29.9254C23.75 29.8775 23.3577 29.7976 22.976 29.7017C22.589 29.6005 22.2232 29.4673 21.8786 29.3075C21.5287 29.1424 21.2054 28.9506 20.8979 28.7269C20.5851 28.5032 20.3094 28.2475 20.0603 27.9599C19.8164 27.6722 19.5991 27.3526 19.4135 27.0011C19.228 26.6548 19.0901 26.282 19 25.8878C18.9046 25.4936 18.8622 25.0781 18.8622 24.6413C18.8622 24.1087 18.9099 23.6239 19.0106 23.1818C19.1113 22.7344 19.2651 22.3349 19.4665 21.978C19.668 21.6211 19.9065 21.3015 20.1663 21.0192C20.4314 20.7315 20.7282 20.4812 21.0569 20.2681C21.3803 20.0604 21.7355 19.8793 22.1119 19.7248C22.4883 19.5756 22.8859 19.4585 23.31 19.3679C23.7341 19.2827 24.1635 19.2134 24.6088 19.1708C25.0488 19.1282 25.4994 19.1069 25.9554 19.1069H31.8876C31.8823 18.7287 31.861 18.3612 31.8239 18.0043C31.7815 17.6154 31.7179 17.2372 31.6278 16.8697C31.543 16.5075 31.4316 16.1612 31.2885 15.8469C31.1507 15.5273 30.9863 15.229 30.7902 14.9574C30.5993 14.6911 30.3767 14.446 30.1222 14.233C29.873 14.0146 29.5868 13.8281 29.274 13.6737C28.9612 13.5138 28.6166 13.3913 28.2349 13.3168C24.8156 12.6083 22.0748 13.8974 22.0748 17.5302H19.7369C19.827 12.0597 24.0787 10.2646 28.9241 11.2021C29.502 11.3139 30.0321 11.479 30.5039 11.7028C30.9757 11.9265 31.4051 12.1982 31.7868 12.5071C32.1685 12.8161 32.5078 13.1676 32.7994 13.5671C33.0857 13.9613 33.3348 14.3874 33.5416 14.8509C33.7483 15.3143 33.9127 15.8097 34.0399 16.337C34.1618 16.859 34.252 17.4077 34.3156 17.9723C34.3792 18.5423 34.4057 19.1282 34.4057 19.7354V29.7923H32.1155L32.1049 27.9865L32.0201 27.2994ZM27.1429 21.163C26.5385 21.163 25.8917 21.1843 25.2079 21.2322C24.8686 21.2536 24.5452 21.3015 24.2324 21.3654C23.9196 21.4293 23.6228 21.5199 23.3365 21.6264C23.0555 21.733 22.7958 21.8661 22.5625 22.0312C22.3292 22.1911 22.1172 22.3828 21.9316 22.6012C21.7461 22.8196 21.6136 23.0753 21.5181 23.3683C21.428 23.6719 21.3803 24.0128 21.3803 24.3963C21.3803 25.0036 21.4969 25.5202 21.7355 25.9464C21.8521 26.1594 21.99 26.3565 22.149 26.5323C22.308 26.7134 22.483 26.8786 22.6791 27.0224C22.8806 27.1715 23.0926 27.2994 23.3206 27.4059C23.5432 27.5124 23.7871 27.5977 24.0416 27.6669C24.5558 27.8054 25.0912 27.8746 25.6373 27.8746C26.0879 27.8746 26.5226 27.8427 26.9414 27.7841C27.3549 27.7308 27.7578 27.6456 28.1395 27.5284C28.5265 27.4165 28.8817 27.2727 29.2104 27.0969C29.5444 26.9265 29.8465 26.7188 30.1275 26.4897C30.4085 26.2553 30.6523 25.9943 30.8697 25.7067C31.0871 25.419 31.2726 25.0994 31.4263 24.7532C31.5801 24.407 31.6967 24.0288 31.7709 23.6239C31.8504 23.2191 31.8876 22.777 31.8876 22.3082V21.163H27.1429ZM39.9615 11.2393H45.0932V13.402H39.9615V24.3111C39.9615 24.8704 40.0569 25.4776 40.2902 26.0103C40.481 26.4471 40.7673 26.8306 41.1702 27.0863C41.3133 27.1768 41.4724 27.2567 41.6473 27.3207C41.8223 27.3846 42.0131 27.4325 42.2146 27.4751C42.4213 27.5124 42.6228 27.5444 42.8242 27.5657C43.0204 27.5817 43.2218 27.5923 43.418 27.5923H46.5564V29.7923H43.2059C42.4107 29.7923 41.6155 29.6964 40.8256 29.5099C40.4227 29.4141 40.0516 29.2702 39.7017 29.0732C39.3518 28.8761 39.0285 28.631 38.7316 28.3327H38.7263C38.4983 28.093 38.3022 27.8107 38.1378 27.4911C37.9735 27.1768 37.841 26.82 37.7402 26.4205C37.7084 26.2926 37.6819 26.1861 37.6501 26.0849C37.5123 25.5575 37.4434 25.2965 37.4434 24.4496V13.402H34.3315V11.2393H37.4434V5.07102H39.9615V11.2393ZM52.1864 11.2393H57.3181V13.402H52.1864V24.3111C52.1864 24.8704 52.2818 25.4776 52.5151 26.0103C52.7059 26.4471 52.9922 26.8306 53.3898 27.0863C53.5382 27.1768 53.6973 27.2567 53.8722 27.3207C54.0472 27.3846 54.238 27.4325 54.4394 27.4751C54.6462 27.5124 54.8477 27.5444 55.0491 27.5657C55.2453 27.5817 55.4467 27.5923 55.6429 27.5923H58.5798V29.7923H55.4308C54.6303 29.7923 53.8404 29.6964 53.0505 29.5099C52.6476 29.4141 52.2765 29.2702 51.9266 29.0732C51.5767 28.8761 51.2533 28.631 50.9565 28.3327H50.9512C50.7232 28.093 50.5271 27.8107 50.3627 27.4911C50.1984 27.1768 50.0658 26.82 49.9651 26.4205C49.9333 26.2926 49.9015 26.1861 49.875 26.0849C49.7372 25.5575 49.6682 25.2965 49.6682 24.4496V13.402H46.5564V11.2393H49.6682V5.07102H52.1864V11.2393Z" fill="#101010"/>
<path fill-rule="evenodd" clip-rule="evenodd" d="M90.849 16.0813L88.2672 15.7297C88.2248 15.8736 88.1771 16.0227 88.14 16.1825C87.9332 17.0081 87.8166 17.2905 87.5622 17.9083C87.5091 18.0309 87.4508 18.1747 87.3872 18.3345C87.1433 18.9258 86.8571 19.5809 86.5125 20.3054C85.8021 21.7968 84.832 23.6079 83.8459 25.0834C83.1302 26.1647 82.4305 27.0436 81.8791 27.4112C81.7784 27.4804 81.6989 27.5177 81.6406 27.5337C81.5981 27.5017 81.5504 27.4378 81.4921 27.3526C81.0839 26.7507 80.7817 25.5415 80.5856 23.8157C80.4849 22.9421 80.4159 21.9566 80.3788 20.9179C81.3649 19.5969 82.2184 18.1907 82.8493 16.6299C83.5013 15.0053 83.8989 13.2262 84.0686 11.6441C84.27 9.79045 84.1534 8.13917 83.7664 7.24961C83.5755 6.81815 83.3105 6.50388 82.9871 6.30146C82.5259 6.00849 82.0223 5.97121 81.5027 6.17895C81.1475 6.31744 80.8029 6.5891 80.4849 6.97795C79.907 7.69173 79.3345 8.95949 78.9369 10.7386C78.5499 12.4804 78.3219 14.7549 78.2371 17.0667C78.2 18.1267 78.1947 19.1921 78.2159 20.2201C77.2298 21.4666 76.1113 22.6704 74.9927 23.8689L76.5672 25.3231C77.1768 24.6679 77.7865 24.0128 78.3802 23.3469C78.4014 23.5919 78.4279 23.8263 78.4545 24.0554C78.6877 26.1168 79.1065 27.6456 79.7109 28.5405C79.96 28.9133 80.2569 29.201 80.5962 29.3927C80.9885 29.6218 81.4126 29.7123 81.8632 29.6591H81.8685C82.2661 29.6164 82.669 29.4566 83.0719 29.185C83.8883 28.6417 84.7789 27.555 85.6378 26.266C87.138 24.0074 87.8325 22.3721 88.7497 20.2042C88.8875 19.8899 89.0253 19.5543 89.1738 19.2081C89.2427 19.8206 89.301 20.4066 89.3593 20.9872C89.5342 22.8089 89.7039 24.5348 90.2022 26.4577C90.5945 27.9652 91.1087 28.908 91.7873 29.3608C92.6992 29.968 93.6428 29.7869 94.6872 28.924C96.2988 27.5923 98.1807 24.7585 99.8666 21.3601C100.026 22.5586 100.185 23.5919 100.333 24.3696C100.641 26.0529 100.985 27.2727 101.383 28.0824C101.955 29.2436 102.687 29.7443 103.636 29.6857C104.325 29.6431 105.019 29.2436 105.672 28.6523C106.35 28.0451 107.018 27.2088 107.564 26.4258C108.052 25.7226 108.444 25.0621 108.789 24.4229C109.112 23.8316 109.414 23.1978 109.722 22.5639L107.787 21.6477C107.516 22.2123 107.241 22.777 106.901 23.4108C106.583 24.0021 106.228 24.5987 105.804 25.2113C105.332 25.8878 104.776 26.5909 104.24 27.0703C103.922 27.3526 103.662 27.5444 103.509 27.5497C103.509 27.5497 103.445 27.4218 103.307 27.1449C103 26.5163 102.719 25.4829 102.438 23.9808C102.178 22.5745 101.855 20.3 101.621 17.6367L113.38 14.4939L112.828 12.4272L102.459 15.1971C104.134 10.4084 105.072 5.50778 104.298 2.42362C104.055 1.45949 103.684 0.772342 103.238 0.399473C102.729 -0.021337 102.167 -0.117218 101.579 0.143791C101.176 0.314246 100.815 0.665808 100.513 1.2038C99.909 2.2798 99.3894 4.49038 99.2145 7.99003C99.0873 10.6374 99.1615 13.4126 99.3364 15.9641L99.3417 16.028L94.5016 17.3224L95.0529 19.3892L98.9123 18.3558C97.1417 22.3828 95.0317 25.8611 93.3194 27.2727C93.1816 27.3899 93.0914 27.4804 93.0384 27.5337C93.0013 27.571 92.9854 27.5923 92.9801 27.587C92.7575 27.4432 92.5348 26.8998 92.2803 25.9197C91.9676 24.7212 91.6972 23.022 91.4798 21.3494C91.2625 19.6768 91.0928 17.9829 90.9762 16.8537C90.9497 16.5767 90.902 16.321 90.849 16.0813ZM98.9123 18.3558L101.621 17.6367L101.605 17.4716C101.828 16.9229 102.04 16.3689 102.242 15.815C102.316 15.6072 102.39 15.3995 102.459 15.1971L99.3417 16.028C99.3682 16.4062 99.3947 16.7791 99.4265 17.152C99.2569 17.5568 99.0873 17.9616 98.9123 18.3558ZM80.856 15.8363C80.7128 16.1878 80.5591 16.5287 80.3947 16.8696C80.4796 14.7656 80.6863 12.7361 81.0309 11.1967C81.2907 10.0248 81.614 9.16723 81.9427 8.62391C82.0594 9.28442 82.0594 10.2752 81.9374 11.4204C81.7837 12.8267 81.4338 14.4034 80.856 15.8363ZM102.215 2.94031C102.745 5.05501 102.289 8.29898 101.303 11.7667C101.282 10.5309 101.298 9.29507 101.356 8.09124C101.483 5.4705 101.791 3.72866 102.162 2.74322C102.178 2.80714 102.194 2.87106 102.215 2.94031Z" fill="#101010"/>
<path d="M101.606 17.4718C101.828 16.9231 102.04 16.3691 102.242 15.8152C102.316 15.6074 102.39 15.3997 102.459 15.1973L99.342 16.0282C99.3685 16.4064 99.395 16.7793 99.4268 17.1522C99.2572 17.557 99.0875 17.9618 98.9126 18.356L101.622 17.6369L101.606 17.4718Z" fill="#101010"/>
</g>
<defs>
<clipPath id="clip0_133_66">
<rect width="114" height="30" fill="white"/>
</clipPath>
</defs>
</svg>
