<svg width="115" height="31" viewBox="0 0 115 31" fill="none" xmlns="http://www.w3.org/2000/svg">
<g clip-path="url(#clip0_1_66)">
<path d="M84.3108 3.91431C79.9372 4.2712 75.5636 4.62809 71.8102 5.17674C68.1417 5.70941 65.0775 6.41786 63.2115 7.47788C62.4534 7.90402 61.9126 8.38342 61.5627 8.88413C61.2235 9.37418 61.0591 9.89088 61.0432 10.4022C61.0326 10.9296 61.181 11.4782 61.4673 12.0056C61.8437 12.6927 62.4428 13.3266 63.2115 13.8433C63.5242 14.051 63.8635 14.2428 64.224 14.4132C64.5633 13.8433 65.0245 13.3692 65.6448 13.0177C66.774 12.3784 68.3538 12.2772 69.9707 12.4583C71.9905 12.6821 74.1481 13.3532 75.4576 13.9552C76.2846 14.3333 76.8518 14.7275 77.1487 15.1164C77.4615 15.5265 77.5569 15.958 77.4297 16.4161C77.313 16.8316 77.0268 17.1725 76.5761 17.4228C76.0725 17.7052 75.2349 17.9022 74.058 17.9981C72.3457 18.1313 69.748 18.0727 67.2246 17.5933C66.6732 17.4868 66.1272 17.3589 65.5865 17.2098C65.4751 18.5255 65.6501 20.1181 65.8409 21.599C66.2067 24.4541 66.6255 27.437 67.1026 30.2708H64.9132C64.452 27.5542 64.0597 24.6885 63.7098 21.9505C63.503 20.3632 63.3122 18.6373 63.45 17.1086C63.4712 16.8955 63.4977 16.6878 63.5295 16.4853C62.9676 16.235 62.4428 15.9527 61.9656 15.6331C60.916 14.9299 60.089 14.0457 59.5641 13.0816C59.1135 12.2559 58.8803 11.3504 58.9015 10.4342C58.9227 9.50735 59.2143 8.58051 59.8186 7.71758C60.3593 6.94521 61.1439 6.2261 62.2042 5.62418C64.346 4.41502 67.6699 3.62667 71.5929 3.05671C75.4204 2.49741 79.8312 2.14052 84.2366 1.78363L84.3108 3.91431ZM66.2756 15.159C66.7422 15.2868 67.2246 15.3987 67.707 15.4892C70.0237 15.9367 72.4146 15.9846 73.9785 15.8621C74.1004 15.8515 74.217 15.8408 74.3284 15.8302C73.1568 15.3188 71.349 14.7701 69.6473 14.5837C68.4333 14.4452 67.3147 14.4878 66.6414 14.866C66.5036 14.9459 66.3817 15.0418 66.2756 15.159Z" fill="white"/>
<path fill-rule="evenodd" clip-rule="evenodd" d="M90.4498 10.301C91.245 10.301 91.8918 10.9456 91.8918 11.7392C91.8918 12.5382 91.245 13.1828 90.4498 13.1828C89.6493 13.1828 89.0026 12.5382 89.0026 11.7392C89.0026 10.9456 89.6493 10.301 90.4498 10.301Z" fill="white"/>
<path d="M9.02658 5.48041C9.56201 5.48041 10.0868 5.49639 10.6011 5.53367C11.11 5.57629 11.6083 5.62956 12.0961 5.70946C12.5891 5.78403 13.0503 5.89589 13.4797 6.04504C13.9091 6.19951 14.312 6.38595 14.6884 6.60967C15.0595 6.83339 15.3988 7.10505 15.701 7.41933C15.9978 7.7336 16.2629 8.09049 16.4909 8.49C16.7135 8.89482 16.8832 9.35825 16.9998 9.88559C17.1111 10.4129 17.1641 10.9935 17.1641 11.6381C17.1641 12.3465 17.0793 12.9964 16.9044 13.5983C16.7294 14.1949 16.4644 14.7435 16.1145 15.2336C15.7646 15.7237 15.3352 16.1445 14.8262 16.5014C14.4233 16.7783 13.9621 17.0181 13.4532 17.2098C14.1477 17.359 14.7732 17.5774 15.3299 17.8703C15.9978 18.2166 16.5704 18.6693 17.0528 19.2233C17.5352 19.7826 17.8957 20.4165 18.1343 21.1303C18.3728 21.844 18.4948 22.6324 18.4948 23.506C18.4948 24.1984 18.4205 24.827 18.2774 25.3916C18.129 25.9616 17.9116 26.4623 17.62 26.9044C17.3285 27.3412 16.9945 27.7301 16.6181 28.0763C16.247 28.4225 15.8282 28.7208 15.3617 28.9712C14.9058 29.2269 14.418 29.4399 13.8985 29.6104C13.379 29.7862 12.8329 29.9193 12.2551 30.0099C11.6825 30.1058 11.11 30.175 10.5375 30.2229C9.95961 30.2656 9.38707 30.2922 8.81452 30.2922H0.395996V5.48041H9.02658ZM2.88232 7.78154V16.4747H8.28969C8.68729 16.4747 9.07959 16.4534 9.46659 16.4161C9.85359 16.3788 10.2406 16.3256 10.6276 16.251C11.3963 16.1019 12.0907 15.8462 12.7057 15.4786C13.0132 15.2975 13.2942 15.0898 13.5433 14.8448C13.7925 14.6051 14.0151 14.3334 14.2113 14.0351C14.4021 13.7368 14.5453 13.4012 14.6407 13.0283C14.7361 12.6502 14.7838 12.2347 14.7838 11.7819C14.7838 11.3345 14.7467 10.935 14.6672 10.5781C14.5877 10.2318 14.4711 9.92288 14.312 9.66187C14.153 9.39554 13.9674 9.16116 13.7607 8.96407C13.5486 8.76698 13.3101 8.60186 13.045 8.46336C12.7799 8.3302 12.4937 8.21301 12.1862 8.12245C11.8787 8.0319 11.5553 7.96265 11.2107 7.92004C10.8661 7.8721 10.5163 7.84014 10.1558 7.8135C9.79527 7.7922 9.43478 7.78154 9.05838 7.78154H2.88232ZM8.7138 27.9911C9.54611 27.9911 10.3996 27.9431 11.269 27.8526C11.6985 27.8046 12.112 27.7301 12.499 27.6342C12.8913 27.533 13.257 27.4051 13.6122 27.2506C13.9568 27.0962 14.2696 26.9097 14.5559 26.6807C14.8368 26.4516 15.0913 26.18 15.314 25.8764C15.5313 25.5727 15.6957 25.2158 15.807 24.8004C15.9183 24.3796 15.9713 23.9002 15.9713 23.3675C15.9713 22.8987 15.9289 22.4726 15.8388 22.0944C15.754 21.7162 15.6214 21.3806 15.4465 21.0877C15.2716 20.7947 15.0701 20.5337 14.8368 20.2993C14.6089 20.0703 14.3544 19.8678 14.0681 19.6974C13.7872 19.5269 13.4744 19.3831 13.1457 19.2659C12.8117 19.1434 12.4565 19.0529 12.0801 18.9836C11.3221 18.8451 10.5481 18.7759 9.75816 18.7759H2.88232V27.9911H8.7138ZM32.4161 27.7993C32.0185 28.2574 31.5891 28.6516 31.1438 28.9818C30.6295 29.36 30.0835 29.653 29.511 29.8661C28.9437 30.0791 28.3447 30.2336 27.7138 30.3401C27.0882 30.4467 26.4362 30.4999 25.7576 30.4999C25.3441 30.4999 24.9412 30.4733 24.5436 30.4254C24.146 30.3774 23.7537 30.2975 23.372 30.2016C22.985 30.1004 22.6192 29.9673 22.2746 29.8075C21.9247 29.6423 21.6014 29.4506 21.2939 29.2269C20.9811 29.0031 20.7054 28.7475 20.4563 28.4598C20.2124 28.1722 19.995 27.8526 19.8095 27.501C19.624 27.1548 19.4861 26.7819 19.396 26.3877C19.3006 25.9935 19.2582 25.5781 19.2582 25.1413C19.2582 24.6086 19.3059 24.1239 19.4066 23.6818C19.5073 23.2343 19.6611 22.8348 19.8625 22.4779C20.064 22.121 20.3025 21.8014 20.5623 21.5191C20.8274 21.2315 21.1242 20.9811 21.4529 20.7681C21.7763 20.5603 22.1315 20.3792 22.5079 20.2247C22.8843 20.0756 23.2819 19.9584 23.706 19.8678C24.1301 19.7826 24.5595 19.7134 25.0048 19.6707C25.4448 19.6281 25.8954 19.6068 26.3514 19.6068H32.2836C32.2782 19.2286 32.257 18.8611 32.2199 18.5042C32.1775 18.1154 32.1139 17.7372 32.0238 17.3696C31.939 17.0074 31.8276 16.6612 31.6845 16.3469C31.5467 16.0273 31.3823 15.729 31.1862 15.4573C30.9953 15.191 30.7727 14.946 30.5182 14.7329C30.269 14.5145 29.9828 14.3281 29.67 14.1736C29.3572 14.0138 29.0126 13.8913 28.6309 13.8167C25.2116 13.1082 22.4708 14.3973 22.4708 18.0301H20.1329C20.223 12.5596 24.4747 10.7645 29.3201 11.702C29.8979 11.8139 30.4281 11.979 30.8999 12.2027C31.3717 12.4264 31.8011 12.6981 32.1828 13.007C32.5645 13.316 32.9038 13.6676 33.1954 14.0671C33.4817 14.4612 33.7308 14.8874 33.9376 15.3508C34.1443 15.8142 34.3087 16.3096 34.4359 16.8369C34.5578 17.359 34.6479 17.9076 34.7116 18.4722C34.7752 19.0422 34.8017 19.6281 34.8017 20.2354V30.2922H32.5115L32.5009 28.4864L32.4161 27.7993ZM27.5389 21.6629C26.9345 21.6629 26.2877 21.6842 25.6039 21.7322C25.2646 21.7535 24.9412 21.8014 24.6284 21.8654C24.3156 21.9293 24.0188 22.0198 23.7325 22.1264C23.4515 22.2329 23.1918 22.3661 22.9585 22.5312C22.7252 22.691 22.5132 22.8828 22.3276 23.1011C22.1421 23.3195 22.0096 23.5752 21.9141 23.8682C21.824 24.1718 21.7763 24.5127 21.7763 24.8962C21.7763 25.5035 21.8929 26.0202 22.1315 26.4463C22.2481 26.6594 22.386 26.8565 22.545 27.0323C22.704 27.2134 22.879 27.3785 23.0751 27.5223C23.2766 27.6715 23.4886 27.7993 23.7166 27.9058C23.9392 28.0124 24.1831 28.0976 24.4376 28.1668C24.9518 28.3053 25.4872 28.3746 26.0333 28.3746C26.4839 28.3746 26.9186 28.3426 27.3374 28.284C27.7509 28.2308 28.1538 28.1455 28.5355 28.0283C28.9225 27.9165 29.2777 27.7727 29.6064 27.5969C29.9404 27.4264 30.2425 27.2187 30.5235 26.9896C30.8045 26.7553 31.0483 26.4943 31.2657 26.2066C31.483 25.919 31.6686 25.5994 31.8223 25.2531C31.9761 24.9069 32.0927 24.5287 32.1669 24.1239C32.2464 23.719 32.2836 23.2769 32.2836 22.8082V21.6629H27.5389ZM40.3575 11.7393H45.4892V13.9019H40.3575V24.811C40.3575 25.3703 40.4529 25.9776 40.6862 26.5102C40.877 26.947 41.1633 27.3305 41.5662 27.5862C41.7093 27.6768 41.8684 27.7567 42.0433 27.8206C42.2183 27.8845 42.4091 27.9325 42.6106 27.9751C42.8173 28.0124 43.0188 28.0443 43.2202 28.0656C43.4164 28.0816 43.6178 28.0923 43.814 28.0923H46.9524V30.2922H43.6019C42.8067 30.2922 42.0115 30.1963 41.2216 30.0099C40.8187 29.914 40.4476 29.7702 40.0977 29.5731C39.7478 29.376 39.4245 29.131 39.1276 28.8327H39.1223C38.8943 28.593 38.6982 28.3107 38.5338 27.9911C38.3695 27.6768 38.237 27.3199 38.1362 26.9204C38.1044 26.7926 38.0779 26.686 38.0461 26.5848C37.9083 26.0575 37.8394 25.7965 37.8394 24.9495V13.9019H34.7275V11.7393H37.8394V5.57096H40.3575V11.7393ZM52.5824 11.7393H57.7141V13.9019H52.5824V24.811C52.5824 25.3703 52.6778 25.9776 52.9111 26.5102C53.1019 26.947 53.3882 27.3305 53.7858 27.5862C53.9342 27.6768 54.0933 27.7567 54.2682 27.8206C54.4431 27.8845 54.634 27.9325 54.8354 27.9751C55.0422 28.0124 55.2436 28.0443 55.4451 28.0656C55.6413 28.0816 55.8427 28.0923 56.0389 28.0923H58.9758V30.2922H55.8268C55.0263 30.2922 54.2364 30.1963 53.4465 30.0099C53.0436 29.914 52.6725 29.7702 52.3226 29.5731C51.9727 29.376 51.6493 29.131 51.3525 28.8327H51.3472C51.1192 28.593 50.9231 28.3107 50.7587 27.9911C50.5944 27.6768 50.4618 27.3199 50.3611 26.9204C50.3293 26.7926 50.2975 26.686 50.271 26.5848C50.1332 26.0575 50.0642 25.7965 50.0642 24.9495V13.9019H46.9524V11.7393H50.0642V5.57096H52.5824V11.7393Z" fill="white"/>
<path fill-rule="evenodd" clip-rule="evenodd" d="M91.245 16.5812L88.6632 16.2296C88.6208 16.3734 88.5731 16.5226 88.536 16.6824C88.3292 17.508 88.2126 17.7903 87.9581 18.4082C87.9051 18.5307 87.8468 18.6746 87.7832 18.8344C87.5393 19.4256 87.2531 20.0808 86.9085 20.8052C86.1981 22.2967 85.228 24.1078 84.2419 25.5833C83.5262 26.6646 82.8265 27.5435 82.2751 27.9111C82.1744 27.9803 82.0949 28.0176 82.0366 28.0336C81.9941 28.0016 81.9464 27.9377 81.8881 27.8525C81.4799 27.2506 81.1777 26.0414 80.9816 24.3155C80.8809 23.442 80.8119 22.4565 80.7748 21.4178C81.7609 20.0968 82.6144 18.6905 83.2453 17.1298C83.8973 15.5052 84.2949 13.7261 84.4646 12.144C84.666 10.2903 84.5494 8.63905 84.1624 7.74949C83.9715 7.31803 83.7065 7.00375 83.3831 6.80134C82.9219 6.50837 82.4182 6.47108 81.8987 6.67883C81.5435 6.81732 81.1989 7.08898 80.8809 7.47783C80.303 8.19161 79.7305 9.45936 79.3329 11.2385C78.9459 12.9803 78.7179 15.2548 78.6331 17.5666C78.596 18.6266 78.5907 19.692 78.6119 20.72C77.6258 21.9665 76.5073 23.1703 75.3887 24.3688L76.9632 25.823C77.5728 25.1678 78.1825 24.5126 78.7762 23.8468C78.7974 24.0918 78.8239 24.3262 78.8504 24.5552C79.0837 26.6167 79.5025 28.1454 80.1069 29.0403C80.356 29.4132 80.6529 29.7008 80.9922 29.8926C81.3845 30.1217 81.8086 30.2122 82.2592 30.1589H82.2645C82.6621 30.1163 83.065 29.9565 83.4679 29.6849C84.2843 29.1415 85.1749 28.0549 86.0338 26.7658C87.534 24.5073 88.2285 22.872 89.1456 20.704C89.2835 20.3898 89.4213 20.0542 89.5698 19.7079C89.6387 20.3205 89.697 20.9065 89.7553 21.4871C89.9302 23.3088 90.0999 25.0346 90.5982 26.9576C90.9905 28.465 91.5047 29.4079 92.1833 29.8606C93.0951 30.4679 94.0388 30.2868 95.0831 29.4239C96.6948 28.0922 98.5767 25.2584 100.263 21.8599C100.422 23.0584 100.581 24.0918 100.729 24.8695C101.037 26.5528 101.381 27.7726 101.779 28.5822C102.351 29.7435 103.083 30.2442 104.032 30.1856C104.721 30.143 105.415 29.7435 106.068 29.1522C106.746 28.5449 107.414 27.7087 107.96 26.9256C108.448 26.2225 108.84 25.562 109.185 24.9228C109.508 24.3315 109.81 23.6976 110.118 23.0638L108.183 22.1476C107.912 22.7122 107.637 23.2768 107.297 23.9107C106.979 24.502 106.624 25.0986 106.2 25.7111C105.728 26.3876 105.172 27.0908 104.636 27.5702C104.318 27.8525 104.058 28.0442 103.905 28.0496C103.905 28.0496 103.841 27.9217 103.703 27.6447C103.396 27.0162 103.115 25.9828 102.834 24.4807C102.574 23.0744 102.251 20.7999 102.017 18.1366L113.776 14.9938L113.224 12.927L102.855 15.6969C104.53 10.9082 105.468 6.00766 104.694 2.9235C104.451 1.95936 104.08 1.27222 103.634 0.899351C103.125 0.478541 102.563 0.38266 101.975 0.643669C101.572 0.814124 101.211 1.16569 100.909 1.70368C100.305 2.77968 99.7854 4.99026 99.6105 8.4899C99.4833 11.1373 99.5575 13.9125 99.7324 16.464L99.7377 16.5279L94.8976 17.8223L95.4489 19.8891L99.3083 18.8557C97.5377 22.8827 95.4277 26.361 93.7154 27.7726C93.5776 27.8898 93.4874 27.9803 93.4344 28.0336C93.3973 28.0709 93.3814 28.0922 93.3761 28.0869C93.1535 27.943 92.9308 27.3997 92.6763 26.4196C92.3636 25.2211 92.0932 23.5219 91.8758 21.8493C91.6585 20.1767 91.4888 18.4828 91.3722 17.3535C91.3457 17.0766 91.298 16.8209 91.245 16.5812ZM99.3083 18.8557L102.017 18.1366L102.001 17.9714C102.224 17.4228 102.436 16.8688 102.638 16.3148C102.712 16.1071 102.786 15.8994 102.855 15.6969L99.7377 16.5279C99.7642 16.9061 99.7907 17.279 99.8225 17.6518C99.6529 18.0567 99.4833 18.4615 99.3083 18.8557ZM81.252 16.3361C81.1088 16.6877 80.9551 17.0286 80.7907 17.3695C80.8756 15.2655 81.0823 13.236 81.4269 11.6966C81.6867 10.5247 82.01 9.66711 82.3387 9.12378C82.4554 9.7843 82.4554 10.7751 82.3334 11.9203C82.1797 13.3266 81.8298 14.9033 81.252 16.3361ZM102.611 3.44019C103.141 5.55489 102.685 8.79885 101.699 12.2665C101.678 11.0307 101.694 9.79495 101.752 8.59111C101.879 5.97037 102.187 4.22854 102.558 3.2431C102.574 3.30702 102.59 3.37094 102.611 3.44019Z" fill="white"/>
<path d="M102.001 17.9715C102.224 17.4229 102.436 16.8689 102.638 16.3149C102.712 16.1072 102.786 15.8994 102.855 15.697L99.7378 16.528C99.7643 16.9062 99.7908 17.2791 99.8226 17.6519C99.6529 18.0568 99.4833 18.4616 99.3083 18.8558L102.017 18.1367L102.001 17.9715Z" fill="white"/>
</g>
<defs>
<clipPath id="clip0_1_66">
<rect width="114" height="30" fill="white" transform="translate(0.395996 0.5)"/>
</clipPath>
</defs>
</svg>
