<svg width="128" height="35" viewBox="0 0 128 35" fill="none" xmlns="http://www.w3.org/2000/svg">
<path d="M16.6977 13.2289L26.5469 27.9508H21.0344L12.5523 15.3945H8.47813V27.9508H3.64922V4.68672H-0.00390625L2.42969 0H8.47813V11.0633H12.5523L20.6133 0H26.093L16.6977 13.2289ZM25.0648 17.8719C25.0648 15.6953 25.5461 13.7922 26.5086 12.168C27.4492 10.6422 28.7289 9.47734 30.3531 8.6625C31.9773 7.84766 33.7273 7.44297 35.6031 7.44297C37.5281 7.44297 39.2672 7.83672 40.8148 8.62422C42.4391 9.43359 43.7188 10.6422 44.6539 12.2445C45.5945 13.8195 46.0648 15.6953 46.0648 17.8719C46.0648 20.0812 45.5945 21.9789 44.6539 23.5812C43.7188 25.1562 42.4391 26.3758 40.8148 27.2453C39.218 28.082 37.4789 28.5031 35.6031 28.5031C33.7492 28.5031 32.0156 28.082 30.3914 27.2453C28.7453 26.4031 27.4383 25.1836 26.4703 23.5812C25.5352 21.957 25.0648 20.0539 25.0648 17.8719ZM107.118 8.07187H111.416V10.7898C112.078 9.73984 112.953 8.93594 114.041 8.38359C115.157 7.80937 116.59 7.51953 118.34 7.51953C120.145 7.51953 121.741 7.94062 123.136 8.77734C124.481 9.64687 125.52 10.8773 126.253 12.4797C127.013 14.0547 127.396 15.8648 127.396 17.9156C127.396 19.9883 127.013 21.8258 126.253 23.4227C125.52 24.9977 124.481 26.2227 123.136 27.0867C122.502 27.5352 121.752 27.8633 120.894 28.0711C120.052 28.3062 119.204 28.4266 118.34 28.4266C116.847 28.4266 115.731 28.3062 114.993 28.0711C113.473 27.6008 112.395 26.8133 111.761 25.7086V35H107.118V8.07187ZM48.5367 8.07187H53.1414V15.6297H61.0164V8.07187H65.5773V27.9508H61.0164V19.5672H53.1414V27.9508H48.5367V8.07187ZM67.5953 8.07187H85.2867V11.8508H78.7406V27.9508H74.0648V11.8508H67.5953V8.07187ZM91.6359 8.07187C93.3641 12.9555 94.9336 17.7844 96.3555 22.5586C97.7008 17.8336 99.2211 13.0047 100.922 8.07187H105.559L98.4828 28.3445C97.9031 30.0016 97.3453 31.2703 96.8094 32.1672C96.2297 33.0586 95.5023 33.7258 94.6437 34.1742C93.807 34.6445 92.6914 34.8797 91.2969 34.8797C90.5094 34.8797 90.0773 34.8687 90.0008 34.8414L88.4422 31.0625C88.9234 31.1664 89.5195 31.2211 90.2305 31.2211C91.0945 31.2211 91.7891 31.0898 92.3195 30.8273C92.8063 30.6195 93.1727 30.3297 93.4242 29.9633C93.6813 29.6187 93.8945 29.1867 94.0695 28.6617L86.7687 8.07187H91.6359ZM29.7461 17.8336C29.7461 20.0156 30.2492 21.6781 31.2664 22.832C32.2781 23.9641 33.6891 24.5273 35.4883 24.5273C37.3148 24.5273 38.7367 23.9641 39.7484 22.832C40.7875 21.6781 41.307 20.0156 41.307 17.8336C41.307 15.7063 40.8039 14.1094 39.7867 13.032C38.775 11.9273 37.3422 11.3805 35.4883 11.3805C33.6617 11.3805 32.2398 11.9273 31.2281 13.032C30.2383 14.1094 29.7461 15.7063 29.7461 17.8336ZM111.646 17.8719C111.695 19.8406 112.204 21.4156 113.166 22.5969C114.134 23.7781 115.491 24.3687 117.241 24.3687C118.991 24.3687 120.336 23.7781 121.271 22.5969C122.234 21.4156 122.731 19.8406 122.753 17.8719C122.731 15.9305 122.234 14.3828 121.271 13.2289C120.336 12.0477 118.991 11.457 117.241 11.457C115.491 11.457 114.134 12.0367 113.166 13.1906C112.204 14.3445 111.695 15.9031 111.646 17.8719Z" fill="white"/>
</svg>
