<svg width="128" height="35" viewBox="0 0 128 35" fill="none" xmlns="http://www.w3.org/2000/svg">
<path d="M16.7016 13.2289L26.5508 27.9508H21.0383L12.5562 15.3945H8.48203V27.9508H3.65313V4.68672H0L2.43359 0H8.48203V11.0633H12.5562L20.6172 0H26.0969L16.7016 13.2289ZM25.0688 17.8719C25.0688 15.6953 25.55 13.7922 26.5125 12.168C27.4531 10.6422 28.7328 9.47734 30.357 8.6625C31.9812 7.84766 33.7313 7.44297 35.607 7.44297C37.532 7.44297 39.2711 7.83672 40.8187 8.62422C42.443 9.43359 43.7227 10.6422 44.6578 12.2445C45.5984 13.8195 46.0687 15.6953 46.0687 17.8719C46.0687 20.0812 45.5984 21.9789 44.6578 23.5812C43.7227 25.1562 42.443 26.3758 40.8187 27.2453C39.2219 28.082 37.4828 28.5031 35.607 28.5031C33.7531 28.5031 32.0195 28.082 30.3953 27.2453C28.7492 26.4031 27.4422 25.1836 26.4742 23.5812C25.5391 21.957 25.0688 20.0539 25.0688 17.8719ZM107.122 8.07187H111.42V10.7898C112.082 9.73984 112.957 8.93594 114.045 8.38359C115.161 7.80937 116.594 7.51953 118.344 7.51953C120.148 7.51953 121.745 7.94062 123.14 8.77734C124.485 9.64687 125.524 10.8773 126.257 12.4797C127.017 14.0547 127.4 15.8648 127.4 17.9156C127.4 19.9883 127.017 21.8258 126.257 23.4227C125.524 24.9977 124.485 26.2227 123.14 27.0867C122.505 27.5352 121.756 27.8633 120.898 28.0711C120.055 28.3062 119.208 28.4266 118.344 28.4266C116.851 28.4266 115.735 28.3062 114.997 28.0711C113.477 27.6008 112.399 26.8133 111.765 25.7086V35H107.122V8.07187ZM48.5406 8.07187H53.1453V15.6297H61.0203V8.07187H65.5812V27.9508H61.0203V19.5672H53.1453V27.9508H48.5406V8.07187ZM67.5992 8.07187H85.2906V11.8508H78.7445V27.9508H74.0687V11.8508H67.5992V8.07187ZM91.6398 8.07187C93.368 12.9555 94.9375 17.7844 96.3594 22.5586C97.7047 17.8336 99.225 13.0047 100.926 8.07187H105.563L98.4867 28.3445C97.907 30.0016 97.3492 31.2703 96.8133 32.1672C96.2336 33.0586 95.5062 33.7258 94.6477 34.1742C93.8109 34.6445 92.6953 34.8797 91.3008 34.8797C90.5133 34.8797 90.0812 34.8687 90.0047 34.8414L88.4461 31.0625C88.9273 31.1664 89.5234 31.2211 90.2344 31.2211C91.0984 31.2211 91.793 31.0898 92.3234 30.8273C92.8102 30.6195 93.1766 30.3297 93.4281 29.9633C93.6852 29.6187 93.8984 29.1867 94.0734 28.6617L86.7727 8.07187H91.6398ZM29.75 17.8336C29.75 20.0156 30.2531 21.6781 31.2703 22.832C32.282 23.9641 33.693 24.5273 35.4922 24.5273C37.3187 24.5273 38.7406 23.9641 39.7523 22.832C40.7914 21.6781 41.3109 20.0156 41.3109 17.8336C41.3109 15.7063 40.8078 14.1094 39.7906 13.032C38.7789 11.9273 37.3461 11.3805 35.4922 11.3805C33.6656 11.3805 32.2437 11.9273 31.232 13.032C30.2422 14.1094 29.75 15.7063 29.75 17.8336ZM111.65 17.8719C111.699 19.8406 112.208 21.4156 113.17 22.5969C114.138 23.7781 115.495 24.3687 117.245 24.3687C118.995 24.3687 120.34 23.7781 121.275 22.5969C122.237 21.4156 122.735 19.8406 122.757 17.8719C122.735 15.9305 122.237 14.3828 121.275 13.2289C120.34 12.0477 118.995 11.457 117.245 11.457C115.495 11.457 114.138 12.0367 113.17 13.1906C112.208 14.3445 111.699 15.9031 111.65 17.8719Z" fill="#101010"/>
</svg>
