<svg width="942" height="1012" viewBox="0 0 942 1012" fill="none" xmlns="http://www.w3.org/2000/svg">
<path d="M393.183 102.876C391.624 103.167 390.103 103.438 388.733 103.667C374.333 106.2 322.467 119.267 304.733 124.867C272.867 134.867 236.2 148.6 214.733 158.333C209.667 160.733 202.733 163.8 199.4 165.267C182.067 173.133 106.6 212.067 101.133 216.2C100.867 216.467 140.6 240.467 170.6 258.2L183.8 265.933L195.267 258.333C280.067 201.8 363.133 172.733 449.133 169.4L470.067 168.6V95.498M393.183 102.876C397.088 102.149 401.227 101.305 403.8 100.733L410.067 99.4V78.867C410.067 59.933 409.933 58.333 407.667 58.333C407.21 58.333 406.475 58.384 405.509 58.478M393.183 102.876C424.046 97.491 446.672 95.575 470.067 95.498M405.509 58.478C398.016 59.204 376.628 62.535 363.4 65.133C318.867 73.8 259.933 92.467 208.733 113.933C165.267 132.2 95.533 168.067 63.933 188.467L53 195.533L53.533 209.933C57 307.933 57.933 324.333 62.867 369.667C70.867 443.667 83.8 502.6 104.067 557.4C108.149 568.407 110.119 573.596 111.567 575.689M405.509 58.478C428.019 55.456 446.943 54.034 470.067 53.338M111.567 575.689C111.937 576.224 112.273 576.557 112.601 576.733C113.339 577.129 114.038 576.736 115 576.067C116.333 575.267 125.267 569.667 134.733 563.8C138.538 561.475 144.164 557.998 150.6 554.009M111.567 575.689C126.206 609.701 134.823 626.011 150.567 652.721M150.6 554.009C160.404 547.932 172.086 540.665 182.067 534.467C198.467 524.2 212.467 516.2 212.867 516.733C213.933 517.8 231.8 557.267 236.733 569.267L240.567 576.167L236.067 581.267C221.749 598.467 209.311 610.286 186.592 626.625M150.6 554.009C160.693 576.987 171.177 597.839 186.592 626.625M186.592 626.625C176.73 633.717 164.931 641.661 150.2 651.267C150.056 651.363 150.191 651.867 150.567 652.721M150.567 652.721C154.373 661.361 182.912 705.827 198.2 726.333C233.933 774.333 275.667 817.933 328.333 862.067C356.067 885.4 410.2 923.13 454.6 950.2C468.333 958.6 470.867 959.67 473.533 958.47C494.6 949 559.933 906.2 594.733 879.133C630.867 851.133 681.4 803.133 706.6 773C722.733 753.667 743.667 727.267 750.867 717C780.867 674.6 813 612.733 830.867 563.667C836.867 547.4 848.733 511.133 848.733 509.533M848.733 509.533C848.733 508.867 844.333 505.933 839 503.133C832.696 499.71 822.362 494.005 811.354 487.888M848.733 509.533C857.69 480.288 861.687 464.076 868.2 435.267M811.354 487.888C795.354 478.995 777.931 469.231 769.4 464.333C762.067 460.067 753.533 455.133 750.333 453.267C747.133 451.533 744.2 449.133 743.8 448.2C743.4 447.267 744.467 439.267 745.933 430.6C752.6 392.867 756.333 353.4 758.867 291.267L759.667 268.867L765.267 265.8C785.533 254.2 811.933 238.6 827.133 229.267L844.733 218.467V223.4C844.733 226.067 844.067 243.933 843.4 263C841.4 312.6 837.533 355.533 831.933 390.867C831.683 392.423 831.447 393.951 831.227 395.432M811.354 487.888C820.005 457.5 825.538 431.815 831.227 395.432M831.227 395.432C829.812 404.98 829.089 412.538 829.667 413C831 414.333 867.933 435.533 868.2 435.267M868.2 435.267C869.267 434.2 876.2 389.8 878.87 367.533C883.4 328.333 888.87 236.333 888.73 201.667L888.6 193.667L878.73 187.267C848.6 167.933 831 157.933 796.733 140.867C710.867 98.067 634.067 71.8 559.4 59.667C537.8 56.2 502.6 53 484.467 53H470.067V53.338M470.067 53.338V95.498M288.787 572.25C288.937 572.227 289.085 572.206 289.231 572.187C289.344 572.171 289.456 572.157 289.567 572.144C290.28 572.059 290.981 571.988 291.667 571.933C300.467 571.267 300.467 571.267 308.333 563.133C333.8 536.467 352.733 502.867 358.067 474.467C361.4 456.733 358.867 432.2 352.067 415.4C345.267 398.733 339.133 390.467 323.8 377.667C315.8 371.133 304.867 361.8 299.4 357.133C293.933 352.467 287.4 346.867 285.133 344.733C282.733 342.6 280.733 341.4 280.733 342.067C280.733 342.6 282.733 347 285.267 351.667C292.2 364.733 297.933 379.933 301.667 395.533C304.733 408.6 305 411.267 304.333 432.333C303.8 451.8 303.133 457.133 299.667 470.333C293.158 495.555 283.531 519.422 271.264 540.979M288.787 572.25C276.898 574.063 248.95 586.336 247.157 587.127M288.787 572.25C282.841 562.342 277.503 552.811 271.264 540.979M247.157 587.127C247.097 587.153 247.067 587.167 247.067 587.167C247.067 587.167 247.098 587.13 247.133 587.088M247.157 587.127C247.149 587.114 247.141 587.101 247.133 587.088M247.133 587.088C247.18 587.034 247.232 586.971 247.226 586.975C247.205 586.987 247.165 587.01 247.106 587.044M247.106 587.044C246.091 587.638 239.602 591.471 236.2 593.667C232.067 596.2 228.733 598.067 228.733 597.533C228.733 597 232.467 592.733 236.867 587.933C238.85 585.824 241.142 583.372 243.067 581.167M247.106 587.044C245.865 585.03 244.628 582.982 243.357 580.831M243.067 581.167C243.008 581.234 243.125 581.1 243.067 581.167ZM243.067 581.167C243.164 581.055 243.26 580.943 243.357 580.831M243.357 580.831C253.66 568.915 262.781 555.804 270.918 541.585M270.918 541.585C270.95 541.529 270.982 541.473 271.014 541.418M270.918 541.585L271.014 541.418M271.014 541.418C271.062 541.334 271.11 541.25 271.157 541.167C271.193 541.104 271.229 541.042 271.264 540.979M557.4 102.467C644.333 118.067 738.6 154.333 826.6 206.067L842.467 215.4L837.267 218.6C819.8 229.533 765.4 261.533 762.2 262.733C758.867 263.933 757.533 263.4 748.6 257.4C726.467 242.6 702.467 229.4 678.733 219C661.4 211.4 660.733 210.867 660.733 206.867C660.733 199.4 655 188.333 646.867 180.333C637.933 171.4 633.267 168.733 620.333 165.4C598.733 159.667 573.533 171.533 563.4 192.067C553.267 212.733 557 236.6 573 252.867C578.2 258.2 592.333 266.333 596.467 266.333C598.733 266.333 598.467 268.467 594.2 283.133C592.067 290.467 588.067 305.133 585.267 315.933C582.6 326.867 579.8 335.667 579.133 335.667C575.4 335.667 555.4 324.6 530.067 308.733C514.333 298.867 496.333 287.533 490.067 283.667C470.467 271.267 472.6 276.467 472.6 241.4V211H481C485.667 211 495.133 211.533 502.067 212.067L514.733 213.267L513.933 96.6L524.333 97.533C530.067 97.933 545 100.2 557.4 102.467ZM618.467 194.867C628.067 198.867 634.067 209.933 632.333 220.467C630.733 230.067 619.533 239.533 609.667 239.667C601.667 239.667 591.8 233.533 587.8 225.8C585.533 221.533 585.267 212.6 587.133 207.667C591.667 196.067 606.733 189.933 618.467 194.867ZM467.933 220.6C468.333 226.2 468.733 239.8 468.733 251V271.267L440.467 289.4C424.867 299.4 411.933 307.4 411.8 307.133C411.667 307 409.4 299.667 406.867 291C404.333 282.2 398.6 262.467 394.067 247.133C389.667 231.8 386.2 219 386.467 218.733C387.133 218.067 423.267 211.933 430.733 211.267C433.667 211 443 210.733 451.533 210.6L467 210.333L467.933 220.6ZM115.667 229.8C124.733 235.533 133.533 241 135.4 242.2C141.667 246.067 180.067 269 181 269.267C181.533 269.533 182.733 281 183.667 294.867L185.267 320.067L181.267 322.733C165.4 334.2 156.867 355.133 160.6 373.4C163.667 388.067 170.333 398.733 181.533 406.467C203.533 421.533 233.8 417.4 249.933 397C257 388.067 260.867 377.4 261 366.333C261.133 354.733 259.933 349.933 255 340.6C250.2 331.4 242.6 324.333 232.2 319.267L224.733 315.533V294.2L237.933 304.333C261.8 322.6 276.6 341.4 287.8 367.8C295.667 386.067 300.733 409.533 300.733 427.267C300.733 453.133 289 495.267 273.133 526.733L268.333 536.333L266.067 531C255.4 506.733 238.067 466.067 236.6 461.933C235.4 458.6 234.2 457.133 233 457.667C231.933 458.067 215.133 468.067 195.533 479.933C149 508.067 135.4 516.067 134.733 515.533C133.8 514.467 124.867 481.267 121.667 466.333C110.2 414.467 102.067 347.8 99.4 283C98.067 249.267 97.667 219.667 98.6 219.667C99 219.667 106.6 224.2 115.667 229.8ZM388.467 243.4C392.333 256.333 398.067 275.933 401.4 287C404.733 297.933 407.4 307.933 407.4 309C407.4 310.867 396.2 318.2 379.4 327.4C375.4 329.667 366.733 333.4 360.067 335.667C349.667 339.4 346.2 339.933 334.733 340.067C308.6 340.2 291.4 333.133 245.533 303.933L225.667 291.133L229.533 288.067C234.333 284.067 260.6 268.467 274.733 261C303.4 246.067 336.467 232.467 364.6 224.333C373.133 221.8 380.333 219.8 380.733 219.8C381.133 219.667 384.6 230.333 388.467 243.4ZM666.333 259.667C683.267 268.2 707.533 282.2 713.267 286.867L716.867 289.667L697.933 303C665.4 325.8 647.4 335.133 628.333 339.267C617.933 341.4 600.733 341 589.933 338.333L583.933 336.867L591.133 311.267C604.867 262.6 603 267.267 607.533 268.2C616.6 269.933 637.667 262.467 644.733 255C646.467 253.133 648.467 251.667 649.133 251.667C649.933 251.667 657.667 255.267 666.333 259.667ZM464.733 289.933C450.6 342.2 422.467 379.533 389 390.2C380.867 392.867 377.533 393.267 367.667 392.6C348.333 391.533 344.067 389.133 311.933 362.067C296.467 349.133 280.467 335.4 276.6 331.667L269.4 324.867L280.333 330.333C317.933 348.733 348.333 348.867 381.933 330.733C390.733 325.933 429.267 301.667 454.067 285.133C461.8 280.067 468.2 275.8 468.333 275.8C468.467 275.667 466.867 282.067 464.733 289.933ZM538.467 319.133C574.467 340.733 584.867 344.2 612.067 344.333C631.4 344.333 637 343 656.733 334.067C663 331.267 667.133 329.8 666.067 330.733C648.467 347.533 604.067 383.533 597.133 386.6C573.667 397 552.733 394.6 531.933 379.267C514.733 366.6 500.333 348.333 488.733 324.333C481.933 310.333 472.733 284.2 472.733 278.867C472.733 277.8 481.4 282.733 493 290.467C504.067 297.933 524.6 310.867 538.467 319.133ZM472.067 293.933C474.6 307.933 488.067 335.667 501.267 354.6C509.4 366.333 527.667 383.4 537.533 388.6C551.8 396.2 569.933 399 584.067 395.667C587 395 589.533 394.6 589.667 394.867C589.8 395 583.267 400.467 575.133 407C555.933 422.6 544.867 431.667 531.8 442.467L521.267 451.267L519.667 441.267C517 424.333 508.6 413.133 493 405.4C483.4 400.6 482.2 400.333 470.067 400.333C459.133 400.333 456.333 400.867 449.8 403.933C433.933 411.267 423 426.467 421.267 443.267L420.333 451.533L410.467 443.267C401 435.4 396.867 431.933 368.867 409.133C362.067 403.533 355.133 397.933 353.533 396.6C350.867 394.2 350.867 394.067 353.4 395.133C354.867 395.667 361.533 396.333 368.333 396.733C378.2 397.133 382.333 396.733 389.667 394.467C421.8 384.733 450.333 350.333 464.733 303.8C467.267 295.667 469.8 289 470.2 289C470.733 289 471.533 291.267 472.067 293.933ZM717.533 321.267C716.067 362.067 713.667 383.4 705.133 431C702.6 444.867 700.2 458.467 699.933 461L699.267 465.667L717 476.733C737.533 489.667 797.8 528.333 798.733 529.267C799.533 529.933 789.8 554.867 779.4 579C769 603.267 744.6 649 742.067 649C741.267 649 723.4 601 723.4 598.733C723.4 597.8 725.533 593.133 728.333 588.2C741 565.133 731.8 536.333 707.933 524.333C700.6 520.6 699 520.333 685.8 520.333H671.4L664.2 506.333C649.933 478.733 644.733 458.067 644.733 428.733C644.6 385.133 659.4 346.333 686.6 319C695.8 309.8 714.867 294.467 717.267 294.333C717.933 294.333 718.067 305.667 717.533 321.267ZM662.2 342.867C658.867 346.733 651.4 363.933 647.4 376.467C633.8 419.8 637.667 464.867 658.733 506.6C666.2 521.667 666.867 523.667 664.733 524.333C659.667 525.933 651.667 533 647.133 539.8C642.333 547.133 640.333 552.467 638.733 561.267L637.933 566.333L629.933 557.267C595 518.333 579.933 483.267 582.733 448.067C584.867 419.533 596.067 395.267 613.667 380.733C619.267 376.067 632.467 365 643.267 356.067C653.933 347.133 662.867 340.067 663.267 340.333C663.533 340.733 663.133 341.8 662.2 342.867ZM220.067 345C227.133 348.333 231.533 354.467 232.467 361.8C233.267 369.8 232.067 373.533 226.6 379.667C221 385.933 214.6 388.2 206.867 387.133C199.667 386.067 190.867 378.733 188.733 372.2C185.267 361.8 190.2 349.933 200.067 345C206.867 341.667 213.133 341.667 220.067 345ZM367.667 413.4C374.067 418.6 388.867 430.733 400.467 440.333C418.867 455.267 422.067 458.333 423.4 463C425.933 471.4 431.267 479.667 439 487.133L446.067 493.8L442.067 516.333C439.8 528.733 437.267 539.8 436.333 540.867C434.333 543.533 421.8 558.467 420.067 560.467C418.733 561.8 390.067 595.8 382.6 604.733L379.8 608.067L368.467 599.4C347.8 583.667 335.667 577.533 316.2 573L306.867 570.867L310.2 567.667C329 549.4 347 521.933 356.2 497.4C367.533 467.4 366.333 433.533 353.133 407.133L348.6 398.067L352.333 400.867C354.333 402.467 361.267 408.067 367.667 413.4ZM588.733 407.4C580.867 423.933 578.733 434.2 578.867 456.333C578.867 474.2 579.267 477.667 582.6 488.333C590.333 513.533 605.267 537.667 629.133 563.133L635.533 570.067L628.467 571.667C610.333 575.933 590.2 586.6 571.133 602.067L562.067 609.267L559.533 606.2C558.2 604.467 551.8 596.733 545.533 589C539.133 581.267 527.133 566.467 518.6 556.067L503.133 537.133L499.267 516.067C497.133 504.467 495.4 494.333 495.4 493.667C495.533 492.867 497.8 490.733 500.6 488.733C507 484.333 513.4 475.267 517.533 464.733C519.267 460.2 521.8 455.8 523.267 454.867C524.6 453.933 538.333 442.733 553.667 430.067C585.933 403.4 591.933 398.467 592.333 398.867C592.467 399 590.867 402.867 588.733 407.4ZM697.8 549.4C707.133 555.667 709.533 567.8 703.267 577.933C700.467 582.333 691.267 587.667 686.333 587.667C681.8 587.667 675.133 584.467 671.133 580.333C654.067 563.133 677.533 535.933 697.8 549.4ZM530.733 577.667C540.2 589.4 550.333 601.933 553.267 605.4L558.6 611.8L541 629.4C507 663.533 491.8 685.4 477.933 719.667L472.733 732.333V595.667H494.067C510.2 595.667 515.4 595.267 515.4 593.933C515.4 593.133 513.267 583 510.733 571.667C508.2 560.333 506.067 550.2 506.067 549.267C506.067 547.267 508.333 549.933 530.733 577.667ZM430.733 568.6C428.2 578.733 425.933 588.6 425.4 590.467C424.6 593.533 425 594.067 428.867 594.867C431.133 595.267 441.133 595.667 450.867 595.667H468.733V663.267L468.6 731L464.867 721.4C450.867 685.933 427.267 653 391.533 619.267C386.6 614.6 383.8 610.867 384.333 609.933C384.867 609 389.8 602.867 395.4 596.333C401 589.667 411.933 576.733 419.8 567.267C427.8 557.933 434.467 550.333 434.6 550.333C434.867 550.333 433.133 558.6 430.733 568.6ZM639 576.6C639.4 577.933 641.133 582.2 642.867 586.2L646.067 593.267L637.133 606.2C629.133 617.667 614.6 636.2 603.667 649C600.067 653.133 599.4 653.4 597.667 651.667C593.4 647.4 566.067 613.8 566.067 612.867C566.067 612.333 573 606.6 581.267 600.333C597.933 587.933 614.867 579.133 627.8 576.333C638.6 573.933 638.067 573.933 639 576.6ZM317.8 577.667C329.133 580.333 343.533 587.133 355.267 595.4C365.667 602.6 375.4 611 375.4 612.733C375.4 613.267 372.2 617.4 368.333 621.8C364.467 626.2 357.533 634.467 352.867 640.067C348.333 645.8 344.2 650.333 343.667 650.2C341.061 649.93 318.831 619.135 304.614 597.533C297.736 587.084 292.733 578.785 292.733 577.133C292.733 575 307.8 575.267 317.8 577.667ZM260.067 607C274.2 630.2 291.133 654.067 311.8 679.533L319.8 689.267L302.067 724.867L284.467 760.333L273.133 748.333C258.333 732.467 232.733 700.733 220.333 682.733C208.467 665.4 190.467 635.933 189.8 632.6C189.533 630.867 196.6 625.4 219.4 610.467C235.933 599.533 249.8 591 250.333 591.4C250.867 591.933 255.267 598.867 260.067 607ZM729.133 627.667C734.067 641.267 738.067 653.267 738.067 654.467C738.067 656.333 725.133 677.933 716.6 690.333C709.667 700.467 693.8 720.867 685.267 730.867L676.333 741.4L672.333 736.867C670.2 734.333 661.933 725.4 654.2 717C629.267 690.2 627.4 688.067 627.4 687C627.4 686.467 631.133 681.8 635.8 676.467C648.067 662.6 661.667 645.133 673.267 627.933L683.533 613H689.267C697.133 613 707.4 609.667 713.533 605.133C716.333 603 719.133 601.667 719.533 602.2C719.933 602.6 724.333 614.067 729.133 627.667ZM402.733 637.133C432.067 667.4 448.867 692.2 460.733 723.133C465.133 734.733 470.733 755.4 469.8 756.467C467.8 758.333 429.8 732.333 408.067 714.333C393.267 702.067 354.867 664.867 349.8 657.933C347.4 654.6 347.4 653.933 349 651.933C350.067 650.733 355.667 643.933 361.4 637C367.267 630.067 373.667 622.467 375.933 620.067L379.8 615.8L384.6 619.533C387.267 621.667 395.4 629.533 402.733 637.133ZM570.2 625.8C574.2 630.733 578.067 635.4 578.733 636.2C585.933 644.067 595.4 656.2 595.4 657.4C595.267 661.533 553.8 701.533 531.133 719.4C514.6 732.333 477.133 757 473.8 757C469.933 757 480.2 721.933 489.4 703.533C495.667 691.133 508.2 672.2 517.8 661C526.6 650.6 560.2 617 561.8 617C562.333 617 566.2 621 570.2 625.8ZM649.533 718.2C661.933 731.533 672.2 743.4 672.467 744.2C672.867 746.2 627.8 792.2 610.733 807.267C576.467 837.4 538.6 865.267 500.6 888.467C487.533 896.333 474.467 903.667 473.533 903.667C473 903.667 472.733 882.2 472.733 855.933V808.067L476.467 806.2C517.8 785.133 582.2 735.667 614.6 700.333C621.933 692.333 624.2 690.6 625.4 691.933C626.2 692.867 637.133 704.733 649.533 718.2ZM342.067 712.067C360.2 730.067 379.667 747.267 392.067 756.467C395 758.6 397.667 760.6 398.067 761C401 764.333 445.8 793.933 460.467 802.333L468.6 807L469 855.4C469.267 894.067 469 903.533 467.667 903C466.733 902.733 453.533 894.467 438.333 884.6C398.867 859.267 357.933 829.133 333 807.133C317.267 793 287.4 763.533 287.933 762.467C288.2 762.067 295.933 746.2 305.267 727.267C314.6 708.467 322.333 693 322.467 693C322.733 693 331.533 701.667 342.067 712.067Z" stroke="url(#paint0_linear_252_192)" stroke-width="105" stroke-linecap="round" stroke-linejoin="round"/>
<path d="M484.467 53.5C502.567 53.5 537.74 56.6973 559.32 60.1611V60.1602C633.926 72.2833 710.678 98.5314 796.51 141.314C830.76 158.372 848.345 168.363 878.458 187.686V187.687L888.104 193.941L888.23 201.675C888.37 236.323 882.901 328.295 878.373 367.476C877.039 378.601 874.639 395.26 872.439 409.272C871.34 416.279 870.291 422.62 869.45 427.275C869.03 429.603 868.662 431.506 868.367 432.856C868.219 433.533 868.091 434.065 867.985 434.439C867.967 434.503 867.949 434.561 867.933 434.613C867.656 434.476 867.26 434.27 866.759 434.001C865.725 433.446 864.258 432.636 862.498 431.651C858.98 429.682 854.298 427.016 849.583 424.3C844.867 421.584 840.119 418.819 836.468 416.649C834.642 415.565 833.092 414.63 831.958 413.926C831.391 413.574 830.93 413.281 830.593 413.057C830.424 412.944 830.289 412.851 830.188 412.777C830.137 412.741 830.097 412.71 830.067 412.687C830.06 412.681 830.054 412.675 830.048 412.67C830.035 412.626 830.02 412.553 830.007 412.443C829.978 412.206 829.964 411.86 829.968 411.407C829.976 410.505 830.055 409.234 830.197 407.669C830.481 404.541 831.015 400.274 831.722 395.506C831.941 394.027 832.177 392.5 832.427 390.946V390.945C838.031 355.587 841.899 312.633 843.899 263.021V263.018C844.566 243.963 845.233 226.08 845.233 223.4V218.467C845.233 218.286 845.135 218.119 844.978 218.03C844.82 217.942 844.626 217.946 844.472 218.041L826.871 228.841C811.678 238.169 785.288 253.764 765.026 265.361L759.427 268.429C759.292 268.503 759.199 268.634 759.174 268.784L759.167 268.85L758.367 291.247C755.834 353.368 752.102 392.811 745.44 430.513V430.517C744.707 434.854 744.072 439.029 743.671 442.238C743.47 443.842 743.327 445.211 743.26 446.242C743.226 446.757 743.21 447.196 743.217 447.541C743.22 447.713 743.229 447.87 743.246 448.005C743.262 448.132 743.288 448.274 743.341 448.397C743.482 448.726 743.801 449.108 744.185 449.494C744.584 449.896 745.105 450.351 745.707 450.826C746.761 451.658 748.085 452.565 749.488 453.369L750.095 453.707C753.304 455.579 761.829 460.508 769.148 464.766L769.151 464.767C777.686 469.667 795.112 479.432 811.111 488.325C822.119 494.442 832.456 500.148 838.762 503.572L838.768 503.576C841.422 504.97 843.841 506.395 845.591 507.551C846.467 508.13 847.167 508.635 847.643 509.03C847.882 509.229 848.052 509.39 848.157 509.511C848.188 509.546 848.208 509.576 848.223 509.597C848.219 509.62 848.215 509.65 848.208 509.688C848.188 509.792 848.156 509.931 848.113 510.105C848.027 510.454 847.898 510.928 847.73 511.514C847.396 512.685 846.91 514.292 846.308 516.23C845.103 520.106 843.433 525.295 841.575 530.943C837.859 542.242 833.394 555.369 830.397 563.494V563.496C812.545 612.521 780.432 674.348 750.459 716.711L750.458 716.713C743.72 726.321 724.909 750.112 709.292 768.978L706.216 772.68C681.042 802.781 630.536 850.756 594.427 878.737L594.426 878.738C577.04 892.26 552.019 909.719 528.709 924.982C505.388 940.252 483.82 953.297 473.328 958.014C472.724 958.285 472.149 958.423 471.419 958.367C470.672 958.31 469.735 958.05 468.416 957.477C465.771 956.326 461.737 953.979 454.861 949.773H454.86C410.473 922.711 356.363 884.996 328.655 861.685L328.654 861.684L326.194 859.616C274.712 816.209 233.75 773.249 198.602 726.034H198.601C190.967 715.795 180.017 699.563 170.498 684.807C165.739 677.43 161.34 670.424 157.894 664.726C154.656 659.372 152.274 655.196 151.218 652.944L151.024 652.52C150.84 652.1 150.725 651.79 150.673 651.586C150.67 651.576 150.669 651.566 150.667 651.558C165.31 642.007 177.056 634.098 186.884 627.031C209.63 610.673 222.099 598.827 236.442 581.598L240.942 576.498C241.082 576.339 241.107 576.109 241.004 575.924L237.183 569.048C234.706 563.026 229.014 550.174 223.806 538.693C221.197 532.942 218.708 527.532 216.805 523.491C215.853 521.471 215.046 519.791 214.443 518.581C214.142 517.977 213.89 517.486 213.695 517.128C213.598 516.949 213.513 516.798 213.441 516.682C213.379 516.58 213.301 516.461 213.221 516.38H213.22C213.06 516.215 212.853 516.208 212.792 516.208C212.693 516.208 212.595 516.226 212.516 516.246C212.35 516.287 212.143 516.362 211.91 516.459C211.438 516.655 210.779 516.971 209.964 517.391C208.329 518.231 206.02 519.507 203.218 521.116C197.611 524.337 190.006 528.906 181.803 534.042C176.812 537.141 171.396 540.507 166.003 543.858L150.337 553.584C143.901 557.573 138.276 561.049 134.473 563.373L134.47 563.375C124.997 569.246 116.073 574.84 114.743 575.639L114.715 575.656C114.23 575.994 113.867 576.219 113.555 576.326C113.273 576.422 113.062 576.412 112.838 576.292C112.611 576.17 112.329 575.911 111.979 575.404C111.291 574.41 110.454 572.64 109.269 569.7C108.383 567.505 107.312 564.683 105.971 561.086L104.536 557.227C84.2867 502.474 71.361 443.583 63.3643 369.613C58.4324 324.299 57.4992 307.914 54.0322 209.915V209.914L53.5098 195.798L64.2041 188.887C95.7742 168.506 165.481 132.652 208.927 114.394V114.395C260.102 92.9388 319.003 74.2831 363.495 65.624H363.496C376.716 63.0276 398.087 59.6994 405.558 58.9756C406.523 58.8817 407.236 58.833 407.667 58.833C408.171 58.833 408.405 58.9189 408.597 59.1768C408.841 59.5051 409.061 60.1744 409.22 61.5566C409.532 64.2873 409.567 69.3832 409.567 78.8672V98.9951L403.696 100.244L403.691 100.245C401.125 100.816 396.992 101.659 393.092 102.385C391.535 102.675 390.017 102.945 388.65 103.174L388.646 103.175C374.221 105.712 322.334 118.784 304.583 124.39C272.703 134.394 236.016 148.134 214.526 157.878L214.519 157.881C209.46 160.277 202.532 163.342 199.198 164.81L199.193 164.812C190.513 168.751 167.301 180.458 145.587 191.689C134.727 197.307 124.238 202.808 116.12 207.164C112.062 209.342 108.594 211.234 105.969 212.712C103.359 214.181 101.547 215.259 100.831 215.801C100.813 215.815 100.795 215.83 100.778 215.847C100.649 215.976 100.622 216.138 100.634 216.255C100.644 216.354 100.68 216.425 100.697 216.455C100.733 216.518 100.776 216.562 100.791 216.578C100.83 216.619 100.876 216.657 100.914 216.687C100.996 216.751 101.113 216.834 101.257 216.933C101.547 217.132 101.981 217.417 102.542 217.775C103.665 218.494 105.315 219.524 107.394 220.807C111.552 223.372 117.432 226.953 124.258 231.078C137.909 239.329 155.344 249.763 170.346 258.631L170.348 258.632L183.547 266.364C183.712 266.461 183.917 266.455 184.076 266.35L195.543 258.75L195.544 258.749C280.281 202.258 363.26 173.228 449.152 169.899L470.086 169.1C470.354 169.089 470.567 168.868 470.567 168.6V53.5H484.467ZM625.052 691.109C624.763 691.012 624.457 691.004 624.139 691.068C623.525 691.192 622.823 691.595 621.993 692.238C620.53 693.373 618.488 695.403 615.548 698.568L614.231 699.995C581.871 735.286 517.521 784.713 476.243 805.753L472.51 807.62C472.34 807.705 472.233 807.878 472.233 808.067V855.933C472.233 869.067 472.3 881.004 472.434 889.658C472.5 893.984 472.583 897.493 472.684 899.923C472.734 901.136 472.788 902.087 472.848 902.738C472.877 903.061 472.909 903.325 472.945 903.514C472.963 903.604 472.985 903.702 473.018 903.786C473.033 903.826 473.063 903.894 473.115 903.961C473.161 904.02 473.299 904.167 473.533 904.167C473.629 904.167 473.721 904.146 473.785 904.129C473.858 904.109 473.938 904.083 474.021 904.052C474.188 903.99 474.395 903.901 474.636 903.791C475.119 903.57 475.766 903.248 476.549 902.842C478.116 902.028 480.252 900.863 482.762 899.453C487.783 896.634 494.32 892.831 500.857 888.896L500.86 888.894C538.885 865.678 576.776 837.794 611.063 807.643V807.642C619.612 800.095 635.157 784.818 648.508 771.184C655.185 764.365 661.317 757.952 665.758 753.117C667.977 750.701 669.778 748.674 671.014 747.186C671.63 746.443 672.114 745.826 672.438 745.357C672.6 745.125 672.73 744.916 672.819 744.74C672.864 744.653 672.904 744.56 672.932 744.469C672.956 744.388 672.987 744.252 672.957 744.102L672.941 744.042L672.894 743.929C672.876 743.894 672.858 743.863 672.843 743.837C672.807 743.777 672.763 743.71 672.713 743.638C672.613 743.493 672.476 743.31 672.309 743.094C671.973 742.66 671.497 742.073 670.898 741.354C669.701 739.917 668.002 737.938 665.926 735.57C661.772 730.833 656.102 724.529 649.898 717.859C637.492 704.386 626.572 692.533 625.779 691.607H625.78L625.617 691.444C625.455 691.299 625.268 691.182 625.052 691.109ZM322.467 692.5C322.328 692.5 322.231 692.557 322.2 692.576C322.16 692.601 322.131 692.628 322.117 692.642C322.088 692.669 322.067 692.695 322.059 692.706C322.039 692.732 322.022 692.76 322.01 692.778C321.984 692.819 321.953 692.873 321.919 692.934C321.849 693.057 321.752 693.237 321.63 693.468C321.386 693.931 321.035 694.611 320.59 695.483C319.699 697.229 318.428 699.751 316.87 702.859C313.753 709.077 309.486 717.645 304.819 727.045L304.818 727.046C300.151 736.513 295.884 745.214 292.751 751.597C291.184 754.788 289.901 757.4 288.993 759.239C288.539 760.159 288.179 760.885 287.925 761.393C287.798 761.646 287.697 761.844 287.625 761.984C287.544 762.142 287.514 762.194 287.518 762.189C287.506 762.207 287.495 762.225 287.485 762.243C287.402 762.409 287.425 762.568 287.44 762.64C287.458 762.724 287.49 762.801 287.519 762.862C287.577 762.987 287.665 763.128 287.768 763.274C287.975 763.573 288.289 763.965 288.69 764.437C289.496 765.382 290.688 766.684 292.175 768.252C295.151 771.391 299.33 775.62 304.015 780.255C313.384 789.524 324.791 800.431 332.666 807.505L332.669 807.508C357.626 829.529 398.582 859.677 438.061 885.019V885.02C445.662 889.954 452.765 894.488 458.084 897.823C460.743 899.49 462.959 900.859 464.569 901.828C465.374 902.312 466.031 902.698 466.517 902.973C466.759 903.109 466.963 903.221 467.123 903.303C467.248 903.367 467.377 903.425 467.481 903.462V903.464C467.495 903.469 467.509 903.473 467.522 903.478C467.525 903.478 467.527 903.48 467.529 903.48V903.479C467.742 903.55 467.975 903.531 468.18 903.396C468.366 903.273 468.486 903.083 468.569 902.908C468.738 902.553 468.865 902.012 468.97 901.298C469.183 899.849 469.334 897.481 469.434 893.914C469.634 886.77 469.633 874.728 469.5 855.396V855.396L469.1 806.996C469.098 806.841 469.025 806.695 468.903 806.603L468.849 806.566L460.716 801.899L459.257 801.053C451.546 796.524 437.705 787.662 425.143 779.35C418.445 774.918 412.114 770.645 407.277 767.273C404.859 765.587 402.816 764.127 401.288 762.987C399.74 761.832 398.767 761.039 398.442 760.67L398.421 760.646L398.301 760.535C398.157 760.408 397.941 760.234 397.683 760.03C397.327 759.75 396.86 759.394 396.317 758.984C395.774 758.575 395.152 758.111 394.482 757.616L392.361 756.062C379.988 746.882 360.541 729.701 342.419 711.712L342.418 711.711C337.151 706.511 332.317 701.743 328.766 698.275C326.991 696.542 325.534 695.132 324.505 694.154C323.991 693.666 323.579 693.283 323.287 693.021C323.142 692.89 323.021 692.785 322.93 692.711C322.885 692.675 322.839 692.639 322.797 692.61C322.776 692.597 322.746 692.578 322.712 692.561C322.7 692.555 322.6 692.5 322.467 692.5ZM250.188 590.892C250.099 590.902 250.007 590.926 249.927 590.952C249.761 591.005 249.554 591.092 249.317 591.203C248.838 591.427 248.175 591.777 247.355 592.236C245.713 593.156 243.406 594.532 240.604 596.258C234.999 599.711 227.395 604.58 219.126 610.049C207.726 617.515 200.247 622.623 195.649 626.084C193.353 627.812 191.758 629.142 190.751 630.158C190.248 630.665 189.876 631.111 189.635 631.502C189.402 631.88 189.245 632.282 189.306 632.676C189.307 632.683 189.308 632.691 189.31 632.698C189.362 632.96 189.489 633.311 189.662 633.718C189.839 634.134 190.077 634.64 190.369 635.224C190.953 636.392 191.762 637.893 192.747 639.646C194.718 643.156 197.406 647.699 200.44 652.677C206.51 662.632 213.982 674.34 219.921 683.016V683.017C232.335 701.037 257.951 732.79 272.768 748.674L272.77 748.677L284.104 760.677C284.216 760.795 284.379 760.851 284.541 760.827C284.702 760.803 284.842 760.702 284.915 760.556L302.515 725.09L320.247 689.49C320.335 689.314 320.312 689.102 320.187 688.949L312.187 679.216C292.178 654.561 275.675 631.41 261.826 608.915L260.494 606.74C258.093 602.672 255.792 598.903 254.023 596.084C253.139 594.674 252.387 593.5 251.821 592.644C251.539 592.216 251.301 591.864 251.116 591.602C250.942 591.355 250.79 591.149 250.687 591.046C250.67 591.029 250.652 591.014 250.633 591C250.532 590.924 250.427 590.9 250.362 590.892C250.295 590.883 250.234 590.887 250.188 590.892ZM561.8 616.5C561.68 616.5 561.577 616.536 561.516 616.561C561.446 616.589 561.375 616.625 561.309 616.664C561.174 616.742 561.016 616.849 560.842 616.978C560.491 617.237 560.032 617.613 559.484 618.085C558.387 619.031 556.902 620.391 555.145 622.049C551.627 625.366 546.998 629.894 542.146 634.746C532.449 644.443 521.836 655.456 517.42 660.675C507.794 671.906 495.239 690.872 488.954 703.308L488.953 703.31C484.335 712.545 479.458 725.942 476.22 737.026C474.601 742.568 473.386 747.549 472.818 751.155C472.536 752.952 472.409 754.44 472.484 755.493C472.522 756.014 472.612 756.48 472.793 756.831C472.986 757.205 473.318 757.5 473.8 757.5C474.115 757.5 474.539 757.367 474.996 757.185C475.478 756.993 476.075 756.713 476.769 756.36C478.158 755.653 479.971 754.633 482.095 753.374C486.343 750.854 491.863 747.362 497.791 743.468C509.646 735.681 523.159 726.273 531.441 719.794L531.442 719.793C542.794 710.845 558.841 696.365 572.063 683.609C578.675 677.231 584.588 671.278 588.857 666.658C590.991 664.349 592.721 662.366 593.924 660.826C594.525 660.057 595.002 659.389 595.333 658.84C595.499 658.566 595.634 658.312 595.729 658.085C595.822 657.865 595.892 657.634 595.899 657.416C595.9 657.411 595.9 657.406 595.9 657.4C595.9 657.206 595.818 657 595.747 656.844C595.665 656.664 595.55 656.451 595.409 656.213C595.127 655.735 594.721 655.12 594.218 654.401C593.211 652.962 591.796 651.078 590.16 648.991C586.891 644.822 582.722 639.819 579.114 635.876C578.44 635.066 574.581 630.408 570.589 625.485L570.584 625.479C568.578 623.072 566.603 620.863 565.061 619.254C564.29 618.45 563.622 617.79 563.109 617.328C562.854 617.098 562.628 616.909 562.442 616.775C562.35 616.709 562.257 616.649 562.169 616.603C562.098 616.566 561.961 616.5 561.8 616.5ZM380.107 615.405C379.927 615.265 379.678 615.267 379.501 615.399L379.43 615.464L375.569 619.724C373.291 622.137 366.877 629.754 361.019 636.677L361.015 636.682C355.275 643.623 349.685 650.409 348.626 651.601L348.609 651.621C347.814 652.615 347.276 653.432 347.403 654.493C347.464 655.001 347.673 655.525 348 656.113C348.327 656.703 348.793 657.39 349.395 658.226L349.396 658.228C350.689 659.996 354.066 663.648 358.603 668.295C363.151 672.953 368.892 678.641 374.936 684.493C387.019 696.194 400.332 708.571 407.748 714.718L409.834 716.431C420.488 725.097 434.356 735.273 446.052 743.263C452.289 747.524 457.916 751.168 462.113 753.633C464.21 754.864 465.962 755.809 467.261 756.388C467.907 756.676 468.462 756.882 468.901 756.985C469.12 757.037 469.334 757.068 469.527 757.061C469.713 757.053 469.952 757.008 470.141 756.833C470.153 756.821 470.166 756.809 470.177 756.796C470.284 756.673 470.331 756.528 470.355 756.425C470.382 756.313 470.394 756.189 470.399 756.065C470.41 755.817 470.394 755.507 470.356 755.152C470.282 754.439 470.118 753.48 469.886 752.34C469.42 750.056 468.667 746.999 467.749 743.619C465.913 736.86 463.408 728.776 461.2 722.956V722.954L460.639 721.505C448.963 691.646 432.533 667.394 404.46 638.201L403.092 636.785C396.22 629.663 388.624 622.284 385.48 619.612L384.912 619.143L384.907 619.139L380.107 615.405ZM719.318 601.587C719.125 601.57 718.914 601.599 718.708 601.646C718.293 601.742 717.779 601.943 717.215 602.217C716.081 602.767 714.654 603.65 713.235 604.73C707.191 609.199 697.029 612.5 689.267 612.5H683.533C683.41 612.5 683.292 612.546 683.201 612.626L683.121 612.717L672.855 627.649L672.853 627.653C661.265 644.835 647.678 662.285 635.426 676.136L635.424 676.138C633.087 678.808 630.982 681.314 629.459 683.222C628.698 684.174 628.079 684.983 627.648 685.59C627.434 685.892 627.26 686.152 627.139 686.359C627.078 686.462 627.025 686.562 626.985 686.651C626.954 686.722 626.9 686.854 626.9 687C626.9 687.443 627.111 687.892 627.679 688.665C628.259 689.455 629.286 690.675 631.077 692.683C634.665 696.704 641.369 703.941 653.832 717.338V717.339C661.573 725.748 669.827 734.667 671.95 737.189L671.958 737.198L675.958 741.73C676.054 741.839 676.193 741.902 676.338 741.9C676.483 741.899 676.62 741.834 676.714 741.724L685.647 731.189C694.19 721.179 710.068 700.766 717.013 690.615L717.012 690.614C721.286 684.403 726.659 675.895 730.962 668.707C733.114 665.112 735.002 661.842 736.353 659.353C737.027 658.109 737.571 657.054 737.947 656.247C738.135 655.844 738.285 655.495 738.389 655.213C738.484 654.953 738.567 654.683 738.567 654.467C738.567 654.34 738.543 654.183 738.512 654.022C738.479 653.853 738.431 653.646 738.37 653.406C738.249 652.927 738.071 652.298 737.844 651.542C737.39 650.029 736.734 647.986 735.925 645.559C734.306 640.704 732.071 634.299 729.603 627.496C727.202 620.695 724.901 614.426 723.15 609.807C722.275 607.497 721.536 605.597 720.99 604.248C720.718 603.574 720.492 603.034 720.32 602.648C720.235 602.456 720.161 602.297 720.1 602.177C720.069 602.117 720.04 602.061 720.012 602.014C719.996 601.987 719.968 601.944 719.932 601.899H719.933C719.761 601.671 719.506 601.603 719.318 601.587ZM506.574 548.292C506.407 548.239 506.171 548.213 505.948 548.349C505.736 548.478 505.651 548.685 505.614 548.824C505.576 548.969 505.567 549.126 505.567 549.267C505.567 549.432 505.609 549.736 505.67 550.113C505.734 550.508 505.828 551.03 505.948 551.66C506.189 552.923 506.536 554.634 506.961 556.669C507.811 560.738 508.978 566.108 510.245 571.776C511.512 577.441 512.678 582.805 513.527 586.853C513.952 588.876 514.297 590.569 514.536 591.805C514.656 592.423 514.748 592.924 514.811 593.294C514.842 593.479 514.865 593.629 514.88 593.742C514.887 593.799 514.893 593.844 514.896 593.879C514.898 593.896 514.899 593.909 514.899 593.919C514.9 593.924 514.9 593.927 514.9 593.93L514.899 593.931C514.896 593.937 514.88 593.962 514.833 594C514.731 594.081 514.534 594.183 514.189 594.288C513.504 594.497 512.396 594.669 510.743 594.802C507.45 595.067 502.136 595.167 494.067 595.167H472.733C472.457 595.167 472.233 595.391 472.233 595.667V732.333C472.233 732.572 472.402 732.777 472.636 732.823C472.87 732.869 473.105 732.743 473.195 732.522L478.396 719.856L478.396 719.854C492.232 685.664 507.388 663.851 541.354 629.752L558.953 612.153C559.136 611.97 559.15 611.678 558.984 611.479L553.651 605.08L553.648 605.077L552.229 603.373C549.35 599.89 544.042 593.347 538.225 586.149L531.122 577.353C519.926 563.49 513.752 555.881 510.378 551.989C508.705 550.06 507.682 548.997 507.062 548.554C506.903 548.441 506.739 548.344 506.574 548.292ZM434.6 549.833C434.476 549.833 434.387 549.879 434.37 549.888C434.338 549.904 434.314 549.921 434.302 549.93C434.275 549.948 434.253 549.967 434.239 549.979C434.21 550.004 434.178 550.035 434.146 550.066C434.082 550.131 433.995 550.223 433.889 550.337C433.675 550.567 433.369 550.903 432.984 551.333C432.214 552.193 431.116 553.437 429.773 554.971C427.089 558.039 423.421 562.274 419.42 566.941L419.415 566.947C411.551 576.41 400.623 589.339 395.021 596.008C392.218 599.278 389.581 602.449 387.578 604.919C386.577 606.154 385.733 607.215 385.104 608.027C384.488 608.825 384.054 609.414 383.899 609.685C383.751 609.945 383.75 610.242 383.795 610.497C383.841 610.759 383.945 611.046 384.088 611.345C384.374 611.944 384.852 612.675 385.486 613.504C386.758 615.166 388.712 617.286 391.189 619.63V619.631C426.327 652.801 449.696 685.174 463.74 719.927L464.402 721.584L468.134 731.182C468.221 731.405 468.455 731.535 468.691 731.491C468.928 731.447 469.099 731.241 469.1 731.001L469.233 663.268V595.667C469.233 595.391 469.009 595.167 468.733 595.167H450.867C446.006 595.167 441.079 595.067 437.085 594.917C433.091 594.767 430.071 594.569 428.968 594.377H428.969C428.004 594.177 427.286 594.001 426.755 593.805C426.222 593.607 425.936 593.41 425.777 593.208C425.63 593.02 425.548 592.77 425.561 592.351C425.573 591.92 425.684 591.362 425.881 590.604C426.416 588.729 428.691 578.829 431.218 568.722L431.219 568.717C432.42 563.714 433.455 559.142 434.156 555.819C434.507 554.159 434.774 552.807 434.938 551.867C435.02 551.399 435.078 551.024 435.106 550.762C435.12 550.634 435.129 550.514 435.127 550.417C435.126 550.375 435.122 550.3 435.101 550.222C435.09 550.185 435.065 550.106 435.002 550.027C434.929 549.936 434.792 549.833 434.6 549.833ZM637.112 574.066C636.383 574.048 635.356 574.202 633.877 574.497C632.387 574.794 630.387 575.246 627.691 575.845C614.659 578.667 597.66 587.513 580.969 599.932L580.965 599.935C576.827 603.071 573.022 606.076 570.249 608.364C568.863 609.508 567.73 610.477 566.942 611.195C566.55 611.553 566.235 611.856 566.016 612.091C565.907 612.207 565.813 612.317 565.742 612.414C565.707 612.462 565.67 612.518 565.64 612.578C565.621 612.615 565.59 612.684 565.575 612.772L565.567 612.867L565.574 612.958C565.588 613.043 565.617 613.11 565.628 613.134C565.651 613.187 565.681 613.243 565.711 613.296C565.772 613.403 565.858 613.536 565.961 613.689C566.169 613.997 566.47 614.416 566.849 614.926C567.608 615.947 568.696 617.357 570.012 619.032C572.643 622.383 576.195 626.806 579.879 631.332C587.236 640.37 595.157 649.864 597.313 652.021C597.75 652.457 598.175 652.828 598.634 653.022C599.132 653.234 599.634 653.226 600.168 652.991C600.669 652.771 601.197 652.351 601.803 651.763C602.415 651.168 603.143 650.362 604.044 649.328L604.047 649.325C614.988 636.516 629.531 617.97 637.543 606.486L637.544 606.484L646.479 593.551C646.578 593.406 646.595 593.22 646.522 593.061L643.325 586.001H643.326C641.589 581.993 639.868 577.755 639.479 576.456C639.476 576.449 639.474 576.442 639.472 576.435C639.362 576.12 639.26 575.804 639.161 575.546C639.06 575.282 638.943 575.022 638.777 574.798C638.604 574.564 638.383 574.378 638.092 574.252C637.809 574.13 637.484 574.076 637.112 574.066ZM150.375 554.735C160.359 577.419 170.756 598.101 185.943 626.473C176.182 633.479 164.525 641.327 150.014 650.791C135.183 625.56 126.672 609.381 112.827 577.346C113.183 577.427 113.534 577.39 113.878 577.272C114.334 577.116 114.797 576.815 115.268 576.488C116.642 575.662 125.561 570.072 134.993 564.226L134.994 564.227C138.704 561.96 144.143 558.597 150.375 554.735ZM301.526 575.2C299.006 575.15 296.778 575.241 295.169 575.484C294.369 575.605 293.689 575.769 293.196 575.988C292.95 576.098 292.721 576.234 292.548 576.41C292.368 576.593 292.233 576.837 292.233 577.133C292.233 577.435 292.34 577.818 292.492 578.229C292.651 578.657 292.882 579.174 293.174 579.769C293.758 580.958 294.605 582.49 295.663 584.288C297.78 587.886 300.756 592.58 304.196 597.808C311.309 608.616 320.426 621.723 328.092 632.162C331.924 637.381 335.397 641.939 338.078 645.212C339.417 646.847 340.566 648.169 341.466 649.094C341.915 649.555 342.311 649.929 342.645 650.193C342.811 650.326 342.971 650.438 343.121 650.522C343.245 650.592 343.391 650.656 343.546 650.685V650.686C343.753 650.737 343.936 650.662 344.014 650.627C344.116 650.581 344.22 650.516 344.318 650.446C344.518 650.305 344.76 650.098 345.032 649.845C345.58 649.335 346.3 648.59 347.137 647.67C348.811 645.828 350.982 643.256 353.251 640.387C357.918 634.786 364.848 626.524 368.709 622.13C370.648 619.924 372.42 617.783 373.711 616.124C374.355 615.295 374.884 614.581 375.253 614.037C375.437 613.766 375.588 613.529 375.693 613.337C375.746 613.241 375.792 613.147 375.827 613.061C375.856 612.988 375.9 612.867 375.9 612.733C375.9 612.519 375.828 612.307 375.741 612.121C375.651 611.927 375.524 611.718 375.371 611.499C375.065 611.061 374.626 610.544 374.081 609.964C372.989 608.802 371.432 607.352 369.56 605.738C366.046 602.711 361.39 599.084 356.526 595.669L355.552 594.989C343.778 586.695 329.322 579.864 317.916 577.181H317.917C312.875 575.971 306.571 575.301 301.526 575.2ZM717.239 293.834C716.993 293.848 716.707 293.949 716.425 294.074C716.128 294.206 715.778 294.392 715.385 294.622C714.598 295.082 713.608 295.738 712.469 296.541C710.188 298.149 707.283 300.373 704.17 302.877C697.946 307.883 690.864 314.029 686.246 318.646L686.245 318.647C658.939 346.087 644.1 385.02 644.233 428.733L644.236 430.105C644.398 458.801 649.678 479.327 663.755 506.561V506.562L670.955 520.562C671.041 520.728 671.213 520.833 671.4 520.833H685.8C692.412 520.833 696.065 520.901 698.979 521.425C701.868 521.944 704.046 522.915 707.706 524.778L707.708 524.779C731.328 536.655 740.421 565.147 727.895 587.959C726.49 590.434 725.252 592.844 724.363 594.756C723.919 595.712 723.559 596.549 723.31 597.211C723.185 597.541 723.085 597.834 723.016 598.079C722.95 598.313 722.9 598.544 722.9 598.733C722.9 598.862 722.929 599.023 722.963 599.182C723 599.352 723.052 599.561 723.119 599.804C723.253 600.29 723.447 600.929 723.693 601.696C724.185 603.232 724.888 605.298 725.732 607.709C727.421 612.532 729.681 618.747 731.965 624.891C734.249 631.034 736.559 637.108 738.348 641.647C739.242 643.916 740.008 645.806 740.576 647.13C740.86 647.79 741.096 648.318 741.277 648.683C741.367 648.863 741.45 649.016 741.521 649.129C741.555 649.183 741.596 649.245 741.645 649.299C741.668 649.325 741.707 649.365 741.759 649.401C741.803 649.432 741.912 649.5 742.067 649.5C742.311 649.5 742.521 649.374 742.66 649.273C742.817 649.16 742.983 649.005 743.153 648.823C743.496 648.458 743.908 647.934 744.378 647.278C745.32 645.964 746.529 644.069 747.935 641.732C750.747 637.055 754.364 630.572 758.225 623.335C765.944 608.863 774.651 591.35 779.859 579.198C785.061 567.127 790.097 554.854 793.732 545.515C795.55 540.846 797.02 536.905 797.985 534.087C798.468 532.68 798.827 531.544 799.042 530.733C799.149 530.331 799.224 529.993 799.258 529.736C799.275 529.61 799.284 529.482 799.276 529.365C799.272 529.307 799.263 529.233 799.237 529.157C799.216 529.092 799.171 528.999 799.085 528.915L799.087 528.914C799.082 528.909 799.074 528.904 799.068 528.898C799.063 528.894 799.058 528.888 799.053 528.883L799.051 528.884C798.98 528.821 798.873 528.74 798.765 528.663C798.618 528.559 798.418 528.421 798.168 528.252C797.668 527.912 796.959 527.441 796.07 526.854C794.291 525.682 791.78 524.043 788.729 522.063C782.626 518.105 774.362 512.779 765.486 507.079C747.736 495.679 727.535 482.778 717.267 476.31L717.265 476.309L699.808 465.415L700.428 461.07C700.429 461.064 700.43 461.059 700.431 461.053C700.695 458.544 703.089 444.972 705.625 431.09V431.088C714.162 383.469 716.565 362.112 718.032 321.285L718.033 321.284C718.3 313.48 718.4 306.738 718.35 301.944C718.325 299.55 718.262 297.633 718.163 296.311C718.114 295.652 718.055 295.125 717.982 294.755C717.947 294.574 717.904 294.403 717.845 294.267C717.816 294.2 717.771 294.111 717.699 294.031C717.627 293.951 717.481 293.833 717.267 293.833L717.239 293.834ZM592.312 398.347C592.21 398.34 592.119 398.359 592.053 398.377C591.921 398.414 591.779 398.482 591.636 398.562C591.342 398.727 590.928 399.007 590.364 399.42C589.231 400.251 587.427 401.67 584.636 403.928C579.05 408.446 569.48 416.349 553.349 429.682C538.96 441.566 526.013 452.134 523.369 454.167L522.98 454.457C522.543 454.741 522.073 455.243 521.6 455.86C521.112 456.497 520.591 457.296 520.067 458.199C519.02 460.006 517.943 462.262 517.067 464.551L516.676 465.528C512.559 475.587 506.408 484.133 500.316 488.321L500.31 488.326C498.895 489.337 497.61 490.385 496.656 491.287C496.18 491.737 495.779 492.159 495.484 492.527C495.337 492.711 495.211 492.89 495.114 493.058C495.021 493.219 494.938 493.4 494.907 493.585C494.903 493.612 494.9 493.64 494.9 493.667C494.9 493.794 494.934 494.068 494.983 494.415C495.036 494.783 495.112 495.282 495.21 495.896C495.406 497.123 495.69 498.817 496.04 500.852C496.74 504.92 497.708 510.356 498.775 516.157L502.642 537.224C502.657 537.306 502.693 537.384 502.746 537.449L518.213 556.384H518.214C526.743 566.779 538.747 581.585 545.147 589.318C551.423 597.062 557.809 604.778 559.137 606.505C559.14 606.509 559.144 606.514 559.147 606.519L561.682 609.586C561.855 609.796 562.165 609.828 562.378 609.658L571.444 602.459L571.448 602.455C590.473 587.023 610.537 576.399 628.577 572.154L635.644 570.555C635.817 570.515 635.958 570.386 636.011 570.216C636.064 570.045 636.021 569.859 635.9 569.728L629.5 562.794L629.498 562.791L628.388 561.601C605.205 536.612 590.663 512.903 583.078 488.187L583.077 488.184C581.414 482.861 580.492 479.363 579.98 474.976C579.468 470.576 579.367 465.271 579.367 456.333V456.33C579.3 445.278 579.8 437.217 581.29 429.866C582.779 422.52 585.262 415.86 589.185 407.615L589.186 407.613C590.255 405.342 591.191 403.234 591.845 401.677C592.171 400.899 592.428 400.253 592.597 399.79C592.68 399.56 592.746 399.366 592.786 399.219C592.806 399.148 592.825 399.072 592.834 399.001C592.838 398.967 592.843 398.914 592.839 398.854C592.836 398.82 592.825 398.651 592.685 398.512C592.564 398.392 592.419 398.354 592.312 398.347ZM348.9 397.667C348.715 397.528 348.457 397.534 348.279 397.683C348.101 397.831 348.049 398.084 348.152 398.291L352.686 407.356C365.818 433.621 367.021 467.342 355.732 497.224L355.731 497.225C346.558 521.687 328.6 549.091 309.854 567.307L306.521 570.506C306.388 570.633 306.336 570.823 306.385 571C306.434 571.177 306.577 571.314 306.756 571.354L316.087 573.486V573.487C335.467 578 347.537 584.095 368.164 599.798L379.496 608.464C379.708 608.626 380.011 608.593 380.183 608.389L382.982 605.055L382.983 605.054C386.716 600.588 395.749 589.855 404.016 580.072C408.149 575.181 412.09 570.527 415.081 567.014C418.085 563.485 420.106 561.135 420.421 560.82C420.429 560.812 420.438 560.803 420.445 560.794C422.179 558.793 434.722 543.849 436.733 541.167L436.732 541.166C436.824 541.054 436.904 540.916 436.975 540.773C437.054 540.612 437.137 540.415 437.222 540.192C437.391 539.746 437.58 539.164 437.784 538.468C438.192 537.073 438.67 535.192 439.188 532.963C440.223 528.503 441.424 522.628 442.559 516.423L442.56 516.42L446.56 493.888C446.589 493.722 446.533 493.552 446.41 493.437L439.347 486.773H439.348C431.903 479.586 426.714 471.669 424.121 463.634L423.879 462.855C423.18 460.414 421.984 458.41 418.685 455.16C415.397 451.923 409.975 447.406 400.781 439.944C392.081 432.744 381.583 424.12 374.177 418.064L367.982 413.012C361.581 407.677 354.647 402.078 352.646 400.477C352.641 400.473 352.637 400.47 352.633 400.467L348.9 397.667ZM281.195 341.415C281.054 341.382 280.83 341.351 280.617 341.447C280.497 341.502 280.39 341.593 280.319 341.72C280.269 341.81 280.246 341.903 280.237 341.986L280.233 342.067L280.245 342.207C280.252 342.252 280.262 342.294 280.271 342.33C280.29 342.41 280.318 342.501 280.35 342.598C280.414 342.793 280.507 343.038 280.622 343.323C280.854 343.895 281.186 344.649 281.597 345.528C282.418 347.288 283.556 349.563 284.827 351.905C291.523 364.524 297.098 379.144 300.826 394.191L301.181 395.649C302.713 402.18 303.538 406.08 303.901 410.971C304.266 415.873 304.167 421.779 303.833 432.317V432.319C303.301 451.762 302.637 457.055 299.184 470.206L299.183 470.208C292.684 495.389 283.073 519.214 270.829 540.731L270.827 540.736C270.794 540.796 270.761 540.852 270.723 540.919L270.722 540.921C270.676 541.002 270.629 541.084 270.582 541.167C270.549 541.224 270.515 541.281 270.483 541.337C262.361 555.531 253.258 568.615 242.979 580.504C242.93 580.56 242.881 580.617 242.833 580.673C242.795 580.718 242.757 580.762 242.719 580.807L242.708 580.817C242.707 580.818 242.707 580.82 242.706 580.82C242.705 580.822 242.703 580.823 242.701 580.825C242.698 580.829 242.694 580.834 242.69 580.838C242.687 580.842 242.682 580.847 242.679 580.851C242.677 580.852 242.676 580.854 242.675 580.855C240.76 583.048 238.481 585.487 236.503 587.591L236.498 587.595C234.297 589.996 232.259 592.268 230.771 594.008C230.027 594.877 229.415 595.619 228.987 596.181C228.775 596.46 228.601 596.703 228.479 596.899C228.418 596.997 228.363 597.092 228.322 597.181C228.298 597.234 228.26 597.322 228.242 597.425L228.233 597.533L228.237 597.604C228.257 597.769 228.345 597.935 228.517 598.036C228.668 598.125 228.824 598.127 228.909 598.123C229.09 598.114 229.297 598.052 229.492 597.979C229.903 597.828 230.473 597.551 231.151 597.191C232.516 596.467 234.393 595.361 236.461 594.094L236.471 594.087C239.604 592.064 245.374 588.643 247.035 587.665C247.089 587.668 247.143 587.665 247.196 587.65L247.278 587.62L247.28 587.619C247.283 587.618 247.289 587.616 247.295 587.613C247.308 587.607 247.328 587.598 247.355 587.586L247.358 587.585C248.253 587.19 255.681 583.927 264.368 580.537C273.074 577.14 282.982 573.641 288.862 572.744C289.009 572.722 289.154 572.701 289.296 572.683L289.301 572.682C289.409 572.666 289.517 572.653 289.625 572.641H289.626C290.333 572.556 291.027 572.485 291.706 572.431C296.069 572.1 298.389 571.934 300.584 570.775C302.756 569.629 304.788 567.518 308.692 563.48L308.694 563.479C334.209 536.763 353.202 503.079 358.559 474.56C361.91 456.73 359.366 432.099 352.53 415.212V415.211L351.893 413.668C348.71 406.072 345.598 400.218 341.534 394.784C337.201 388.99 331.801 383.695 324.12 377.283L324.116 377.279C318.12 372.382 310.474 365.91 304.719 361.011L299.725 356.753C294.252 352.082 287.731 346.493 285.476 344.369L285.465 344.359L285.015 343.966C283.976 343.074 283.023 342.364 282.292 341.922C281.885 341.676 281.502 341.486 281.195 341.415ZM697.59 548.668C687.345 542.196 676.386 545.736 670.088 553.04C663.688 560.461 662.026 571.858 670.773 580.68V580.681C672.821 582.797 675.539 584.663 678.316 586.001C681.088 587.336 683.964 588.167 686.333 588.167C688.935 588.167 692.562 586.778 695.85 584.883C699.142 582.984 702.224 580.502 703.688 578.201L703.692 578.196C710.089 567.852 707.651 555.413 698.079 548.985L698.077 548.983L697.59 548.668ZM271.247 542.014C277.177 553.234 282.315 562.409 287.981 571.877C281.915 572.952 272.349 576.35 264.004 579.606C256.088 582.695 249.217 585.679 247.358 586.493C247.357 586.493 247.355 586.493 247.354 586.492C246.233 584.67 245.115 582.818 243.97 580.884C254.156 569.064 263.184 556.079 271.247 542.014ZM663.105 339.839C663.026 339.855 662.952 339.884 662.894 339.909C662.772 339.962 662.627 340.043 662.47 340.14C662.15 340.335 661.714 340.633 661.181 341.018C660.112 341.788 658.618 342.931 656.808 344.357C653.186 347.211 648.283 351.214 642.948 355.682C632.148 364.615 618.945 375.684 613.347 380.349C595.619 394.989 584.376 419.395 582.234 448.027C579.419 483.416 594.579 518.61 629.558 557.597V557.598L637.558 566.664C637.686 566.809 637.886 566.867 638.072 566.813C638.258 566.759 638.396 566.602 638.427 566.411L639.225 561.356C640.814 552.616 642.791 547.345 647.551 540.073C649.79 536.716 652.892 533.284 656.063 530.492C659.246 527.691 662.448 525.578 664.881 524.81L664.882 524.811C665.181 524.717 665.476 524.587 665.721 524.376C665.975 524.156 666.149 523.871 666.232 523.514C666.388 522.846 666.224 521.942 665.807 520.707C664.96 518.201 662.907 513.897 659.181 506.378L659.18 506.375L658.207 504.421C638.054 463.351 634.529 419.147 647.877 376.617L647.876 376.616C649.87 370.369 652.731 362.953 655.508 356.617C656.896 353.449 658.263 350.556 659.487 348.217C660.718 345.866 661.787 344.112 662.579 343.193L662.578 343.192C663.071 342.628 663.438 342.049 663.646 341.538C663.75 341.283 663.822 341.028 663.842 340.79C663.861 340.559 663.837 340.287 663.684 340.056C663.665 340.028 663.643 340.003 663.62 339.979L663.544 339.917L663.472 339.876C663.305 339.799 663.147 339.831 663.105 339.839ZM98.5996 219.167C98.4051 219.167 98.2695 219.267 98.1982 219.341C98.1297 219.412 98.0882 219.489 98.0635 219.542C98.0129 219.651 97.9776 219.78 97.9512 219.903C97.8965 220.16 97.8518 220.519 97.8135 220.962C97.7363 221.854 97.681 223.154 97.6445 224.808C97.5715 228.118 97.5754 232.88 97.6504 238.69C97.8005 250.312 98.2338 266.15 98.9004 283.02V283.021C101.568 347.842 109.704 414.537 121.178 466.437V466.438C122.78 473.917 125.817 485.961 128.567 496.263C129.943 501.415 131.247 506.135 132.268 509.636C132.777 511.385 133.217 512.834 133.56 513.881C133.73 514.403 133.879 514.831 134.001 515.148C134.062 515.306 134.118 515.443 134.17 515.553C134.214 515.647 134.276 515.77 134.356 515.862C134.376 515.884 134.398 515.905 134.421 515.924C134.576 516.047 134.751 516.058 134.838 516.058C134.939 516.057 135.042 516.038 135.134 516.016C135.32 515.97 135.552 515.886 135.823 515.771C136.371 515.54 137.154 515.152 138.205 514.594C140.311 513.474 143.536 511.64 148.187 508.915C157.49 503.463 172.526 494.428 195.792 480.361V480.36C205.591 474.428 214.69 468.962 221.472 464.93C224.863 462.913 227.674 461.256 229.703 460.078C230.718 459.489 231.536 459.021 232.132 458.688C232.749 458.344 233.087 458.168 233.176 458.135C233.185 458.131 233.194 458.128 233.203 458.124C233.384 458.044 233.547 458.04 233.722 458.106C233.913 458.18 234.148 458.35 234.417 458.671C234.958 459.318 235.534 460.449 236.129 462.1V462.101C237.605 466.259 254.944 506.937 265.606 531.194V531.195L267.873 536.528C267.949 536.708 268.123 536.827 268.317 536.833C268.512 536.839 268.693 536.731 268.78 536.557L273.58 526.957L273.579 526.956C289.468 495.445 301.233 453.234 301.233 427.267C301.233 409.458 296.15 385.927 288.26 367.604H288.261C277.025 341.121 262.168 322.252 238.236 303.936L225.037 293.804C224.886 293.688 224.682 293.668 224.512 293.752C224.341 293.836 224.233 294.01 224.233 294.2V315.533C224.233 315.723 224.34 315.896 224.51 315.98L231.977 319.714L231.981 319.717C242.298 324.742 249.813 331.738 254.557 340.831L254.558 340.834C257.016 345.485 258.527 348.975 259.413 352.731C260.244 356.255 260.531 360.037 260.509 365.263L260.5 366.327C260.368 377.279 256.542 387.84 249.541 396.689C233.579 416.873 203.61 420.979 181.816 406.056H181.817C171.083 398.643 164.551 388.512 161.386 374.65L161.09 373.298C157.4 355.238 165.841 334.501 181.555 323.142L185.544 320.483C185.692 320.384 185.777 320.213 185.766 320.035L184.166 294.835V294.833L183.987 292.262C183.565 286.337 183.104 280.976 182.681 276.915C182.439 274.596 182.209 272.695 182.005 271.354C181.903 270.686 181.806 270.146 181.716 269.761C181.671 269.57 181.625 269.402 181.575 269.271C181.551 269.206 181.52 269.133 181.48 269.067C181.451 269.017 181.372 268.894 181.224 268.819L181.138 268.786L181.033 268.731C180.939 268.683 180.809 268.614 180.644 268.523C180.314 268.342 179.853 268.081 179.278 267.752C178.129 267.093 176.53 266.162 174.616 265.038C170.788 262.791 165.706 259.779 160.456 256.654C149.955 250.404 138.792 243.706 135.662 241.774C133.777 240.564 124.979 235.096 115.935 229.377L115.93 229.375L112.608 227.331C109.378 225.35 106.454 223.581 104.139 222.204C102.596 221.287 101.321 220.543 100.405 220.027C99.9483 219.77 99.5764 219.567 99.3037 219.428C99.1685 219.359 99.0511 219.302 98.957 219.261C98.9104 219.241 98.8614 219.22 98.8154 219.205C98.7853 219.195 98.6988 219.167 98.5996 219.167ZM829.014 412.564C829.032 412.714 829.058 412.857 829.097 412.981C829.129 413.085 829.197 413.264 829.354 413.39C829.493 413.515 829.741 413.69 830.04 413.889C830.39 414.121 830.86 414.421 831.431 414.775C832.573 415.485 834.129 416.423 835.957 417.509C839.614 419.681 844.366 422.449 849.084 425.166C853.802 427.883 858.487 430.551 862.01 432.523C863.771 433.509 865.244 434.323 866.286 434.882C866.806 435.161 867.223 435.379 867.517 435.523C867.551 435.54 867.585 435.555 867.617 435.57C861.229 463.815 857.246 479.958 848.53 508.479C848.452 508.41 848.371 508.335 848.282 508.262C847.766 507.832 847.032 507.304 846.142 506.716C844.36 505.539 841.914 504.098 839.238 502.693C833.003 499.307 822.82 493.687 811.942 487.643C819.156 462.26 824.2 440.12 828.985 412.23C828.993 412.352 829.001 412.463 829.014 412.564ZM470.2 288.5C470.023 288.5 469.898 288.586 469.85 288.624C469.791 288.67 469.745 288.722 469.712 288.763C469.645 288.845 469.581 288.948 469.52 289.056C469.395 289.275 469.245 289.585 469.076 289.966C468.737 290.731 468.299 291.83 467.798 293.176C466.794 295.869 465.525 299.578 464.256 303.651L464.255 303.652C449.881 350.102 421.433 384.321 389.522 393.988L389.52 393.989C382.257 396.233 378.184 396.631 368.361 396.233H368.362C364.968 396.034 361.61 395.769 358.919 395.486C357.573 395.345 356.398 395.2 355.472 395.058C354.534 394.914 353.891 394.778 353.575 394.664C352.955 394.403 352.465 394.206 352.129 394.099C351.97 394.048 351.793 394 351.64 393.996C351.571 393.994 351.418 393.997 351.271 394.092C351.187 394.146 351.11 394.227 351.063 394.333C351.018 394.435 351.012 394.533 351.019 394.608C351.03 394.744 351.087 394.852 351.121 394.912C351.161 394.982 351.21 395.051 351.262 395.114C351.365 395.242 351.507 395.393 351.679 395.563C352.024 395.907 352.533 396.373 353.198 396.972C353.203 396.976 353.208 396.98 353.213 396.984C354.812 398.317 361.759 403.927 368.549 409.519L368.552 409.521C396.548 432.318 400.681 435.785 410.146 443.649V443.65L420.012 451.916C420.153 452.034 420.348 452.065 420.519 451.997C420.689 451.929 420.809 451.772 420.83 451.589L421.764 443.323L421.765 443.318C423.479 426.699 434.299 411.649 450.01 404.387L450.013 404.386C453.263 402.861 455.55 401.981 458.371 401.476C461.206 400.968 464.6 400.833 470.067 400.833C476.146 400.833 479.422 400.902 482.375 401.555C485.322 402.206 487.968 403.444 492.776 405.848H492.778C500.523 409.687 506.455 414.374 510.782 420.182C515.109 425.989 517.85 432.943 519.173 441.345V441.346L520.773 451.346C520.802 451.523 520.923 451.672 521.092 451.735C521.26 451.798 521.45 451.766 521.588 451.65L532.118 442.853C545.183 432.054 556.248 422.988 575.446 407.39C579.515 404.122 583.184 401.12 585.82 398.917C587.138 397.816 588.2 396.913 588.926 396.275C589.288 395.958 589.571 395.702 589.761 395.519C589.854 395.429 589.935 395.348 589.992 395.281C590.018 395.251 590.056 395.206 590.088 395.153C590.102 395.131 590.134 395.074 590.153 394.997C590.165 394.949 590.193 394.798 590.113 394.643H590.114C590.03 394.475 589.888 394.398 589.813 394.366C589.731 394.331 589.648 394.313 589.583 394.303C589.45 394.283 589.293 394.281 589.131 394.286C588.801 394.297 588.358 394.346 587.844 394.422C586.81 394.574 585.43 394.845 583.956 395.18L583.952 395.181C569.952 398.482 551.943 395.71 537.769 388.159L537.767 388.157L537.304 387.908C532.458 385.243 525.688 379.861 519.092 373.685C512.289 367.314 505.716 360.142 501.678 354.315L501.677 354.314L500.442 352.519C494.268 343.42 488.108 332.54 483.117 322.199C477.788 311.158 473.813 300.775 472.559 293.844H472.56L472.558 293.835L472.453 293.333C472.202 292.175 471.904 291.108 471.602 290.293C471.43 289.83 471.251 289.428 471.066 289.132C470.975 288.985 470.87 288.843 470.748 288.732C470.647 288.641 470.491 288.532 470.289 288.506L470.2 288.5ZM473.219 278.25C473.071 278.223 472.871 278.201 472.685 278.259C472.581 278.291 472.457 278.356 472.362 278.479C472.265 278.605 472.233 278.747 472.233 278.867C472.233 280.282 472.831 282.983 473.796 286.389C474.768 289.82 476.134 294.035 477.711 298.516C480.667 306.915 484.374 316.276 487.637 323.2L488.283 324.552C499.91 348.607 514.358 366.945 531.637 379.67C542.092 387.377 552.607 391.852 563.478 393.08C574.348 394.308 585.537 392.285 597.334 387.057L597.335 387.058C598.25 386.653 599.738 385.728 601.646 384.42C603.567 383.104 605.945 381.375 608.654 379.339C614.073 375.265 620.829 369.949 627.915 364.205C642.085 352.719 657.597 339.509 666.412 331.095L666.411 331.094C666.484 331.029 666.563 330.953 666.622 330.865C666.66 330.808 666.825 330.55 666.671 330.259C666.596 330.118 666.479 330.045 666.396 330.009C666.314 329.974 666.237 329.961 666.184 329.956C666.077 329.946 665.964 329.957 665.866 329.972C665.476 330.03 664.82 330.231 663.982 330.529C662.281 331.136 659.667 332.208 656.529 333.61L656.526 333.611C646.661 338.077 640.368 340.625 634.138 342.062C627.913 343.499 621.727 343.832 612.068 343.832C598.492 343.766 589.154 342.868 578.729 339.31C568.285 335.745 556.726 329.505 538.725 318.704L538.723 318.703C524.862 310.441 504.337 297.512 493.279 290.053L493.277 290.051C487.472 286.18 482.395 283.007 478.765 280.933C476.953 279.897 475.488 279.128 474.469 278.684C473.967 278.465 473.538 278.309 473.219 278.25ZM468.275 275.305C468.247 275.308 468.223 275.311 468.207 275.315C468.203 275.316 468.199 275.317 468.195 275.318C468.193 275.319 468.191 275.32 468.189 275.32H468.19C468.166 275.327 468.147 275.335 468.135 275.34C468.111 275.349 468.09 275.359 468.076 275.366C468.048 275.381 468.016 275.399 467.985 275.417C467.922 275.454 467.837 275.505 467.734 275.569C467.528 275.698 467.233 275.886 466.863 276.126C466.122 276.606 465.067 277.3 463.775 278.149C461.191 279.85 457.659 282.182 453.793 284.715L453.79 284.717C428.991 301.25 390.477 325.502 381.695 330.293C364.954 339.328 349.036 343.8 332.635 343.733C316.231 343.667 299.306 339.061 280.553 329.884L269.624 324.42C269.402 324.309 269.132 324.377 268.99 324.58C268.848 324.783 268.876 325.06 269.057 325.23L276.257 332.03C279.66 335.315 292.343 346.245 305.813 357.585L311.612 362.45C327.665 375.971 336.806 383.376 344.359 387.521C351.957 391.692 357.946 392.565 367.64 393.1V393.099C372.575 393.432 375.911 393.503 379.04 393.147C382.173 392.792 385.076 392.012 389.15 390.676L389.151 390.677C422.855 379.934 451.064 342.4 465.216 290.063C466.283 286.128 467.217 282.559 467.868 279.989C468.193 278.705 468.449 277.669 468.614 276.96C468.697 276.607 468.758 276.33 468.795 276.144C468.813 276.054 468.828 275.971 468.835 275.909C468.837 275.89 468.845 275.825 468.838 275.757C468.836 275.736 468.831 275.698 468.816 275.652C468.805 275.617 468.77 275.512 468.667 275.422C468.554 275.323 468.41 275.288 468.275 275.305ZM220.279 344.548C213.211 341.152 206.785 341.15 199.847 344.551L199.844 344.553C189.757 349.596 184.715 361.718 188.258 372.354V372.355C189.365 375.744 192.174 379.284 195.582 382.102C198.992 384.921 203.075 387.077 206.794 387.628H206.799C210.733 388.171 214.352 387.868 217.708 386.618C221.064 385.368 224.129 383.182 226.973 380H226.974C229.725 376.913 231.444 374.385 232.358 371.589C233.273 368.792 233.368 365.778 232.965 361.75L232.963 361.736C232.007 354.231 227.498 347.952 220.28 344.548H220.279ZM649.133 251.167C648.83 251.167 648.482 251.317 648.171 251.485C647.834 251.667 647.445 251.924 647.033 252.233C646.209 252.852 645.255 253.704 644.37 254.656C640.92 258.302 633.977 262.004 626.716 264.579C623.096 265.863 619.42 266.859 616.093 267.426C612.76 267.994 609.813 268.125 607.633 267.71H607.634C607.095 267.599 606.683 267.442 606.232 267.308C605.815 267.183 605.341 267.073 604.854 267.211C604.352 267.353 603.941 267.724 603.556 268.31C603.171 268.893 602.773 269.747 602.315 270.956C600.489 275.783 597.512 286.821 590.651 311.131V311.132L583.451 336.731C583.414 336.862 583.433 337.002 583.501 337.119C583.569 337.236 583.683 337.32 583.814 337.353L589.813 338.817V338.818C600.683 341.502 617.958 341.905 628.434 339.757L628.438 339.756C647.608 335.6 665.676 326.217 698.22 303.409H698.221L717.155 290.076C717.285 289.985 717.363 289.837 717.367 289.679C717.371 289.52 717.299 289.37 717.174 289.272L713.574 286.473C710.664 284.107 703.133 279.424 694.25 274.284C685.344 269.131 675.036 263.492 666.559 259.221H666.56C662.223 257.019 658.117 255.016 654.994 253.563C653.433 252.837 652.114 252.247 651.132 251.837C650.642 251.632 650.23 251.47 649.912 251.358C649.754 251.303 649.612 251.258 649.492 251.226C649.385 251.197 649.253 251.167 649.133 251.167ZM380.661 219.306C380.597 219.312 380.53 219.323 380.482 219.333C380.397 219.35 380.288 219.374 380.16 219.404C379.903 219.465 379.55 219.555 379.116 219.669C378.248 219.897 377.041 220.226 375.582 220.635C372.663 221.452 368.728 222.586 364.461 223.853C336.292 231.997 303.194 245.611 274.502 260.557L274.499 260.558C267.422 264.297 257.314 270.069 248.377 275.404C239.47 280.722 231.671 285.639 229.223 287.675L225.356 290.741C225.23 290.841 225.16 290.996 225.168 291.157C225.176 291.318 225.261 291.466 225.396 291.554L245.262 304.354L245.265 304.354C290.424 333.104 307.899 340.472 333.51 340.567H334.739C340.475 340.5 344.243 340.333 347.885 339.709C351.529 339.085 355.029 338.006 360.235 336.137C366.915 333.865 375.602 330.125 379.64 327.838L379.641 327.839C388.047 323.236 395.059 319.095 399.975 315.868C402.43 314.256 404.374 312.865 405.708 311.753C406.373 311.198 406.901 310.702 407.267 310.274C407.449 310.061 407.6 309.852 407.709 309.652C407.814 309.458 407.9 309.234 407.9 309C407.9 308.808 407.847 308.485 407.77 308.099C407.688 307.693 407.569 307.165 407.417 306.533C407.113 305.268 406.675 303.572 406.133 301.569C405.048 297.564 403.546 292.326 401.878 286.855H401.879C399.379 278.553 395.53 265.459 392.13 253.972L388.946 243.257C387.012 236.721 385.177 230.784 383.775 226.495C383.075 224.352 382.48 222.614 382.035 221.419C381.813 220.824 381.624 220.352 381.476 220.03C381.403 219.872 381.33 219.731 381.262 219.626C381.23 219.577 381.181 219.508 381.115 219.448C381.085 219.421 380.911 219.265 380.661 219.306ZM513.978 96.1016C513.837 96.089 513.698 96.1371 513.595 96.2324C513.491 96.3279 513.432 96.4625 513.433 96.6035L514.229 212.717L502.114 211.569L502.105 211.568L499.399 211.369C492.874 210.909 485.102 210.5 481 210.5H472.6C472.324 210.5 472.1 210.724 472.1 211V241.4C472.1 250.15 471.967 256.421 472.073 261.065C472.18 265.705 472.524 268.814 473.521 271.225C474.531 273.664 476.186 275.34 478.78 277.171C481.348 278.983 484.933 281.011 489.8 284.09L489.805 284.093C496.069 287.958 514.066 299.289 529.802 309.156V309.157C542.473 317.094 553.815 323.832 562.459 328.588C566.78 330.965 570.434 332.852 573.245 334.145C574.65 334.791 575.853 335.292 576.827 335.633C577.784 335.968 578.575 336.167 579.133 336.167C579.291 336.167 579.412 336.103 579.483 336.055C579.557 336.004 579.616 335.944 579.661 335.892C579.751 335.787 579.837 335.653 579.916 335.511C580.077 335.221 580.26 334.811 580.462 334.307C580.867 333.293 581.367 331.838 581.927 330.05C583.047 326.471 584.417 321.526 585.752 316.051C588.551 305.255 592.549 290.599 594.68 283.272C596.809 275.955 597.956 271.713 598.279 269.3C598.438 268.116 598.419 267.245 598.11 266.662C597.943 266.346 597.698 266.126 597.394 265.994C597.104 265.869 596.782 265.833 596.467 265.833C595.546 265.833 593.973 265.365 591.983 264.519C590.019 263.683 587.72 262.509 585.382 261.166C580.695 258.474 575.91 255.134 573.358 252.518L573.356 252.517L572.622 251.756C557.395 235.666 553.965 212.447 563.849 192.288C573.881 171.958 598.845 160.214 620.205 165.883L620.208 165.884C626.662 167.547 631.012 169.035 634.854 171.202C638.695 173.369 642.058 176.231 646.514 180.687L646.517 180.689C650.545 184.652 653.98 189.377 656.406 194.031C658.837 198.695 660.233 203.246 660.233 206.867C660.233 207.866 660.27 208.749 660.653 209.589C661.04 210.438 661.748 211.18 662.952 211.997C665.334 213.613 669.89 215.669 678.532 219.458L680.756 220.44C703.735 230.672 726.903 243.493 748.321 257.814V257.815C752.771 260.804 755.388 262.474 757.317 263.231C758.298 263.617 759.126 263.777 759.942 263.749C760.753 263.721 761.518 263.509 762.369 263.203L762.376 263.201C762.82 263.035 764.061 262.379 765.87 261.378C767.701 260.365 770.159 258.972 773.071 257.302C778.896 253.961 786.544 249.506 794.637 244.747C810.818 235.232 828.788 224.496 837.529 219.025L842.729 215.826C842.879 215.734 842.969 215.57 842.967 215.395C842.965 215.219 842.872 215.058 842.721 214.969L826.854 205.636C738.81 153.876 644.488 117.587 557.488 101.975H557.487C545.089 99.7079 530.132 97.4363 524.367 97.0342L513.978 96.1016ZM451.524 210.1C442.999 210.232 433.646 210.5 430.688 210.769C426.932 211.104 416.01 212.808 405.967 214.507C400.94 215.357 396.124 216.208 392.521 216.888C390.721 217.227 389.221 217.526 388.147 217.76C387.612 217.877 387.176 217.979 386.861 218.063C386.705 218.106 386.57 218.146 386.465 218.184C386.412 218.202 386.359 218.223 386.31 218.246C386.283 218.259 386.228 218.285 386.171 218.329L386.113 218.38C386.009 218.485 385.979 218.604 385.97 218.643C385.957 218.696 385.954 218.745 385.953 218.777C385.951 218.844 385.956 218.915 385.963 218.979C385.977 219.113 386.005 219.288 386.045 219.495C386.125 219.912 386.259 220.504 386.438 221.244C386.795 222.728 387.342 224.837 388.034 227.413C389.419 232.567 391.386 239.603 393.586 247.271L393.588 247.274C398.12 262.607 403.853 282.34 406.387 291.139V291.141C407.654 295.476 408.855 299.478 409.756 302.413C410.206 303.88 410.582 305.083 410.854 305.928C410.989 306.35 411.1 306.686 411.182 306.921C411.222 307.038 411.256 307.134 411.284 307.206C411.298 307.241 411.313 307.277 411.327 307.308C411.334 307.323 411.343 307.344 411.355 307.365C411.359 307.371 411.373 307.395 411.396 307.425C411.409 307.444 411.424 307.461 411.438 307.477C411.441 307.48 411.443 307.483 411.446 307.486V307.485C411.587 307.63 411.769 307.639 411.806 307.64C411.883 307.641 411.948 307.625 411.978 307.617C412.045 307.599 412.114 307.572 412.173 307.546C412.297 307.491 412.465 307.406 412.666 307.299C413.072 307.081 413.657 306.747 414.396 306.312C415.875 305.44 417.996 304.151 420.597 302.542C425.8 299.324 432.935 294.822 440.736 289.821H440.737L469.003 271.688C469.146 271.596 469.233 271.437 469.233 271.267V251C469.233 239.794 468.833 226.181 468.432 220.564L468.431 220.555L467.498 210.288C467.474 210.027 467.253 209.829 466.991 209.833L451.524 210.1ZM468.476 276.278C468.472 276.279 468.467 276.278 468.463 276.279C468.472 276.277 468.481 276.274 468.49 276.271C468.485 276.273 468.481 276.277 468.476 276.278ZM618.659 194.405C606.677 189.368 591.307 195.613 586.667 207.485L586.665 207.49C585.701 210.04 585.299 213.579 585.417 217C585.535 220.413 586.172 223.798 587.355 226.028V226.029C589.405 229.991 592.941 233.52 596.967 236.057C600.99 238.592 605.549 240.167 609.667 240.167H609.674C614.754 240.098 620.128 237.633 624.423 233.998C628.717 230.363 632.001 225.499 632.826 220.549V220.548C634.596 209.794 628.481 198.498 618.659 194.405ZM469.567 95C450.95 95.0821 432.78 96.3363 410.532 99.5801C410.554 99.5239 410.567 99.4635 410.567 99.4004V78.8672C410.567 69.4178 410.535 64.2463 410.214 61.4434C410.055 60.0593 409.818 59.1445 409.399 58.5811C409.374 58.5464 409.347 58.5131 409.32 58.4814C430.032 55.8186 447.982 54.5161 469.567 53.8545V95Z" fill="url(#paint1_linear_252_192)"/>
<path d="M393.183 102.876C391.624 103.167 390.103 103.438 388.733 103.667C374.333 106.2 322.467 119.267 304.733 124.867C272.867 134.867 236.2 148.6 214.733 158.333C209.667 160.733 202.733 163.8 199.4 165.267C182.067 173.133 106.6 212.067 101.133 216.2C100.867 216.467 140.6 240.467 170.6 258.2L183.8 265.933L195.267 258.333C280.067 201.8 363.133 172.733 449.133 169.4L470.067 168.6V95.498M393.183 102.876C397.088 102.149 401.227 101.305 403.8 100.733L410.067 99.4V78.867C410.067 59.933 409.933 58.333 407.667 58.333C407.21 58.333 406.475 58.384 405.509 58.478M393.183 102.876C424.046 97.491 446.672 95.575 470.067 95.498M405.509 58.478C398.016 59.204 376.628 62.535 363.4 65.133C318.867 73.8 259.933 92.467 208.733 113.933C165.267 132.2 95.533 168.067 63.933 188.467L53 195.533L53.533 209.933C57 307.933 57.933 324.333 62.867 369.667C70.867 443.667 83.8 502.6 104.067 557.4C108.149 568.407 110.119 573.596 111.567 575.689M405.509 58.478C428.019 55.456 446.943 54.034 470.067 53.338M111.567 575.689C111.937 576.224 112.273 576.557 112.601 576.733C113.339 577.129 114.038 576.736 115 576.067C116.333 575.267 125.267 569.667 134.733 563.8C138.538 561.475 144.164 557.998 150.6 554.009M111.567 575.689C126.206 609.701 134.823 626.011 150.567 652.721M150.6 554.009C160.404 547.932 172.086 540.665 182.067 534.467C198.467 524.2 212.467 516.2 212.867 516.733C213.933 517.8 231.8 557.267 236.733 569.267L240.567 576.167L236.067 581.267C221.749 598.467 209.311 610.286 186.592 626.625M150.6 554.009C160.693 576.987 171.177 597.839 186.592 626.625M186.592 626.625C176.73 633.717 164.931 641.661 150.2 651.267C150.056 651.363 150.191 651.867 150.567 652.721M150.567 652.721C154.373 661.361 182.912 705.827 198.2 726.333C233.933 774.333 275.667 817.933 328.333 862.067C356.067 885.4 410.2 923.13 454.6 950.2C468.333 958.6 470.867 959.67 473.533 958.47C494.6 949 559.933 906.2 594.733 879.133C630.867 851.133 681.4 803.133 706.6 773C722.733 753.667 743.667 727.267 750.867 717C780.867 674.6 813 612.733 830.867 563.667C836.867 547.4 848.733 511.133 848.733 509.533M848.733 509.533C848.733 508.867 844.333 505.933 839 503.133C832.696 499.71 822.362 494.005 811.354 487.888M848.733 509.533C857.69 480.288 861.687 464.076 868.2 435.267M811.354 487.888C795.354 478.995 777.931 469.231 769.4 464.333C762.067 460.067 753.533 455.133 750.333 453.267C747.133 451.533 744.2 449.133 743.8 448.2C743.4 447.267 744.467 439.267 745.933 430.6C752.6 392.867 756.333 353.4 758.867 291.267L759.667 268.867L765.267 265.8C785.533 254.2 811.933 238.6 827.133 229.267L844.733 218.467V223.4C844.733 226.067 844.067 243.933 843.4 263C841.4 312.6 837.533 355.533 831.933 390.867C831.683 392.423 831.447 393.951 831.227 395.432M811.354 487.888C820.005 457.5 825.538 431.815 831.227 395.432M831.227 395.432C829.812 404.98 829.089 412.538 829.667 413C831 414.333 867.933 435.533 868.2 435.267M868.2 435.267C869.267 434.2 876.2 389.8 878.87 367.533C883.4 328.333 888.87 236.333 888.73 201.667L888.6 193.667L878.73 187.267C848.6 167.933 831 157.933 796.733 140.867C710.867 98.067 634.067 71.8 559.4 59.667C537.8 56.2 502.6 53 484.467 53H470.067V53.338M470.067 53.338V95.498M288.787 572.25C288.937 572.227 289.085 572.206 289.231 572.187C289.344 572.171 289.456 572.157 289.567 572.144C290.28 572.059 290.981 571.988 291.667 571.933C300.467 571.267 300.467 571.267 308.333 563.133C333.8 536.467 352.733 502.867 358.067 474.467C361.4 456.733 358.867 432.2 352.067 415.4C345.267 398.733 339.133 390.467 323.8 377.667C315.8 371.133 304.867 361.8 299.4 357.133C293.933 352.467 287.4 346.867 285.133 344.733C282.733 342.6 280.733 341.4 280.733 342.067C280.733 342.6 282.733 347 285.267 351.667C292.2 364.733 297.933 379.933 301.667 395.533C304.733 408.6 305 411.267 304.333 432.333C303.8 451.8 303.133 457.133 299.667 470.333C293.158 495.555 283.531 519.422 271.264 540.979M288.787 572.25C276.898 574.063 248.95 586.336 247.157 587.127M288.787 572.25C282.841 562.342 277.503 552.811 271.264 540.979M247.157 587.127C247.097 587.153 247.067 587.167 247.067 587.167C247.067 587.167 247.098 587.13 247.133 587.088M247.157 587.127C247.149 587.114 247.141 587.101 247.133 587.088M247.133 587.088C247.18 587.034 247.232 586.971 247.226 586.975C247.205 586.987 247.165 587.01 247.106 587.044M247.106 587.044C246.091 587.638 239.602 591.471 236.2 593.667C232.067 596.2 228.733 598.067 228.733 597.533C228.733 597 232.467 592.733 236.867 587.933C238.85 585.824 241.142 583.372 243.067 581.167M247.106 587.044C245.865 585.03 244.628 582.982 243.357 580.831M243.067 581.167C243.008 581.234 243.125 581.1 243.067 581.167ZM243.067 581.167C243.164 581.055 243.26 580.943 243.357 580.831M243.357 580.831C253.66 568.915 262.781 555.804 270.918 541.585M270.918 541.585C270.95 541.529 270.982 541.473 271.014 541.418M270.918 541.585L271.014 541.418M271.014 541.418C271.062 541.334 271.11 541.25 271.157 541.167C271.193 541.104 271.229 541.042 271.264 540.979M557.4 102.467C644.333 118.067 738.6 154.333 826.6 206.067L842.467 215.4L837.267 218.6C819.8 229.533 765.4 261.533 762.2 262.733C758.867 263.933 757.533 263.4 748.6 257.4C726.467 242.6 702.467 229.4 678.733 219C661.4 211.4 660.733 210.867 660.733 206.867C660.733 199.4 655 188.333 646.867 180.333C637.933 171.4 633.267 168.733 620.333 165.4C598.733 159.667 573.533 171.533 563.4 192.067C553.267 212.733 557 236.6 573 252.867C578.2 258.2 592.333 266.333 596.467 266.333C598.733 266.333 598.467 268.467 594.2 283.133C592.067 290.467 588.067 305.133 585.267 315.933C582.6 326.867 579.8 335.667 579.133 335.667C575.4 335.667 555.4 324.6 530.067 308.733C514.333 298.867 496.333 287.533 490.067 283.667C470.467 271.267 472.6 276.467 472.6 241.4V211H481C485.667 211 495.133 211.533 502.067 212.067L514.733 213.267L513.933 96.6L524.333 97.533C530.067 97.933 545 100.2 557.4 102.467ZM618.467 194.867C628.067 198.867 634.067 209.933 632.333 220.467C630.733 230.067 619.533 239.533 609.667 239.667C601.667 239.667 591.8 233.533 587.8 225.8C585.533 221.533 585.267 212.6 587.133 207.667C591.667 196.067 606.733 189.933 618.467 194.867ZM467.933 220.6C468.333 226.2 468.733 239.8 468.733 251V271.267L440.467 289.4C424.867 299.4 411.933 307.4 411.8 307.133C411.667 307 409.4 299.667 406.867 291C404.333 282.2 398.6 262.467 394.067 247.133C389.667 231.8 386.2 219 386.467 218.733C387.133 218.067 423.267 211.933 430.733 211.267C433.667 211 443 210.733 451.533 210.6L467 210.333L467.933 220.6ZM115.667 229.8C124.733 235.533 133.533 241 135.4 242.2C141.667 246.067 180.067 269 181 269.267C181.533 269.533 182.733 281 183.667 294.867L185.267 320.067L181.267 322.733C165.4 334.2 156.867 355.133 160.6 373.4C163.667 388.067 170.333 398.733 181.533 406.467C203.533 421.533 233.8 417.4 249.933 397C257 388.067 260.867 377.4 261 366.333C261.133 354.733 259.933 349.933 255 340.6C250.2 331.4 242.6 324.333 232.2 319.267L224.733 315.533V294.2L237.933 304.333C261.8 322.6 276.6 341.4 287.8 367.8C295.667 386.067 300.733 409.533 300.733 427.267C300.733 453.133 289 495.267 273.133 526.733L268.333 536.333L266.067 531C255.4 506.733 238.067 466.067 236.6 461.933C235.4 458.6 234.2 457.133 233 457.667C231.933 458.067 215.133 468.067 195.533 479.933C149 508.067 135.4 516.067 134.733 515.533C133.8 514.467 124.867 481.267 121.667 466.333C110.2 414.467 102.067 347.8 99.4 283C98.067 249.267 97.667 219.667 98.6 219.667C99 219.667 106.6 224.2 115.667 229.8ZM388.467 243.4C392.333 256.333 398.067 275.933 401.4 287C404.733 297.933 407.4 307.933 407.4 309C407.4 310.867 396.2 318.2 379.4 327.4C375.4 329.667 366.733 333.4 360.067 335.667C349.667 339.4 346.2 339.933 334.733 340.067C308.6 340.2 291.4 333.133 245.533 303.933L225.667 291.133L229.533 288.067C234.333 284.067 260.6 268.467 274.733 261C303.4 246.067 336.467 232.467 364.6 224.333C373.133 221.8 380.333 219.8 380.733 219.8C381.133 219.667 384.6 230.333 388.467 243.4ZM666.333 259.667C683.267 268.2 707.533 282.2 713.267 286.867L716.867 289.667L697.933 303C665.4 325.8 647.4 335.133 628.333 339.267C617.933 341.4 600.733 341 589.933 338.333L583.933 336.867L591.133 311.267C604.867 262.6 603 267.267 607.533 268.2C616.6 269.933 637.667 262.467 644.733 255C646.467 253.133 648.467 251.667 649.133 251.667C649.933 251.667 657.667 255.267 666.333 259.667ZM464.733 289.933C450.6 342.2 422.467 379.533 389 390.2C380.867 392.867 377.533 393.267 367.667 392.6C348.333 391.533 344.067 389.133 311.933 362.067C296.467 349.133 280.467 335.4 276.6 331.667L269.4 324.867L280.333 330.333C317.933 348.733 348.333 348.867 381.933 330.733C390.733 325.933 429.267 301.667 454.067 285.133C461.8 280.067 468.2 275.8 468.333 275.8C468.467 275.667 466.867 282.067 464.733 289.933ZM538.467 319.133C574.467 340.733 584.867 344.2 612.067 344.333C631.4 344.333 637 343 656.733 334.067C663 331.267 667.133 329.8 666.067 330.733C648.467 347.533 604.067 383.533 597.133 386.6C573.667 397 552.733 394.6 531.933 379.267C514.733 366.6 500.333 348.333 488.733 324.333C481.933 310.333 472.733 284.2 472.733 278.867C472.733 277.8 481.4 282.733 493 290.467C504.067 297.933 524.6 310.867 538.467 319.133ZM472.067 293.933C474.6 307.933 488.067 335.667 501.267 354.6C509.4 366.333 527.667 383.4 537.533 388.6C551.8 396.2 569.933 399 584.067 395.667C587 395 589.533 394.6 589.667 394.867C589.8 395 583.267 400.467 575.133 407C555.933 422.6 544.867 431.667 531.8 442.467L521.267 451.267L519.667 441.267C517 424.333 508.6 413.133 493 405.4C483.4 400.6 482.2 400.333 470.067 400.333C459.133 400.333 456.333 400.867 449.8 403.933C433.933 411.267 423 426.467 421.267 443.267L420.333 451.533L410.467 443.267C401 435.4 396.867 431.933 368.867 409.133C362.067 403.533 355.133 397.933 353.533 396.6C350.867 394.2 350.867 394.067 353.4 395.133C354.867 395.667 361.533 396.333 368.333 396.733C378.2 397.133 382.333 396.733 389.667 394.467C421.8 384.733 450.333 350.333 464.733 303.8C467.267 295.667 469.8 289 470.2 289C470.733 289 471.533 291.267 472.067 293.933ZM717.533 321.267C716.067 362.067 713.667 383.4 705.133 431C702.6 444.867 700.2 458.467 699.933 461L699.267 465.667L717 476.733C737.533 489.667 797.8 528.333 798.733 529.267C799.533 529.933 789.8 554.867 779.4 579C769 603.267 744.6 649 742.067 649C741.267 649 723.4 601 723.4 598.733C723.4 597.8 725.533 593.133 728.333 588.2C741 565.133 731.8 536.333 707.933 524.333C700.6 520.6 699 520.333 685.8 520.333H671.4L664.2 506.333C649.933 478.733 644.733 458.067 644.733 428.733C644.6 385.133 659.4 346.333 686.6 319C695.8 309.8 714.867 294.467 717.267 294.333C717.933 294.333 718.067 305.667 717.533 321.267ZM662.2 342.867C658.867 346.733 651.4 363.933 647.4 376.467C633.8 419.8 637.667 464.867 658.733 506.6C666.2 521.667 666.867 523.667 664.733 524.333C659.667 525.933 651.667 533 647.133 539.8C642.333 547.133 640.333 552.467 638.733 561.267L637.933 566.333L629.933 557.267C595 518.333 579.933 483.267 582.733 448.067C584.867 419.533 596.067 395.267 613.667 380.733C619.267 376.067 632.467 365 643.267 356.067C653.933 347.133 662.867 340.067 663.267 340.333C663.533 340.733 663.133 341.8 662.2 342.867ZM220.067 345C227.133 348.333 231.533 354.467 232.467 361.8C233.267 369.8 232.067 373.533 226.6 379.667C221 385.933 214.6 388.2 206.867 387.133C199.667 386.067 190.867 378.733 188.733 372.2C185.267 361.8 190.2 349.933 200.067 345C206.867 341.667 213.133 341.667 220.067 345ZM367.667 413.4C374.067 418.6 388.867 430.733 400.467 440.333C418.867 455.267 422.067 458.333 423.4 463C425.933 471.4 431.267 479.667 439 487.133L446.067 493.8L442.067 516.333C439.8 528.733 437.267 539.8 436.333 540.867C434.333 543.533 421.8 558.467 420.067 560.467C418.733 561.8 390.067 595.8 382.6 604.733L379.8 608.067L368.467 599.4C347.8 583.667 335.667 577.533 316.2 573L306.867 570.867L310.2 567.667C329 549.4 347 521.933 356.2 497.4C367.533 467.4 366.333 433.533 353.133 407.133L348.6 398.067L352.333 400.867C354.333 402.467 361.267 408.067 367.667 413.4ZM588.733 407.4C580.867 423.933 578.733 434.2 578.867 456.333C578.867 474.2 579.267 477.667 582.6 488.333C590.333 513.533 605.267 537.667 629.133 563.133L635.533 570.067L628.467 571.667C610.333 575.933 590.2 586.6 571.133 602.067L562.067 609.267L559.533 606.2C558.2 604.467 551.8 596.733 545.533 589C539.133 581.267 527.133 566.467 518.6 556.067L503.133 537.133L499.267 516.067C497.133 504.467 495.4 494.333 495.4 493.667C495.533 492.867 497.8 490.733 500.6 488.733C507 484.333 513.4 475.267 517.533 464.733C519.267 460.2 521.8 455.8 523.267 454.867C524.6 453.933 538.333 442.733 553.667 430.067C585.933 403.4 591.933 398.467 592.333 398.867C592.467 399 590.867 402.867 588.733 407.4ZM697.8 549.4C707.133 555.667 709.533 567.8 703.267 577.933C700.467 582.333 691.267 587.667 686.333 587.667C681.8 587.667 675.133 584.467 671.133 580.333C654.067 563.133 677.533 535.933 697.8 549.4ZM530.733 577.667C540.2 589.4 550.333 601.933 553.267 605.4L558.6 611.8L541 629.4C507 663.533 491.8 685.4 477.933 719.667L472.733 732.333V595.667H494.067C510.2 595.667 515.4 595.267 515.4 593.933C515.4 593.133 513.267 583 510.733 571.667C508.2 560.333 506.067 550.2 506.067 549.267C506.067 547.267 508.333 549.933 530.733 577.667ZM430.733 568.6C428.2 578.733 425.933 588.6 425.4 590.467C424.6 593.533 425 594.067 428.867 594.867C431.133 595.267 441.133 595.667 450.867 595.667H468.733V663.267L468.6 731L464.867 721.4C450.867 685.933 427.267 653 391.533 619.267C386.6 614.6 383.8 610.867 384.333 609.933C384.867 609 389.8 602.867 395.4 596.333C401 589.667 411.933 576.733 419.8 567.267C427.8 557.933 434.467 550.333 434.6 550.333C434.867 550.333 433.133 558.6 430.733 568.6ZM639 576.6C639.4 577.933 641.133 582.2 642.867 586.2L646.067 593.267L637.133 606.2C629.133 617.667 614.6 636.2 603.667 649C600.067 653.133 599.4 653.4 597.667 651.667C593.4 647.4 566.067 613.8 566.067 612.867C566.067 612.333 573 606.6 581.267 600.333C597.933 587.933 614.867 579.133 627.8 576.333C638.6 573.933 638.067 573.933 639 576.6ZM317.8 577.667C329.133 580.333 343.533 587.133 355.267 595.4C365.667 602.6 375.4 611 375.4 612.733C375.4 613.267 372.2 617.4 368.333 621.8C364.467 626.2 357.533 634.467 352.867 640.067C348.333 645.8 344.2 650.333 343.667 650.2C341.061 649.93 318.831 619.135 304.614 597.533C297.736 587.084 292.733 578.785 292.733 577.133C292.733 575 307.8 575.267 317.8 577.667ZM260.067 607C274.2 630.2 291.133 654.067 311.8 679.533L319.8 689.267L302.067 724.867L284.467 760.333L273.133 748.333C258.333 732.467 232.733 700.733 220.333 682.733C208.467 665.4 190.467 635.933 189.8 632.6C189.533 630.867 196.6 625.4 219.4 610.467C235.933 599.533 249.8 591 250.333 591.4C250.867 591.933 255.267 598.867 260.067 607ZM729.133 627.667C734.067 641.267 738.067 653.267 738.067 654.467C738.067 656.333 725.133 677.933 716.6 690.333C709.667 700.467 693.8 720.867 685.267 730.867L676.333 741.4L672.333 736.867C670.2 734.333 661.933 725.4 654.2 717C629.267 690.2 627.4 688.067 627.4 687C627.4 686.467 631.133 681.8 635.8 676.467C648.067 662.6 661.667 645.133 673.267 627.933L683.533 613H689.267C697.133 613 707.4 609.667 713.533 605.133C716.333 603 719.133 601.667 719.533 602.2C719.933 602.6 724.333 614.067 729.133 627.667ZM402.733 637.133C432.067 667.4 448.867 692.2 460.733 723.133C465.133 734.733 470.733 755.4 469.8 756.467C467.8 758.333 429.8 732.333 408.067 714.333C393.267 702.067 354.867 664.867 349.8 657.933C347.4 654.6 347.4 653.933 349 651.933C350.067 650.733 355.667 643.933 361.4 637C367.267 630.067 373.667 622.467 375.933 620.067L379.8 615.8L384.6 619.533C387.267 621.667 395.4 629.533 402.733 637.133ZM570.2 625.8C574.2 630.733 578.067 635.4 578.733 636.2C585.933 644.067 595.4 656.2 595.4 657.4C595.267 661.533 553.8 701.533 531.133 719.4C514.6 732.333 477.133 757 473.8 757C469.933 757 480.2 721.933 489.4 703.533C495.667 691.133 508.2 672.2 517.8 661C526.6 650.6 560.2 617 561.8 617C562.333 617 566.2 621 570.2 625.8ZM649.533 718.2C661.933 731.533 672.2 743.4 672.467 744.2C672.867 746.2 627.8 792.2 610.733 807.267C576.467 837.4 538.6 865.267 500.6 888.467C487.533 896.333 474.467 903.667 473.533 903.667C473 903.667 472.733 882.2 472.733 855.933V808.067L476.467 806.2C517.8 785.133 582.2 735.667 614.6 700.333C621.933 692.333 624.2 690.6 625.4 691.933C626.2 692.867 637.133 704.733 649.533 718.2ZM342.067 712.067C360.2 730.067 379.667 747.267 392.067 756.467C395 758.6 397.667 760.6 398.067 761C401 764.333 445.8 793.933 460.467 802.333L468.6 807L469 855.4C469.267 894.067 469 903.533 467.667 903C466.733 902.733 453.533 894.467 438.333 884.6C398.867 859.267 357.933 829.133 333 807.133C317.267 793 287.4 763.533 287.933 762.467C288.2 762.067 295.933 746.2 305.267 727.267C314.6 708.467 322.333 693 322.467 693C322.733 693 331.533 701.667 342.067 712.067Z" stroke="url(#paint2_linear_252_192)" stroke-opacity="0.5" stroke-width="8" stroke-linecap="round" stroke-linejoin="round"/>
<defs>
<linearGradient id="paint0_linear_252_192" x1="890.961" y1="53" x2="75.7801" y2="977.516" gradientUnits="userSpaceOnUse">
<stop offset="0.2" stop-color="white" stop-opacity="0"/>
<stop offset="0.35" stop-color="white" stop-opacity="0.02"/>
<stop offset="0.5" stop-color="white" stop-opacity="0.1"/>
<stop offset="0.6" stop-color="white" stop-opacity="0.02"/>
<stop offset="0.7" stop-color="white" stop-opacity="0"/>
</linearGradient>
<linearGradient id="paint1_linear_252_192" x1="817.42" y1="145.436" x2="259.295" y2="716.762" gradientUnits="userSpaceOnUse">
<stop offset="0.355477" stop-color="#606060" stop-opacity="0"/>
<stop offset="0.603684" stop-color="#606060"/>
<stop offset="1" stop-color="#606060" stop-opacity="0"/>
</linearGradient>
<linearGradient id="paint2_linear_252_192" x1="519.525" y1="288.529" x2="332.74" y2="431.381" gradientUnits="userSpaceOnUse">
<stop stop-color="white" stop-opacity="0"/>
<stop offset="0.5" stop-color="white" stop-opacity="0.1"/>
<stop offset="1" stop-color="white" stop-opacity="0"/>
</linearGradient>
</defs>
</svg>
