<svg width="24" height="24" viewBox="0 0 24 24" fill="none" xmlns="http://www.w3.org/2000/svg">
<path d="M6.91725 13.6164L2.40047 12.1447C2.40047 12.1447 1.86067 11.9257 2.03448 11.4291C2.07027 11.3267 2.14245 11.2395 2.35837 11.0898C3.35916 10.3922 20.8823 4.09389 20.8823 4.09389C20.8823 4.09389 21.3771 3.92717 21.6689 4.03806C21.7411 4.0604 21.806 4.10153 21.8571 4.15721C21.9082 4.2129 21.9436 4.28116 21.9596 4.355C21.9911 4.48543 22.0043 4.61962 21.9988 4.75369C21.9974 4.86967 21.9833 4.97716 21.9727 5.14574C21.866 6.86771 18.6722 19.7194 18.6722 19.7194C18.6722 19.7194 18.4811 20.4714 17.7965 20.4972C17.6282 20.5026 17.4606 20.4741 17.3036 20.4134C17.1466 20.3526 17.0034 20.2609 16.8827 20.1437C15.5392 18.988 10.8956 15.8673 9.86952 15.181C9.84637 15.1652 9.82688 15.1447 9.81235 15.1207C9.79783 15.0968 9.7886 15.07 9.78531 15.0422C9.77096 14.9699 9.84962 14.8803 9.84962 14.8803C9.84962 14.8803 17.9353 7.69315 18.1504 6.93866C18.1671 6.88021 18.1042 6.85137 18.0196 6.87697C17.4826 7.07454 8.17299 12.9536 7.14551 13.6025C7.07155 13.6248 6.99338 13.6296 6.91725 13.6164Z" fill="white"/>
</svg>
