<svg width="20" height="20" viewBox="0 0 20 20" fill="none" xmlns="http://www.w3.org/2000/svg">
<path fill-rule="evenodd" clip-rule="evenodd" d="M17.0042 2.90654C15.1331 1.03324 12.6448 0.00114423 9.99371 0C4.53115 0 0.0852454 4.44562 0.0830523 9.90989C0.0823848 11.6566 0.538647 13.3615 1.40597 14.8645L0 20L5.25373 18.6219C6.70128 19.4114 8.33105 19.8276 9.9897 19.8282H9.9938C15.4558 19.8282 19.9021 15.382 19.9044 9.91762C19.9053 7.26968 18.8753 4.77974 17.0042 2.90654ZM9.9938 18.1545H9.99047C8.51241 18.1539 7.06267 17.7567 5.79801 17.0062L5.49717 16.8278L2.37952 17.6456L3.21166 14.6059L3.01581 14.2941C2.1913 12.9827 1.75573 11.4669 1.75639 9.91037C1.75821 5.36873 5.4534 1.67382 9.99714 1.67382C12.1972 1.67458 14.2655 2.53247 15.8207 4.08957C17.3759 5.64659 18.2318 7.71612 18.2309 9.91714C18.2291 14.4592 14.5339 18.1545 9.9938 18.1545ZM14.5121 11.985C14.2645 11.8612 13.0471 11.2621 12.8201 11.1794C12.5931 11.0969 12.428 11.0556 12.2629 11.3035C12.0979 11.5514 11.6232 12.1091 11.4787 12.2744C11.3343 12.4396 11.1898 12.4604 10.9423 12.3363C10.6945 12.2125 9.89673 11.9509 8.95084 11.1072C8.21472 10.4506 7.71774 9.63976 7.57328 9.39175C7.42882 9.14383 7.55783 9.00986 7.68189 8.88638C7.79326 8.77539 7.92952 8.59708 8.05338 8.45252C8.17724 8.30797 8.21844 8.20461 8.30101 8.03936C8.38359 7.87412 8.3423 7.72947 8.28032 7.6056C8.21843 7.48155 7.72317 6.26266 7.51683 5.76682C7.31583 5.28406 7.11168 5.34937 6.95969 5.34174C6.81542 5.33459 6.65017 5.33297 6.48502 5.33297C6.31997 5.33297 6.05174 5.39495 5.8247 5.64287C5.59777 5.89078 4.95805 6.48988 4.95805 7.70878C4.95805 8.92767 5.8453 10.1051 5.96916 10.2704C6.09293 10.4357 7.71535 12.9369 10.1994 14.0096C10.7901 14.2647 11.2514 14.417 11.6111 14.5312C12.2044 14.7198 12.7442 14.6931 13.1708 14.6294C13.6466 14.5582 14.6359 14.0303 14.8422 13.4519C15.0485 12.8734 15.0485 12.3775 14.9867 12.2743C14.9248 12.1711 14.7597 12.1091 14.5121 11.985Z" fill="#101010"/>
</svg>
