<svg width="24" height="24" viewBox="0 0 24 24" fill="none" xmlns="http://www.w3.org/2000/svg">
<path fill-rule="evenodd" clip-rule="evenodd" d="M19.0042 4.90654C17.1331 3.03324 14.6448 2.00114 11.9937 2C6.53115 2 2.08525 6.44562 2.08305 11.9099C2.08238 13.6566 2.53865 15.3615 3.40597 16.8645L2 22L7.25373 20.6219C8.70128 21.4114 10.331 21.8276 11.9897 21.8282H11.9938C17.4558 21.8282 21.9021 17.382 21.9044 11.9176C21.9053 9.26968 20.8753 6.77974 19.0042 4.90654ZM11.9938 20.1545H11.9905C10.5124 20.1539 9.06267 19.7567 7.79801 19.0062L7.49717 18.8278L4.37952 19.6456L5.21166 16.6059L5.01581 16.2941C4.1913 14.9827 3.75573 13.4669 3.75639 11.9104C3.75821 7.36873 7.4534 3.67382 11.9971 3.67382C14.1972 3.67458 16.2655 4.53247 17.8207 6.08957C19.3759 7.64659 20.2318 9.71612 20.2309 11.9171C20.2291 16.4592 16.5339 20.1545 11.9938 20.1545ZM16.5121 13.985C16.2645 13.8612 15.0471 13.2621 14.8201 13.1794C14.5931 13.0969 14.428 13.0556 14.2629 13.3035C14.0979 13.5514 13.6232 14.1091 13.4787 14.2744C13.3343 14.4396 13.1898 14.4604 12.9423 14.3363C12.6945 14.2125 11.8967 13.9509 10.9508 13.1072C10.2147 12.4506 9.71774 11.6398 9.57328 11.3917C9.42882 11.1438 9.55783 11.0099 9.68189 10.8864C9.79326 10.7754 9.92952 10.5971 10.0534 10.4525C10.1772 10.308 10.2184 10.2046 10.301 10.0394C10.3836 9.87412 10.3423 9.72947 10.2803 9.6056C10.2184 9.48155 9.72317 8.26266 9.51683 7.76682C9.31583 7.28406 9.11168 7.34937 8.95969 7.34174C8.81542 7.33459 8.65017 7.33297 8.48502 7.33297C8.31997 7.33297 8.05174 7.39495 7.8247 7.64287C7.59777 7.89078 6.95805 8.48988 6.95805 9.70877C6.95805 10.9277 7.8453 12.1051 7.96916 12.2704C8.09293 12.4357 9.71535 14.9369 12.1994 16.0096C12.7901 16.2647 13.2514 16.417 13.6111 16.5312C14.2044 16.7198 14.7442 16.6931 15.1708 16.6294C15.6466 16.5582 16.6359 16.0303 16.8422 15.4519C17.0485 14.8734 17.0485 14.3775 16.9867 14.2743C16.9248 14.1711 16.7597 14.1091 16.5121 13.985Z" fill="white"/>
</svg>
