<svg width="20" height="17" viewBox="0 0 20 17" fill="none" xmlns="http://www.w3.org/2000/svg">
<path d="M4.91725 9.61635L0.400472 8.14469C0.400472 8.14469 -0.139333 7.92568 0.0344845 7.42906C0.0702658 7.32665 0.142445 7.23951 0.358367 7.08976C1.35916 6.39218 18.8823 0.0938899 18.8823 0.0938899C18.8823 0.0938899 19.3771 -0.0728325 19.6689 0.0380587C19.7411 0.0604046 19.806 0.101525 19.8571 0.157213C19.9082 0.212901 19.9436 0.281157 19.9596 0.355001C19.9911 0.485428 20.0043 0.619616 19.9988 0.753685C19.9974 0.869666 19.9833 0.977164 19.9727 1.14574C19.866 2.86771 16.6722 15.7194 16.6722 15.7194C16.6722 15.7194 16.4811 16.4714 15.7965 16.4972C15.6282 16.5026 15.4606 16.4741 15.3036 16.4134C15.1466 16.3526 15.0034 16.2609 14.8827 16.1437C13.5392 14.988 8.89561 11.8673 7.86952 11.181C7.84637 11.1652 7.82688 11.1447 7.81235 11.1207C7.79783 11.0968 7.7886 11.07 7.78531 11.0422C7.77096 10.9699 7.84962 10.8803 7.84962 10.8803C7.84962 10.8803 15.9353 3.69315 16.1504 2.93866C16.1671 2.88021 16.1042 2.85137 16.0196 2.87697C15.4826 3.07454 6.17299 8.95363 5.14551 9.60247C5.07155 9.62485 4.99338 9.6296 4.91725 9.61635Z" fill="#101010"/>
</svg>
