<svg width="189" height="35" viewBox="0 0 189 35" fill="none" xmlns="http://www.w3.org/2000/svg">
<g clip-path="url(#clip0_1_73)">
<path d="M67.5305 11.6724C67.5305 17.9557 62.187 23.1966 55.7784 23.0998C49.364 23.0998 44.0205 17.7677 44.1174 11.5812C44.1174 5.29785 49.4608 0.153809 55.972 0.153809C62.2839 0.153809 67.6273 5.389 67.5305 11.6724ZM55.8752 19.3856C60.0508 19.3856 63.7422 15.8651 63.8391 11.7692C63.8391 7.58219 60.2445 4.05599 56.0689 3.96484C51.6939 3.96484 48.0993 7.38851 48.0025 11.5812C47.9056 15.7682 51.5002 19.2887 55.8752 19.3856Z" fill="white"/>
<path d="M21.8666 0.250671C21.8666 7.95819 21.8666 15.2897 21.8666 23.003C16.5232 18.3374 11.2766 13.7687 5.8363 9.00637C5.8363 10.1514 5.8363 10.9147 5.8363 11.6724C5.8363 14.2473 5.8363 16.8164 5.8363 19.2888C5.8363 19.6704 5.73946 20.1489 5.54578 20.4338C4.47481 21.2883 3.40955 22.1485 2.1449 23.0998C2.1449 15.3866 2.1449 7.95819 2.1449 0.250671C7.48832 5.10419 12.7349 9.76972 18.272 14.7201C18.272 13.9567 18.272 13.5808 18.272 13.1991C18.272 10.1514 18.272 7.00686 18.272 3.96486C18.272 3.48635 18.5625 2.91669 18.9556 2.53501C19.7303 1.77167 20.7045 1.10516 21.8666 0.250671Z" fill="white"/>
<path d="M107.954 23.0029C107.658 23.0998 107.658 23.0998 107.658 23.0998C103.869 23.2877 103.869 23.2877 102.12 20.0521C101.055 18.1494 100.081 16.3379 99.0101 14.4352C98.8164 14.0535 98.2354 13.7687 97.7511 13.6719C96.4865 13.5807 95.2218 13.6719 93.7635 13.6719C93.7635 16.8164 93.7635 19.8641 93.7635 23.0029C92.4077 23.0029 91.1431 23.0029 89.8784 23.0029C89.8784 18.6222 89.8784 14.3384 89.8784 9.86652C90.4652 9.86652 91.0462 9.86652 91.6273 9.86652C94.6408 9.86652 97.6543 9.86652 100.759 9.86652C102.804 9.86652 103.869 8.81834 103.869 6.81883C103.869 4.91616 102.901 3.86798 100.856 3.86798C97.7511 3.86798 94.6408 3.86798 91.5304 3.86798C91.1431 3.86798 90.7557 3.86798 90.3626 3.86798C90.3626 3.77114 90.2658 3.6743 90.2658 3.58315C91.7241 2.43813 93.2793 1.29881 94.8345 0.153789C94.9313 0.153789 95.0282 0.0569458 95.0282 0.0569458C97.7511 0.153789 100.468 -0.0342 103.095 0.438619C106.399 1.10512 108.147 4.3408 107.658 7.95815C107.27 10.721 105.812 12.7205 102.901 13.7687C104.553 16.9132 106.205 19.9552 107.954 23.0029Z" fill="white"/>
<path d="M170.907 0.250671C175.96 0.250671 181.013 0.250671 186.356 0.250671C184.704 1.48684 183.252 2.63186 181.696 3.77118C181.4 3.96486 180.916 3.96486 180.626 3.96486C178.683 3.96486 176.837 3.96486 174.798 3.96486C174.798 5.86753 174.798 7.7702 174.798 9.76972C177.612 9.76972 180.432 9.76972 183.252 9.76972C183.252 11.1027 183.252 12.2477 183.252 13.5807C180.432 13.5807 177.612 13.5807 174.798 13.5807C174.798 15.5803 174.798 17.3861 174.798 19.3856C177.321 19.3856 179.754 19.3856 182.278 19.3856C183.149 19.3856 183.639 19.5736 184.123 20.2401C184.801 21.1971 185.582 22.0516 186.356 23.0998C181.11 23.0998 176.057 23.0998 170.907 23.0998C170.907 15.4834 170.907 7.86704 170.907 0.250671Z" fill="white"/>
<path d="M148.468 0.153801C148.075 0.632316 147.881 0.917146 147.591 1.20198C145.067 4.24967 142.538 7.29736 139.917 10.3393C139.331 11.0059 139.234 11.4844 139.917 12.2477C142.538 15.3865 145.067 18.6222 147.591 21.8636C147.881 22.2396 148.178 22.5301 148.565 23.0998C146.913 23.0998 145.455 23.0998 143.996 23.0998C143.706 23.0998 143.318 22.8149 143.125 22.6212C140.111 18.9128 137.194 15.1017 134.084 11.2907C136.613 8.24869 139.234 5.29784 141.666 2.15331C142.925 0.535474 144.287 -0.227873 146.326 0.056958C146.913 0.250643 147.591 0.153801 148.468 0.153801Z" fill="white"/>
<path d="M133.987 0.250671C133.987 8.05503 133.987 15.5803 133.987 23.0998C132.728 23.0998 131.561 23.0998 130.296 23.0998C130.296 22.7181 130.199 22.2396 130.199 21.7668C130.199 15.8651 130.199 9.9577 130.296 3.96486C130.296 3.48635 130.683 2.81984 131.076 2.43817C131.851 1.77167 132.825 1.10516 133.987 0.250671Z" fill="white"/>
<path d="M187.911 33.667C177.515 33.667 167.119 33.667 156.723 33.667C156.723 33.479 156.723 33.3822 156.723 33.1885C167.119 33.2853 177.515 33.0973 187.911 33.2853C187.911 33.3822 187.911 33.5701 187.911 33.667Z" fill="white"/>
<path d="M31.585 33.667C21.1886 33.667 10.7923 33.667 0.395996 33.667C0.395996 33.5701 0.395996 33.5701 0.395996 33.479C1.17074 33.3822 1.95117 33.1885 2.72591 33.1885C11.9601 33.1885 21.1886 33.1885 30.4172 33.1885C30.8045 33.1885 31.1976 33.2853 31.585 33.2853C31.585 33.3822 31.585 33.5701 31.585 33.667Z" fill="white"/>
<path d="M90.8525 31.7643C91.2399 31.7643 91.7241 31.7643 92.3108 31.7643C92.4077 32.9037 92.6014 33.9518 92.6982 35C91.9178 35 90.9493 35 89.9752 35C90.2657 34.0487 90.562 33.0005 90.8525 31.7643ZM90.8525 34.5215C91.4336 34.3335 91.9178 34.2367 92.0146 34.0487C92.1114 33.479 92.0146 32.8125 91.9178 32.146C91.6272 32.2372 91.2399 32.2372 91.143 32.4308C90.9493 33.0974 90.9493 33.667 90.8525 34.5215Z" fill="white"/>
<path d="M53.2491 31.6675C53.6365 31.6675 54.0296 31.5706 54.3201 31.7643C54.6106 31.9523 54.998 32.334 55.0948 32.6188C55.0948 32.9036 54.8043 33.2853 54.5138 33.5701C54.1264 33.9518 53.7391 34.1455 53.346 34.4303C53.2491 33.7638 53.2491 32.7156 53.2491 31.6675Z" fill="white"/>
<path d="M127.282 31.3826C127.282 32.7156 127.282 33.667 127.282 34.7151C127.186 34.7151 127.094 34.7151 126.992 34.7151C126.895 34.1455 126.895 33.5701 126.798 32.6188C126.12 33.479 125.636 34.1455 124.856 35C124.856 33.667 124.856 32.7156 124.856 31.6675C124.952 31.6675 125.049 31.6675 125.146 31.6675C125.146 32.2371 125.243 32.8125 125.345 33.7638C126.12 33.0005 126.604 32.334 127.282 31.3826Z" fill="white"/>
<path d="M47.9058 32.146C47.4215 32.146 47.131 32.146 46.6411 32.146C46.6411 33.0005 46.5443 33.855 46.5443 34.7152C46.4474 34.7152 46.4474 34.7152 46.3506 34.7152C46.3506 33.7639 46.3506 32.8125 46.3506 31.7643C46.9373 31.7643 47.6152 31.7643 48.39 31.7643C48.39 32.7157 48.39 33.7639 48.39 34.7152C48.2931 34.7152 48.1963 34.7152 48.0994 34.7152C48.0026 33.855 48.0026 33.0005 47.9058 32.146Z" fill="white"/>
<path d="M133.89 33.479C133.503 33.479 133.116 33.479 132.728 33.479C132.631 33.9518 132.535 34.3335 132.432 34.7152C132.335 34.7152 132.335 34.7152 132.238 34.7152C132.238 33.7639 132.238 32.7157 132.238 31.7643C132.335 31.7643 132.335 31.7643 132.432 31.7643C132.535 32.146 132.631 32.522 132.728 33.0005C133.116 33.0005 133.503 33.0005 133.89 33.0974C133.987 32.6188 134.084 32.2372 134.181 31.7643C134.283 31.7643 134.283 31.7643 134.38 31.7643C134.38 32.7157 134.38 33.7639 134.38 34.7152C134.283 34.7152 134.283 34.7152 134.181 34.7152C133.987 34.3335 133.987 33.9518 133.89 33.479Z" fill="white"/>
<path d="M99.8874 33.1885C99.8874 34.1455 99.1069 34.9031 98.3322 34.812C97.4549 34.7151 96.9707 34.1455 96.9707 33.2853C96.9707 32.4308 97.7511 31.6675 98.5259 31.7643C99.4032 31.8554 99.7905 32.4308 99.8874 33.1885ZM99.8874 33.2853C99.2038 32.7156 98.8164 32.2371 98.429 32.146C98.1385 32.146 97.4549 32.8125 97.5575 33.0973C97.5575 33.479 98.0417 34.1455 98.429 34.2366C98.7196 34.3335 99.2038 33.7638 99.8874 33.2853Z" fill="white"/>
<path d="M120.19 33.0973C120.19 33.9518 119.512 34.812 118.738 34.812C117.86 34.7152 117.376 34.1455 117.279 33.2853C117.182 32.4308 117.957 31.6675 118.738 31.6675C119.609 31.7643 119.997 32.334 120.19 33.0973ZM118.538 34.5215C118.738 34.5215 118.834 34.5215 119.028 34.5215C119.222 34.0487 119.706 33.5701 119.609 33.1942C119.609 32.8125 119.028 32.5277 118.641 32.146C118.344 32.5277 117.763 32.9036 117.667 33.2853C117.763 33.667 118.248 34.1455 118.538 34.5215Z" fill="white"/>
<path d="M141.86 33.0973C141.86 33.9518 141.176 34.812 140.402 34.812C139.53 34.7152 139.04 34.1455 138.943 33.2853C138.847 32.4308 139.627 31.6675 140.402 31.6675C141.279 31.7643 141.763 32.334 141.86 33.0973ZM140.595 31.9523C140.402 31.9523 140.305 31.9523 140.111 31.9523C139.821 32.4308 139.428 32.8125 139.428 33.2853C139.428 33.667 140.014 34.0487 140.305 34.4303C140.692 34.0487 141.279 33.667 141.279 33.2853C141.376 32.8125 140.886 32.4308 140.595 31.9523Z" fill="white"/>
<path d="M62.3808 33.2853C62.3808 34.1455 61.6061 34.9031 60.8313 34.812C59.9541 34.7151 59.4698 34.1455 59.4698 33.2853C59.4698 32.4308 60.2446 31.6675 61.025 31.7643C61.7029 31.7643 62.3808 32.4308 62.3808 33.2853ZM61.1219 31.9523C60.9282 31.9523 60.8313 31.9523 60.632 31.9523C60.4383 32.4308 59.9541 32.9036 59.9541 33.2853C59.9541 33.667 60.5351 34.0486 60.9282 34.3335C61.2187 33.9518 61.7998 33.5701 61.8966 33.1885C61.8966 32.8125 61.4124 32.334 61.1219 31.9523Z" fill="white"/>
<path d="M82.6892 33.2853C82.6892 34.1455 81.9145 34.9032 81.1341 34.812C80.2625 34.7152 79.7726 34.0487 79.7726 33.1942C79.7726 32.334 80.2625 31.7643 81.2309 31.6675C81.9145 31.6675 82.6892 32.4308 82.6892 33.2853ZM81.4246 31.9523C81.2309 31.9523 81.1341 31.9523 80.9404 31.9523C80.7467 32.4308 80.2625 32.8125 80.2625 33.2853C80.2625 33.667 80.8435 34.0487 81.1341 34.3335C81.5214 33.9518 82.0114 33.5701 82.1082 33.1942C82.205 32.8125 81.6183 32.334 81.4246 31.9523Z" fill="white"/>
<path d="M69.2792 34.4303C68.5045 34.9999 67.8266 34.9031 67.3367 34.2366C66.7556 33.6669 66.7556 32.9036 67.3367 32.2371C67.8266 31.6674 68.4076 31.4794 69.4729 32.0491C68.3108 32.0491 67.4335 32.2371 67.5304 33.3821C67.5304 34.4303 68.3108 34.5214 69.2792 34.4303Z" fill="white"/>
<path d="M106.883 32.146C105.618 32.0492 104.843 32.2372 104.843 33.3822C104.94 34.4304 105.812 34.6184 106.689 34.5215C105.909 35.0969 105.231 34.9032 104.65 34.3335C104.16 33.7639 104.16 33.0005 104.65 32.334C105.328 31.6675 105.909 31.4795 106.883 32.146Z" fill="white"/>
<path d="M113.098 31.7643C111.349 32.334 112.807 33.855 111.839 35C111.839 34.1455 111.936 33.5702 111.839 33.0005C111.742 32.522 111.451 32.146 111.155 31.7643C111.742 31.7643 112.42 31.7643 113.098 31.7643Z" fill="white"/>
<path d="M73.4608 31.7643C74.1387 31.7643 74.8223 31.7643 75.3065 31.7643C75.1128 32.2372 74.8223 32.6188 74.7198 33.0974C74.6229 33.5702 74.7198 34.1455 74.7198 34.9032C73.8482 33.9518 75.2097 32.334 73.4608 31.7643Z" fill="white"/>
</g>
<defs>
<clipPath id="clip0_1_73">
<rect width="188.125" height="35" fill="white" transform="translate(0.395996)"/>
</clipPath>
</defs>
</svg>
