<svg width="189" height="35" viewBox="0 0 189 35" fill="none" xmlns="http://www.w3.org/2000/svg">
<g clip-path="url(#clip0_133_73)">
<path d="M67.1346 11.6724C67.1346 17.9557 61.7912 23.1966 55.3825 23.0998C48.9681 23.0998 43.6247 17.7677 43.7215 11.5812C43.7215 5.29785 49.0649 0.153809 55.5762 0.153809C61.888 0.153809 67.2314 5.389 67.1346 11.6724ZM55.4793 19.3856C59.6549 19.3856 63.3463 15.8651 63.4432 11.7692C63.4432 7.58219 59.8486 4.05599 55.673 3.96484C51.298 3.96484 47.7034 7.38851 47.6066 11.5812C47.5098 15.7682 51.1043 19.2887 55.4793 19.3856Z" fill="#101010"/>
<path d="M21.4707 0.250977C21.4707 7.9585 21.4707 15.29 21.4707 23.0033C16.1273 18.3377 10.8807 13.769 5.44043 9.00667C5.44043 10.1517 5.44043 10.915 5.44043 11.6727C5.44043 14.2476 5.44043 16.8167 5.44043 19.2891C5.44043 19.6707 5.34359 20.1493 5.1499 20.4341C4.07894 21.2886 3.01367 22.1488 1.74902 23.1001C1.74902 15.3869 1.74902 7.9585 1.74902 0.250977C7.09245 5.10449 12.339 9.77002 17.8761 14.7204C17.8761 13.957 17.8761 13.5811 17.8761 13.1994C17.8761 10.1517 17.8761 7.00716 17.8761 3.96517C17.8761 3.48665 18.1667 2.91699 18.5597 2.53532C19.3345 1.77197 20.3086 1.10547 21.4707 0.250977Z" fill="#101010"/>
<path d="M107.558 23.0031C107.262 23.0999 107.262 23.0999 107.262 23.0999C103.473 23.2879 103.473 23.2879 101.724 20.0522C100.659 18.1496 99.6851 16.3381 98.6141 14.4354C98.4204 14.0537 97.8394 13.7689 97.3551 13.672C96.0905 13.5809 94.8258 13.672 93.3675 13.672C93.3675 16.8166 93.3675 19.8643 93.3675 23.0031C92.0117 23.0031 90.7471 23.0031 89.4824 23.0031C89.4824 18.6224 89.4824 14.3385 89.4824 9.8667C90.0692 9.8667 90.6502 9.8667 91.2313 9.8667C94.2448 9.8667 97.2583 9.8667 100.363 9.8667C102.408 9.8667 103.473 8.81852 103.473 6.81901C103.473 4.91634 102.505 3.86816 100.46 3.86816C97.3551 3.86816 94.2448 3.86816 91.1344 3.86816C90.7471 3.86816 90.3597 3.86816 89.9666 3.86816C89.9666 3.77132 89.8698 3.67448 89.8698 3.58333C91.3281 2.43831 92.8833 1.29899 94.4385 0.153972C94.5353 0.153972 94.6322 0.0571289 94.6322 0.0571289C97.3551 0.153972 100.072 -0.0340169 102.699 0.438802C106.003 1.10531 107.751 4.34098 107.262 7.95833C106.874 10.7212 105.416 12.7207 102.505 13.7689C104.157 16.9134 105.809 19.9554 107.558 23.0031Z" fill="#101010"/>
<path d="M170.511 0.250977C175.564 0.250977 180.617 0.250977 185.96 0.250977C184.308 1.48714 182.856 2.63216 181.301 3.77149C181.004 3.96517 180.52 3.96517 180.23 3.96517C178.287 3.96517 176.441 3.96517 174.402 3.96517C174.402 5.86784 174.402 7.77051 174.402 9.77002C177.216 9.77002 180.036 9.77002 182.856 9.77002C182.856 11.103 182.856 12.248 182.856 13.5811C180.036 13.5811 177.216 13.5811 174.402 13.5811C174.402 15.5806 174.402 17.3864 174.402 19.3859C176.926 19.3859 179.358 19.3859 181.882 19.3859C182.753 19.3859 183.243 19.5739 183.727 20.2404C184.405 21.1974 185.186 22.0519 185.96 23.1001C180.714 23.1001 175.661 23.1001 170.511 23.1001C170.511 15.4837 170.511 7.86735 170.511 0.250977Z" fill="#101010"/>
<path d="M148.072 0.153923C147.679 0.632439 147.485 0.917269 147.195 1.2021C144.671 4.24979 142.142 7.29748 139.521 10.3395C138.935 11.006 138.838 11.4845 139.521 12.2478C142.142 15.3867 144.671 18.6223 147.195 21.8637C147.485 22.2397 147.781 22.5302 148.169 23.0999C146.517 23.0999 145.058 23.0999 143.6 23.0999C143.31 23.0999 142.922 22.8151 142.729 22.6214C139.715 18.9129 136.798 15.1018 133.688 11.2908C136.217 8.24881 138.838 5.29797 141.27 2.15343C142.529 0.535596 143.891 -0.227751 145.93 0.0570801C146.517 0.250765 147.195 0.153923 148.072 0.153923Z" fill="#101010"/>
<path d="M133.591 0.250977C133.591 8.05534 133.591 15.5806 133.591 23.1001C132.333 23.1001 131.165 23.1001 129.9 23.1001C129.9 22.7184 129.803 22.2399 129.803 21.7671C129.803 15.8654 129.803 9.95801 129.9 3.96517C129.9 3.48665 130.287 2.82015 130.681 2.43848C131.455 1.77197 132.429 1.10547 133.591 0.250977Z" fill="#101010"/>
<path d="M187.516 33.667C177.119 33.667 166.723 33.667 156.327 33.667C156.327 33.479 156.327 33.3822 156.327 33.1885C166.723 33.2853 177.119 33.0973 187.516 33.2853C187.516 33.3822 187.516 33.5701 187.516 33.667Z" fill="#101010"/>
<path d="M31.189 33.667C20.7926 33.667 10.3963 33.667 0 33.667C0 33.5701 0 33.5701 0 33.479C0.77474 33.3822 1.55518 33.1885 2.32992 33.1885C11.5641 33.1885 20.7926 33.1885 30.0212 33.1885C30.4085 33.1885 30.8016 33.2853 31.189 33.2853C31.189 33.3822 31.189 33.5701 31.189 33.667Z" fill="#101010"/>
<path d="M90.4564 31.7646C90.8437 31.7646 91.328 31.7646 91.9147 31.7646C92.0116 32.904 92.2052 33.9521 92.3021 35.0003C91.5216 35.0003 90.5532 35.0003 89.5791 35.0003C89.8696 34.049 90.1659 33.0008 90.4564 31.7646ZM90.4564 34.5218C91.0374 34.3338 91.5216 34.237 91.6185 34.049C91.7153 33.4793 91.6185 32.8128 91.5216 32.1463C91.2311 32.2375 90.8438 32.2375 90.7469 32.4312C90.5532 33.0977 90.5532 33.6673 90.4564 34.5218Z" fill="#101010"/>
<path d="M52.853 31.6678C53.2404 31.6678 53.6335 31.5709 53.924 31.7646C54.2145 31.9526 54.6019 32.3343 54.6987 32.6191C54.6987 32.9039 54.4082 33.2856 54.1177 33.5704C53.7303 33.9521 53.3429 34.1458 52.9499 34.4306C52.853 33.7641 52.853 32.7159 52.853 31.6678Z" fill="#101010"/>
<path d="M126.886 31.3828C126.886 32.7158 126.886 33.6672 126.886 34.7153C126.789 34.7153 126.698 34.7153 126.596 34.7153C126.499 34.1457 126.499 33.5703 126.402 32.619C125.724 33.4792 125.24 34.1457 124.459 35.0002C124.459 33.6672 124.459 32.7158 124.459 31.6676C124.556 31.6676 124.653 31.6676 124.75 31.6676C124.75 32.2373 124.847 32.8127 124.949 33.764C125.724 33.0007 126.208 32.3341 126.886 31.3828Z" fill="#101010"/>
<path d="M47.5098 32.1463C47.0256 32.1463 46.735 32.1463 46.2451 32.1463C46.2451 33.0008 46.1483 33.8553 46.1483 34.7155C46.0514 34.7155 46.0514 34.7155 45.9546 34.7155C45.9546 33.7642 45.9546 32.8128 45.9546 31.7646C46.5413 31.7646 47.2192 31.7646 47.994 31.7646C47.994 32.716 47.994 33.7642 47.994 34.7155C47.8971 34.7155 47.8003 34.7155 47.7035 34.7155C47.6066 33.8553 47.6066 33.0008 47.5098 32.1463Z" fill="#101010"/>
<path d="M133.494 33.4793C133.107 33.4793 132.72 33.4793 132.332 33.4793C132.235 33.9521 132.139 34.3338 132.036 34.7155C131.939 34.7155 131.939 34.7155 131.842 34.7155C131.842 33.7642 131.842 32.716 131.842 31.7646C131.939 31.7646 131.939 31.7646 132.036 31.7646C132.139 32.1463 132.235 32.5223 132.332 33.0008C132.72 33.0008 133.107 33.0008 133.494 33.0977C133.591 32.6191 133.688 32.2375 133.785 31.7646C133.887 31.7646 133.887 31.7646 133.984 31.7646C133.984 32.716 133.984 33.7642 133.984 34.7155C133.887 34.7155 133.887 34.7155 133.785 34.7155C133.591 34.3338 133.591 33.9521 133.494 33.4793Z" fill="#101010"/>
<path d="M99.4914 33.1883C99.4914 34.1454 98.7109 34.903 97.9362 34.8119C97.0589 34.715 96.5747 34.1454 96.5747 33.2852C96.5747 32.4307 97.3551 31.6673 98.1299 31.7642C99.0072 31.8553 99.3945 32.4307 99.4914 33.1883ZM99.4914 33.2852C98.8078 32.7155 98.4204 32.237 98.033 32.1459C97.7425 32.1459 97.0589 32.8124 97.1615 33.0972C97.1615 33.4789 97.6457 34.1454 98.033 34.2365C98.3236 34.3334 98.8078 33.7637 99.4914 33.2852Z" fill="#101010"/>
<path d="M119.794 33.0973C119.794 33.9518 119.116 34.812 118.342 34.812C117.464 34.7152 116.98 34.1455 116.883 33.2853C116.786 32.4308 117.561 31.6675 118.342 31.6675C119.213 31.7643 119.601 32.334 119.794 33.0973ZM118.142 34.5215C118.342 34.5215 118.438 34.5215 118.632 34.5215C118.826 34.0487 119.31 33.5701 119.213 33.1942C119.213 32.8125 118.632 32.5277 118.245 32.146C117.948 32.5277 117.367 32.9036 117.271 33.2853C117.367 33.667 117.852 34.1455 118.142 34.5215Z" fill="#101010"/>
<path d="M141.464 33.0973C141.464 33.9518 140.78 34.812 140.006 34.812C139.134 34.7152 138.644 34.1455 138.547 33.2853C138.45 32.4308 139.231 31.6675 140.006 31.6675C140.883 31.7643 141.367 32.334 141.464 33.0973ZM140.199 31.9523C140.006 31.9523 139.909 31.9523 139.715 31.9523C139.425 32.4308 139.031 32.8125 139.031 33.2853C139.031 33.667 139.618 34.0487 139.909 34.4303C140.296 34.0487 140.883 33.667 140.883 33.2853C140.98 32.8125 140.49 32.4308 140.199 31.9523Z" fill="#101010"/>
<path d="M61.9847 33.2852C61.9847 34.1454 61.21 34.903 60.4352 34.8119C59.5579 34.715 59.0737 34.1454 59.0737 33.2852C59.0737 32.4307 59.8485 31.6673 60.6289 31.7642C61.3068 31.7642 61.9847 32.4307 61.9847 33.2852ZM60.7257 31.9522C60.5321 31.9522 60.4352 31.9522 60.2358 31.9522C60.0422 32.4307 59.5579 32.9035 59.5579 33.2852C59.5579 33.6668 60.139 34.0485 60.5321 34.3334C60.8226 33.9517 61.4036 33.57 61.5005 33.1883C61.5005 32.8124 61.0163 32.3338 60.7257 31.9522Z" fill="#101010"/>
<path d="M82.2931 33.2853C82.2931 34.1455 81.5184 34.9032 80.738 34.812C79.8664 34.7152 79.3765 34.0487 79.3765 33.1942C79.3765 32.334 79.8664 31.7643 80.8348 31.6675C81.5184 31.6675 82.2931 32.4308 82.2931 33.2853ZM81.0285 31.9523C80.8348 31.9523 80.738 31.9523 80.5443 31.9523C80.3506 32.4308 79.8664 32.8125 79.8664 33.2853C79.8664 33.667 80.4474 34.0487 80.738 34.3335C81.1253 33.9518 81.6152 33.5701 81.7121 33.1942C81.8089 32.8125 81.2222 32.334 81.0285 31.9523Z" fill="#101010"/>
<path d="M68.8832 34.4305C68.1085 35.0001 67.4306 34.9033 66.9407 34.2368C66.3596 33.6671 66.3596 32.9038 66.9407 32.2373C67.4306 31.6676 68.0116 31.4796 69.0769 32.0493C67.9148 32.0493 67.0375 32.2373 67.1344 33.3823C67.1344 34.4305 67.9148 34.5216 68.8832 34.4305Z" fill="#101010"/>
<path d="M106.487 32.1462C105.222 32.0493 104.447 32.2373 104.447 33.3823C104.544 34.4305 105.416 34.6185 106.293 34.5217C105.513 35.097 104.835 34.9033 104.254 34.3337C103.764 33.764 103.764 33.0007 104.254 32.3342C104.932 31.6677 105.513 31.4797 106.487 32.1462Z" fill="#101010"/>
<path d="M112.702 31.7646C110.953 32.3343 112.411 33.8553 111.443 35.0003C111.443 34.1458 111.54 33.5705 111.443 33.0008C111.346 32.5223 111.056 32.1463 110.759 31.7646C111.346 31.7646 112.024 31.7646 112.702 31.7646Z" fill="#101010"/>
<path d="M73.0649 31.7646C73.7428 31.7646 74.4264 31.7646 74.9106 31.7646C74.717 32.2375 74.4264 32.6191 74.3239 33.0977C74.2271 33.5705 74.3239 34.1458 74.3239 34.9035C73.4523 33.9521 74.8138 32.3343 73.0649 31.7646Z" fill="#101010"/>
</g>
<defs>
<clipPath id="clip0_133_73">
<rect width="188.125" height="35" fill="white"/>
</clipPath>
</defs>
</svg>
