<svg width="296" height="50" viewBox="0 0 296 50" fill="none" xmlns="http://www.w3.org/2000/svg">
<path d="M31.4902 33.3472C31.4902 32.3245 31.4098 31.5202 31.2489 30.9342C31.088 30.3481 30.7261 29.9172 30.163 29.6415C29.6 29.3542 28.7267 29.1704 27.5431 29.0899C26.3596 28.998 24.7394 28.9348 22.6826 28.9003L13.0994 28.7624C10.7323 28.728 8.83058 28.5843 7.39425 28.3315C5.95791 28.0787 4.87204 27.6823 4.13664 27.1423C3.40124 26.5907 2.90714 25.8553 2.65435 24.936C2.41304 24.0168 2.29239 22.8677 2.29239 21.4888C2.29239 19.9836 2.459 18.7426 2.79223 17.7659C3.13695 16.7892 3.7517 16.025 4.63649 15.4735C5.53276 14.9219 6.79673 14.537 8.42841 14.3187C10.0601 14.0888 12.1686 13.9739 14.754 13.9739H22.131C24.4751 13.9739 26.4285 14.0486 27.9913 14.198C29.554 14.3474 30.795 14.6921 31.7143 15.2322C32.6335 15.7722 33.2885 16.611 33.6792 17.7486C34.0813 18.8862 34.2824 20.4489 34.2824 22.4368H30.9731C30.9731 20.8971 30.8237 19.7365 30.525 18.9551C30.2377 18.1623 29.7551 17.6222 29.0771 17.335C28.4107 17.0477 27.5087 16.8926 26.3711 16.8696C25.2335 16.8466 23.8202 16.8351 22.131 16.8351H14.9264C12.8696 16.8351 11.2206 16.8753 9.97965 16.9558C8.75015 17.0362 7.8194 17.2201 7.18742 17.5073C6.55543 17.7946 6.13027 18.2542 5.91195 18.8862C5.70512 19.5182 5.6017 20.3857 5.6017 21.4888C5.6017 22.4196 5.67639 23.1665 5.82577 23.7295C5.97515 24.2926 6.30838 24.7235 6.82546 25.0222C7.35403 25.3095 8.16412 25.5106 9.25574 25.6255C10.3473 25.7289 11.8354 25.7921 13.7199 25.8151L23.9925 25.953C26.4056 25.9874 28.3303 26.1311 29.7666 26.3839C31.2144 26.6252 32.2945 27.0216 33.007 27.5732C33.7309 28.1247 34.2077 28.8716 34.4375 29.8138C34.6788 30.7446 34.7995 31.9224 34.7995 33.3472C34.7995 34.8985 34.6501 36.2026 34.3514 37.2598C34.0641 38.3054 33.5011 39.1443 32.6622 39.7762C31.8234 40.4082 30.6111 40.8621 29.0254 41.1379C27.4397 41.4137 25.3542 41.5516 22.7688 41.5516H14.7023C12.3467 41.5516 10.3703 41.4481 8.77313 41.2413C7.17592 41.0345 5.90046 40.6208 4.94673 40.0003C4.0045 39.3683 3.32655 38.4318 2.91289 37.1908C2.49922 35.9498 2.29239 34.2952 2.29239 32.2269H5.6017C5.6017 33.8471 5.73385 35.0995 5.99813 35.9843C6.26242 36.8691 6.72204 37.5068 7.37701 37.8975C8.04347 38.2767 8.96847 38.5065 10.152 38.587C11.347 38.6559 12.8638 38.6904 14.7023 38.6904H22.5964C24.6532 38.6904 26.2792 38.6272 27.4742 38.5008C28.6692 38.3629 29.554 38.1101 30.1285 37.7424C30.7031 37.3632 31.0708 36.8231 31.2316 36.1222C31.404 35.4213 31.4902 34.4963 31.4902 33.3472ZM119.945 41.5516C117.36 41.5516 115.234 41.3734 113.568 41.0172C111.902 40.6725 110.598 40.029 109.655 39.0868C108.725 38.1446 108.07 36.7887 107.691 35.0191C107.323 33.2495 107.139 30.9457 107.139 28.1075V14.5255H110.448V28.1075C110.448 30.0609 110.517 31.6811 110.655 32.968C110.793 34.255 111.052 35.2834 111.431 36.0533C111.81 36.8231 112.35 37.3977 113.051 37.7769C113.763 38.1561 114.683 38.4031 115.809 38.518C116.935 38.6329 118.314 38.6904 119.945 38.6904H126.185C127.828 38.6904 129.207 38.6329 130.321 38.518C131.448 38.4031 132.361 38.1561 133.062 37.7769C133.774 37.3977 134.32 36.8231 134.699 36.0533C135.079 35.2834 135.337 34.255 135.475 32.968C135.613 31.6811 135.682 30.0609 135.682 28.1075V14.5255H138.991V28.1075C138.991 30.9457 138.802 33.2495 138.422 35.0191C138.055 36.7887 137.4 38.1446 136.457 39.0868C135.527 40.029 134.228 40.6725 132.562 41.0172C130.896 41.3734 128.77 41.5516 126.185 41.5516H119.945ZM144.714 14.5255H162.432C165.018 14.5255 167.097 14.6404 168.672 14.8702C170.257 15.1 171.458 15.4965 172.274 16.0595C173.09 16.6225 173.641 17.3924 173.929 18.3691C174.216 19.3458 174.359 20.5811 174.359 22.0749V22.7643C174.359 24.1432 174.193 25.3325 173.86 26.3322C173.538 27.3204 172.912 28.1247 171.981 28.7452C171.05 29.3542 169.671 29.7851 167.844 30.0379L173.601 41H170.292L164.656 30.2792C164.426 30.2907 164.184 30.2964 163.932 30.2964C163.69 30.2964 163.438 30.2964 163.173 30.2964H148.023V41H144.714V14.5255ZM148.023 27.4353H162.656C164.621 27.4353 166.167 27.3721 167.293 27.2457C168.43 27.1078 169.263 26.8722 169.792 26.539C170.332 26.2058 170.677 25.7346 170.826 25.1256C170.975 24.5166 171.05 23.7295 171.05 22.7643V22.0749C171.05 20.9833 170.947 20.1214 170.74 19.4895C170.533 18.8575 170.119 18.3921 169.499 18.0933C168.878 17.7946 167.953 17.605 166.724 17.5246C165.494 17.4326 163.851 17.3867 161.794 17.3867H148.023V27.4353ZM180.633 41V14.5255H183.943V41H180.633ZM189.458 41V38.2422L215.071 17.2833H190.561V14.5255H219.794V17.2833L194.043 38.2422H220.345V41H189.458ZM262.884 14.5255H280.602C283.188 14.5255 285.267 14.6404 286.842 14.8702C288.427 15.1 289.628 15.4965 290.444 16.0595C291.26 16.6225 291.811 17.3924 292.099 18.3691C292.386 19.3458 292.53 20.5811 292.53 22.0749V22.7643C292.53 24.1432 292.363 25.3325 292.03 26.3322C291.708 27.3204 291.082 28.1247 290.151 28.7452C289.22 29.3542 287.841 29.7851 286.014 30.0379L291.771 41H288.462L282.826 30.2792C282.596 30.2907 282.355 30.2964 282.102 30.2964C281.86 30.2964 281.608 30.2964 281.343 30.2964H266.193V41H262.884V14.5255ZM266.193 27.4353H280.826C282.791 27.4353 284.337 27.3721 285.463 27.2457C286.6 27.1078 287.433 26.8722 287.962 26.539C288.502 26.2058 288.847 25.7346 288.996 25.1256C289.146 24.5166 289.22 23.7295 289.22 22.7643V22.0749C289.22 20.9833 289.117 20.1214 288.91 19.4895C288.703 18.8575 288.289 18.3921 287.669 18.0933C287.048 17.7946 286.123 17.605 284.894 17.5246C283.664 17.4326 282.021 17.3867 279.964 17.3867H266.193V27.4353Z" fill="#101010"/>
<rect x="40.1172" y="14.8682" width="26.0901" height="3.08592" fill="#101010"/>
<rect x="40.1172" y="26.3711" width="26.0901" height="3.08592" fill="#101010"/>
<rect x="40.1172" y="37.873" width="26.0901" height="3.08592" fill="#101010"/>
<path d="M257.245 29.5508C257.193 31.7788 257.011 33.633 256.693 35.1133C256.326 36.8827 255.671 38.2384 254.729 39.1807C253.798 40.1229 252.499 40.7666 250.833 41.1113C249.167 41.4675 247.041 41.6455 244.456 41.6455H237.51C234.925 41.6455 232.799 41.4675 231.133 41.1113C229.467 40.7666 228.162 40.1229 227.22 39.1807C226.289 38.2384 225.634 36.8827 225.255 35.1133C224.947 33.633 224.77 31.7788 224.72 29.5508H228.025C228.051 30.9138 228.115 32.0844 228.22 33.0625C228.358 34.3492 228.61 35.3776 228.978 36.1475C229.357 36.9172 229.897 37.4919 230.598 37.8711C231.31 38.2502 232.23 38.4974 233.355 38.6123C234.482 38.7272 235.867 38.7852 237.51 38.7852H244.456C246.099 38.7852 247.483 38.7272 248.609 38.6123C249.735 38.4974 250.65 38.2503 251.351 37.8711C252.063 37.4919 252.603 36.9172 252.971 36.1475C253.35 35.3776 253.608 34.3493 253.746 33.0625C253.851 32.0844 253.915 30.9138 253.94 29.5508H257.245ZM244.456 14.0684C246.524 14.0684 248.294 14.166 249.765 14.3613C251.235 14.5452 252.454 14.9011 253.419 15.4297C254.396 15.9583 255.166 16.723 255.729 17.7227C256.291 18.7222 256.687 20.0204 256.917 21.6172C257.112 22.9607 257.223 24.5769 257.253 26.4648H253.943C253.923 24.9073 253.859 23.5901 253.746 22.5137C253.608 21.2038 253.35 20.1695 252.971 19.4111C252.603 18.6529 252.063 18.1015 251.351 17.7568C250.65 17.4006 249.735 17.1769 248.609 17.085C247.483 16.9816 246.099 16.9297 244.456 16.9297H237.51C235.867 16.9297 234.482 16.9815 233.355 17.085C232.23 17.1769 231.31 17.4007 230.598 17.7568C229.897 18.1016 229.357 18.6529 228.978 19.4111C228.61 20.1695 228.358 21.2039 228.22 22.5137C228.106 23.5901 228.042 24.9073 228.021 26.4648H224.713C224.743 24.5769 224.853 22.9607 225.048 21.6172C225.278 20.0203 225.674 18.7222 226.237 17.7227C226.8 16.723 227.564 15.9583 228.529 15.4297C229.506 14.9011 230.73 14.5452 232.201 14.3613C233.672 14.166 235.442 14.0684 237.51 14.0684H244.456Z" fill="#101010"/>
<path d="M70.0968 28.1075V27.418C70.0968 25.0739 70.2117 23.109 70.4416 21.5233C70.6714 19.9261 71.0678 18.6277 71.6308 17.628C72.1939 16.6283 72.958 15.8642 73.9232 15.3356C74.8999 14.807 76.1237 14.4508 77.5945 14.267C79.0653 14.0716 80.8349 13.9739 82.9032 13.9739H89.8493C92.2164 13.9739 94.21 14.0888 95.8302 14.3187C97.4619 14.537 98.7718 14.9794 99.76 15.6458C100.76 16.3008 101.484 17.2718 101.932 18.5587C102.38 19.8342 102.604 21.5291 102.604 23.6433H99.2946C99.2946 21.9772 99.1453 20.6845 98.8465 19.7652C98.5477 18.8345 98.0421 18.1623 97.3297 17.7486C96.6288 17.335 95.6693 17.0822 94.4513 16.9902C93.2333 16.8868 91.6993 16.8351 89.8493 16.8351H82.9032C81.26 16.8351 79.8754 16.8868 78.7493 16.9902C77.6232 17.0822 76.704 17.3062 75.9915 17.6624C75.2906 18.0072 74.7506 18.5587 74.3714 19.3171C74.0037 20.0755 73.7509 21.1096 73.613 22.4196C73.4751 23.7295 73.4061 25.3957 73.4061 27.418V28.1075C73.4061 30.0609 73.4751 31.6811 73.613 32.968C73.7509 34.255 74.0037 35.2834 74.3714 36.0533C74.7506 36.8231 75.2906 37.3977 75.9915 37.7769C76.704 38.1561 77.6232 38.4031 78.7493 38.518C79.8754 38.6329 81.26 38.6904 82.9032 38.6904H89.8493C91.6993 38.6904 93.2333 38.6502 94.4513 38.5697C95.6693 38.4893 96.6288 38.2537 97.3297 37.863C98.0421 37.4724 98.5477 36.8231 98.8465 35.9154C99.1453 34.9961 99.2946 33.7092 99.2946 32.0545H102.604C102.604 34.1688 102.38 35.8579 101.932 37.1219C101.484 38.3859 100.76 39.3396 99.76 39.9831C98.7718 40.6151 97.4619 41.0345 95.8302 41.2413C94.21 41.4481 92.2164 41.5516 89.8493 41.5516H82.9032C80.3178 41.5516 78.192 41.3734 76.5259 41.0172C74.8597 40.6725 73.5555 40.029 72.6133 39.0868C71.6825 38.1446 71.0276 36.7887 70.6484 35.0191C70.2807 33.2495 70.0968 30.9457 70.0968 28.1075Z" fill="#101010"/>
<path d="M99.293 24.9678H102.537M102.537 24.9678C102.696 24.9678 102.519 24.9678 102.537 24.9678Z" stroke="#101010" stroke-width="2.80538"/>
<path d="M99.293 30.8594H102.537M102.537 30.8594C102.696 30.8594 102.519 30.8594 102.537 30.8594Z" stroke="#101010" stroke-width="2.80538"/>
</svg>
