<svg width="210" height="210" viewBox="0 0 210 210" fill="none" xmlns="http://www.w3.org/2000/svg">
<g clip-path="url(#clip0_1_110)">
<path d="M219.083 43.3331L198.25 64.1665M198.25 64.1665L182.625 25.6248C181.151 21.6804 178.517 18.2751 175.069 15.8577C171.622 13.4403 167.523 12.1243 163.312 12.0831H87.833C83.5883 11.9856 79.415 13.1874 75.8723 15.5276C72.3295 17.8677 69.5863 21.2344 68.0101 25.1769L52.4163 64.1665M198.25 64.1665H52.4163M198.25 64.1665C209.756 64.1665 219.083 73.4939 219.083 84.9998V126.666C219.083 138.172 209.756 147.5 198.25 147.5M52.4163 64.1665L31.583 43.3331M52.4163 64.1665C40.9104 64.1665 31.583 73.4939 31.583 84.9998V126.666C31.583 138.172 40.9104 147.5 52.4163 147.5M73.2497 105.833H73.3538M177.416 105.833H177.521M198.25 147.5H52.4163M198.25 147.5V168.333M52.4163 147.5V168.333" stroke="url(#paint0_linear_1_110)" stroke-width="20" stroke-linecap="round" stroke-linejoin="round"/>
<path d="M219.083 43.3331L198.25 64.1665M198.25 64.1665L182.625 25.6248C181.151 21.6804 178.517 18.2751 175.069 15.8577C171.622 13.4403 167.523 12.1243 163.312 12.0831H87.833C83.5883 11.9856 79.415 13.1874 75.8723 15.5276C72.3295 17.8677 69.5863 21.2344 68.0101 25.1769L52.4163 64.1665M198.25 64.1665H52.4163M198.25 64.1665C209.756 64.1665 219.083 73.4939 219.083 84.9998V126.666C219.083 138.172 209.756 147.5 198.25 147.5M52.4163 64.1665L31.583 43.3331M52.4163 64.1665C40.9104 64.1665 31.583 73.4939 31.583 84.9998V126.666C31.583 138.172 40.9104 147.5 52.4163 147.5M73.2497 105.833H73.3538M177.416 105.833H177.521M198.25 147.5H52.4163M198.25 147.5V168.333M52.4163 147.5V168.333" stroke="url(#paint1_linear_1_110)" stroke-opacity="0.5" stroke-width="20" stroke-linecap="round" stroke-linejoin="round"/>
<path d="M87.8975 3.08337H163.4C169.43 3.14233 175.299 5.02703 180.236 8.48865C185.115 11.9098 188.856 16.7133 190.979 22.2777L201.488 48.1986L212.719 36.9691C216.233 33.4544 221.933 33.4545 225.447 36.9691C228.962 40.4837 228.962 46.182 225.447 49.6967L214.901 60.2416C222.853 65.6003 228.083 74.6893 228.083 84.9994V126.666C228.083 140.006 219.327 151.299 207.25 155.117V168.333C207.25 173.304 203.22 177.333 198.25 177.333C193.28 177.333 189.25 173.304 189.25 168.333V156.499H61.416V168.333C61.4158 173.304 57.3865 177.333 52.416 177.333C47.4457 177.333 43.4162 173.304 43.416 168.333V155.117C31.3386 151.299 22.583 140.006 22.583 126.666V84.9994C22.5831 74.6896 27.8123 65.6003 35.7637 60.2416L25.2188 49.6967C21.7045 46.182 21.7043 40.4837 25.2188 36.9691C28.7334 33.4544 34.4325 33.4545 37.9473 36.9691L49.1279 48.1498L59.6533 21.8344C61.9105 16.1893 65.8392 11.3688 70.9121 8.01794C75.9458 4.69306 81.8681 2.97364 87.8975 3.08337ZM87.8877 3.58337C81.9596 3.47562 76.1366 5.16588 71.1875 8.43494C66.1994 11.7298 62.3365 16.47 60.1172 22.0209L49.3115 49.0404L37.5938 37.3226C34.2743 34.0032 28.8917 34.0032 25.5723 37.3226C22.2531 40.642 22.2532 46.0237 25.5723 49.3431L36.5518 60.3226C28.449 65.5426 23.0831 74.6443 23.083 84.9994V126.666C23.083 139.91 31.8611 151.102 43.916 154.746V168.333C43.9162 173.027 47.7219 176.833 52.416 176.833C57.1103 176.833 60.9158 173.028 60.916 168.333V155.999H189.75V168.333C189.75 173.028 193.556 176.833 198.25 176.833C202.944 176.833 206.75 173.028 206.75 168.333V154.746C218.805 151.102 227.583 139.911 227.583 126.666V84.9994C227.583 74.644 222.216 65.5425 214.113 60.3226L225.094 49.3431C228.413 46.0237 228.413 40.642 225.094 37.3226C221.774 34.0032 216.392 34.0032 213.072 37.3226L201.308 49.0863L190.52 22.474C188.433 16.9952 184.752 12.2654 179.949 8.89783C175.095 5.49428 169.324 3.64134 163.396 3.58337H87.8877ZM198.25 72.6664C205.061 72.6666 210.583 78.1881 210.583 84.9994V126.666C210.583 133.478 205.061 138.999 198.25 138.999H52.416C45.6047 138.999 40.083 133.478 40.083 126.666V84.9994C40.0832 78.1882 45.6048 72.6666 52.416 72.6664H198.25ZM52.416 73.1664C45.8809 73.1666 40.5832 78.4643 40.583 84.9994V126.666C40.583 133.202 45.8808 138.499 52.416 138.499H198.25C204.785 138.499 210.083 133.202 210.083 126.666V84.9994C210.083 78.4643 204.785 73.1666 198.25 73.1664H52.416ZM73.3535 96.8334C78.3241 96.8334 82.3535 100.863 82.3535 105.833C82.3533 110.804 78.324 114.833 73.3535 114.833H73.25C68.2796 114.833 64.2502 110.804 64.25 105.833C64.25 100.863 68.2795 96.8334 73.25 96.8334H73.3535ZM177.521 96.8334C182.491 96.8334 186.52 100.863 186.521 105.833C186.52 110.804 182.491 114.833 177.521 114.833H177.416C172.446 114.833 168.416 110.804 168.416 105.833C168.416 100.863 172.446 96.8336 177.416 96.8334H177.521ZM73.25 97.3334C68.5556 97.3334 64.75 101.139 64.75 105.833C64.7502 110.528 68.5557 114.333 73.25 114.333H73.3535C78.0478 114.333 81.8533 110.528 81.8535 105.833C81.8535 101.139 78.0479 97.3334 73.3535 97.3334H73.25ZM177.416 97.3334C172.722 97.3336 168.916 101.139 168.916 105.833C168.916 110.527 172.722 114.333 177.416 114.333H177.521C182.215 114.333 186.02 110.528 186.021 105.833C186.02 101.139 182.215 97.3334 177.521 97.3334H177.416ZM87.6377 20.5804C87.7027 20.5819 87.768 20.5834 87.833 20.5834H163.263C165.743 20.6144 168.158 21.3922 170.189 22.8168C172.23 24.2478 173.79 26.2641 174.662 28.599C174.689 28.6722 174.718 28.7454 174.747 28.8177L185.632 55.6664H64.9707L75.9023 28.3334V28.3324C76.8354 25.9985 78.4594 24.0049 80.5566 22.6195C82.6539 21.2342 85.1249 20.5228 87.6377 20.5804ZM87.626 21.0804C85.2151 21.0252 82.8452 21.7084 80.833 23.0375C78.8207 24.3667 77.2625 26.2787 76.3672 28.5179L76.3662 28.5189L65.709 55.1664H184.89L174.284 29.0062C174.253 28.9294 174.222 28.8514 174.193 28.7738C173.356 26.5337 171.86 24.5999 169.902 23.2269C167.954 21.8605 165.638 21.1136 163.259 21.0834H87.833C87.7641 21.0834 87.6948 21.082 87.626 21.0804Z" fill="url(#paint2_linear_1_110)"/>
</g>
<defs>
<linearGradient id="paint0_linear_1_110" x1="219.583" y1="12.0776" x2="87.9305" y2="206.282" gradientUnits="userSpaceOnUse">
<stop offset="0.2" stop-color="white" stop-opacity="0"/>
<stop offset="0.35" stop-color="white" stop-opacity="0.02"/>
<stop offset="0.5" stop-color="white" stop-opacity="0.1"/>
<stop offset="0.6" stop-color="white" stop-opacity="0.02"/>
<stop offset="0.7" stop-color="white" stop-opacity="0"/>
</linearGradient>
<linearGradient id="paint1_linear_1_110" x1="136.25" y1="52.7041" x2="102.866" y2="85.9123" gradientUnits="userSpaceOnUse">
<stop stop-color="white" stop-opacity="0"/>
<stop offset="0.5" stop-color="white" stop-opacity="0.1"/>
<stop offset="1" stop-color="white" stop-opacity="0"/>
</linearGradient>
<linearGradient id="paint2_linear_1_110" x1="210.65" y1="20.7828" x2="106.917" y2="156.534" gradientUnits="userSpaceOnUse">
<stop offset="0.355477" stop-color="#606060" stop-opacity="0"/>
<stop offset="0.603684" stop-color="#606060"/>
<stop offset="1" stop-color="#606060" stop-opacity="0"/>
</linearGradient>
<clipPath id="clip0_1_110">
<rect width="210" height="210" fill="white"/>
</clipPath>
</defs>
</svg>
