<svg width="215" height="229" viewBox="0 0 215 229" fill="none" xmlns="http://www.w3.org/2000/svg">
<g clip-path="url(#clip0_1_138)">
<path d="M146 0V41.6667C146 47.192 148.195 52.491 152.102 56.3981C156.009 60.3051 161.308 62.5 166.833 62.5H208.5M44.625 197.917C46.449 201.076 49.0707 203.701 52.2277 205.529C55.3848 207.357 58.9665 208.324 62.6146 208.333H187.667C193.192 208.333 198.491 206.138 202.398 202.231C206.305 198.324 208.5 193.025 208.5 187.5V52.0833L156.417 0H62.6667C57.1413 0 51.8423 2.19493 47.9353 6.10194C44.0283 10.0089 41.8333 15.308 41.8333 20.8333V52.0833M93.9167 166.667L78.2917 151.042M83.5 125C83.5 142.259 69.5089 156.25 52.25 156.25C34.9911 156.25 21 142.259 21 125C21 107.741 34.9911 93.75 52.25 93.75C69.5089 93.75 83.5 107.741 83.5 125Z" stroke="url(#paint0_linear_1_138)" stroke-width="20" stroke-linecap="round" stroke-linejoin="round"/>
<path d="M146 0V41.6667C146 47.192 148.195 52.491 152.102 56.3981C156.009 60.3051 161.308 62.5 166.833 62.5H208.5M44.625 197.917C46.449 201.076 49.0707 203.701 52.2277 205.529C55.3848 207.357 58.9665 208.324 62.6146 208.333H187.667C193.192 208.333 198.491 206.138 202.398 202.231C206.305 198.324 208.5 193.025 208.5 187.5V52.0833L156.417 0H62.6667C57.1413 0 51.8423 2.19493 47.9353 6.10194C44.0283 10.0089 41.8333 15.308 41.8333 20.8333V52.0833M93.9167 166.667L78.2917 151.042M83.5 125C83.5 142.259 69.5089 156.25 52.25 156.25C34.9911 156.25 21 142.259 21 125C21 107.741 34.9911 93.75 52.25 93.75C69.5089 93.75 83.5 107.741 83.5 125Z" stroke="url(#paint1_linear_1_138)" stroke-opacity="0.5" stroke-width="20" stroke-linecap="round" stroke-linejoin="round"/>
<path d="M156.863 -8.98926C159.087 -8.87884 161.198 -7.94623 162.78 -6.36426L214.864 45.7197C216.552 47.4074 217.5 49.6964 217.5 52.083V187.5C217.5 195.412 214.356 203.001 208.762 208.596C203.167 214.19 195.579 217.333 187.667 217.333H62.5918C57.3678 217.32 52.2386 215.935 47.7178 213.317C43.1972 210.7 39.443 206.941 36.8311 202.417C34.346 198.112 35.8204 192.607 40.125 190.122C44.4295 187.637 49.9337 189.113 52.4189 193.417C53.4549 195.211 54.9444 196.702 56.7373 197.74C58.5305 198.779 60.5656 199.328 62.6377 199.333H187.667C190.805 199.333 193.815 198.086 196.034 195.867C198.253 193.648 199.5 190.638 199.5 187.5V71.5H166.833C158.921 71.4999 151.333 68.3565 145.738 62.7617C140.144 57.167 137 49.5791 137 41.667V9H62.667C59.5287 9 56.518 10.2467 54.2988 12.4658C52.0799 14.6848 50.8332 17.6949 50.833 20.833V52.083C50.833 57.0536 46.8036 61.083 41.833 61.083C36.8626 61.0828 32.833 57.0535 32.833 52.083V20.833C32.8332 12.921 35.9767 5.33295 41.5713 -0.261719C47.1661 -5.85646 54.7548 -9 62.667 -9H156.417L156.863 -8.98926ZM62.834 -8.33301C55.0543 -8.33301 47.5929 -5.24228 42.0918 0.258789C36.5909 5.75976 33.5001 13.2205 33.5 21V52.25C33.5 56.9443 37.3057 60.7498 42 60.75C46.6944 60.75 50.5 56.9444 50.5 52.25V21C50.5001 17.7292 51.7995 14.5922 54.1123 12.2793C56.4253 9.96635 59.563 8.66699 62.834 8.66699H137.667V41.834C137.667 49.6136 140.758 57.0742 146.259 62.5752C151.76 68.0762 159.22 71.1669 167 71.167H200.167V187.667C200.167 190.938 198.868 194.075 196.555 196.388C194.242 198.701 191.105 200 187.834 200H62.8027C60.6432 199.994 58.5232 199.422 56.6543 198.34C54.7854 197.258 53.2332 195.704 52.1533 193.834C49.8061 189.768 44.6075 188.375 40.542 190.723C36.4766 193.07 35.0835 198.269 37.4307 202.334C39.9989 206.782 43.6907 210.478 48.1357 213.052C52.5807 215.626 57.6235 216.987 62.7598 217H187.834C195.613 217 203.074 213.91 208.575 208.409C214.076 202.908 217.167 195.447 217.167 187.667V52.25C217.167 49.9959 216.272 47.8342 214.678 46.2402L162.594 -5.84375C161.099 -7.33804 159.106 -8.21811 157.005 -8.32227L156.584 -8.33301H62.834ZM52.25 84.75C74.4794 84.75 92.4998 102.771 92.5 125C92.5 132.855 90.2465 140.183 86.3555 146.378L100.28 160.303C103.795 163.817 103.795 169.516 100.28 173.03C96.7656 176.545 91.0675 176.545 87.5527 173.03L73.6279 159.105C67.4332 162.997 60.1054 165.25 52.25 165.25C30.0205 165.25 12 147.229 12 125C12.0002 102.771 30.0206 84.75 52.25 84.75ZM52.417 85.417C30.4637 85.417 12.667 103.214 12.667 125.167C12.667 147.12 30.4637 164.917 52.417 164.917C60.3173 164.917 67.6782 162.611 73.8662 158.637L88.0732 172.844C91.3927 176.163 96.7743 176.163 100.094 172.844C103.413 169.524 103.413 164.143 100.094 160.823L85.8867 146.616C89.8605 140.428 92.167 133.067 92.167 125.167C92.167 103.214 74.3703 85.417 52.417 85.417ZM52.417 102.417C64.9815 102.417 75.167 112.603 75.167 125.167C75.167 137.731 64.9815 147.917 52.417 147.917C39.8525 147.917 29.667 137.731 29.667 125.167C29.667 112.603 39.8525 102.417 52.417 102.417ZM52.25 102.75C39.9618 102.75 30.0002 112.712 30 125C30 137.288 39.9617 147.25 52.25 147.25C64.5383 147.25 74.5 137.288 74.5 125C74.4998 112.712 64.5382 102.75 52.25 102.75ZM198.562 54.167H167C163.729 54.1669 160.592 52.8676 158.279 50.5547C155.966 48.2418 154.667 45.1049 154.667 41.834V10.2715L198.562 54.167ZM155 41.667C155 44.8052 156.247 47.8151 158.466 50.0342C160.685 52.2533 163.695 53.4999 166.833 53.5H197.188L155 11.3115V41.667Z" fill="url(#paint2_linear_1_138)"/>
</g>
<defs>
<linearGradient id="paint0_linear_1_138" x1="209" y1="-5.09783e-06" x2="21" y2="208" gradientUnits="userSpaceOnUse">
<stop stop-color="white" stop-opacity="0.02"/>
<stop offset="0.0973629" stop-color="white" stop-opacity="0"/>
<stop offset="0.5" stop-color="white" stop-opacity="0.1"/>
<stop offset="0.6" stop-color="white" stop-opacity="0.02"/>
<stop offset="0.7" stop-color="white" stop-opacity="0"/>
</linearGradient>
<linearGradient id="paint1_linear_1_138" x1="125.667" y1="54.1667" x2="83" y2="86" gradientUnits="userSpaceOnUse">
<stop stop-color="white" stop-opacity="0"/>
<stop offset="0.5" stop-color="white" stop-opacity="0.1"/>
<stop offset="1" stop-color="white" stop-opacity="0"/>
</linearGradient>
<linearGradient id="paint2_linear_1_138" x1="218" y1="-9.00001" x2="79.5" y2="129.5" gradientUnits="userSpaceOnUse">
<stop offset="0.25" stop-color="#606060" stop-opacity="0"/>
<stop offset="0.603684" stop-color="#606060"/>
<stop offset="1" stop-color="#606060" stop-opacity="0"/>
</linearGradient>
<clipPath id="clip0_1_138">
<rect width="215" height="229" fill="white"/>
</clipPath>
</defs>
</svg>
