<svg width="210" height="210" viewBox="0 0 210 210" fill="none" xmlns="http://www.w3.org/2000/svg">
<g clip-path="url(#clip0_1_124)">
<path d="M21.1665 178.75C21.1677 165.635 24.2644 152.706 30.2046 141.013C36.1448 129.32 44.7609 119.195 55.3522 111.46C65.9434 103.725 78.2107 98.5995 91.1564 96.4996C104.102 94.3996 117.361 95.3848 129.854 99.375M229.5 189.167L209.708 169.375M156.583 43.3333C156.583 72.0982 133.265 95.4167 104.5 95.4167C75.735 95.4167 52.4165 72.0982 52.4165 43.3333C52.4165 14.5685 75.735 -8.75 104.5 -8.75C133.265 -8.75 156.583 14.5685 156.583 43.3333ZM219.083 147.5C219.083 164.759 205.092 178.75 187.833 178.75C170.574 178.75 156.583 164.759 156.583 147.5C156.583 130.241 170.574 116.25 187.833 116.25C205.092 116.25 219.083 130.241 219.083 147.5Z" stroke="url(#paint0_linear_1_124)" stroke-width="20" stroke-linecap="round" stroke-linejoin="round"/>
<path d="M21.1665 178.75C21.1677 165.635 24.2644 152.706 30.2046 141.013C36.1448 129.32 44.7609 119.195 55.3522 111.46C65.9434 103.725 78.2107 98.5995 91.1564 96.4996C104.102 94.3996 117.361 95.3848 129.854 99.375M229.5 189.167L209.708 169.375M156.583 43.3333C156.583 72.0982 133.265 95.4167 104.5 95.4167C75.735 95.4167 52.4165 72.0982 52.4165 43.3333C52.4165 14.5685 75.735 -8.75 104.5 -8.75C133.265 -8.75 156.583 14.5685 156.583 43.3333ZM219.083 147.5C219.083 164.759 205.092 178.75 187.833 178.75C170.574 178.75 156.583 164.759 156.583 147.5C156.583 130.241 170.574 116.25 187.833 116.25C205.092 116.25 219.083 130.241 219.083 147.5Z" stroke="url(#paint1_linear_1_124)" stroke-opacity="0.5" stroke-width="20" stroke-linecap="round" stroke-linejoin="round"/>
<path d="M187.833 107.25C210.063 107.25 228.083 125.271 228.083 147.5C228.083 155.355 225.83 162.683 221.939 168.878L235.864 182.803C239.378 186.317 239.378 192.016 235.864 195.53C232.349 199.045 226.651 199.045 223.136 195.53L209.211 181.605C203.017 185.497 195.689 187.75 187.833 187.75C165.604 187.75 147.583 169.729 147.583 147.5C147.583 125.271 165.604 107.25 187.833 107.25ZM187.833 107.75C165.88 107.75 148.083 125.547 148.083 147.5C148.083 169.453 165.88 187.25 187.833 187.25C195.734 187.25 203.095 184.944 209.283 180.971L223.49 195.177C226.809 198.496 232.191 198.496 235.51 195.177C238.83 191.857 238.83 186.476 235.51 183.156L221.303 168.949C225.277 162.761 227.583 155.4 227.583 147.5C227.583 125.547 209.787 107.75 187.833 107.75ZM104.5 -17.75C138.235 -17.75 165.583 9.59776 165.583 43.333C165.583 64.8912 154.415 83.8405 137.548 94.7119C138.848 96.8592 139.251 99.5343 138.427 102.113C136.915 106.848 131.851 109.461 127.116 107.948C115.972 104.389 104.145 103.511 92.5972 105.384C81.0497 107.257 70.1069 111.829 60.6597 118.729C51.2125 125.628 43.5266 134.66 38.228 145.09C32.9295 155.519 30.1676 167.053 30.1665 178.751C30.166 183.721 26.136 187.75 21.1655 187.75C16.195 187.749 12.166 183.72 12.1665 178.749C12.1679 164.218 15.5994 149.892 22.1812 136.937C28.7629 123.981 38.3094 112.763 50.0444 104.192C56.0654 99.7952 62.5758 96.1605 69.4253 93.3477C53.6967 82.2969 43.4165 64.0158 43.4165 43.333C43.4167 9.59787 70.7644 -17.7498 104.5 -17.75ZM104.5 -17.25C71.0405 -17.2498 43.9167 9.87401 43.9165 43.333C43.9165 64.1769 54.4433 82.5621 70.4702 93.4629C63.3443 96.3059 56.5778 100.04 50.3394 104.596C38.6678 113.119 29.1726 124.278 22.6265 137.163C16.0804 150.048 12.6679 164.296 12.6665 178.749C12.6661 183.443 16.4712 187.249 21.1655 187.25C25.8599 187.25 29.666 183.445 29.6665 178.751C29.6676 166.974 32.4485 155.363 37.7827 144.863C43.117 134.363 50.8539 125.27 60.3647 118.324C69.8756 111.378 80.8919 106.775 92.5171 104.89C104.142 103.004 116.049 103.888 127.268 107.472C131.74 108.9 136.522 106.433 137.951 101.961C138.782 99.3577 138.292 96.6505 136.856 94.5596C153.819 83.8226 165.083 64.8938 165.083 43.333C165.083 9.87391 137.959 -17.25 104.5 -17.25ZM187.833 124.75C200.398 124.75 210.583 134.936 210.583 147.5C210.583 153.078 208.574 158.185 205.243 162.143C204.694 162.482 204.174 162.888 203.698 163.364C203.222 163.84 202.816 164.359 202.477 164.907C198.52 168.24 193.412 170.25 187.833 170.25C175.269 170.25 165.083 160.064 165.083 147.5C165.083 134.936 175.269 124.75 187.833 124.75ZM187.833 125.25C175.545 125.25 165.583 135.212 165.583 147.5C165.583 159.788 175.545 169.75 187.833 169.75C193.261 169.75 198.232 167.805 202.094 164.576C202.445 164.021 202.86 163.495 203.344 163.011C203.829 162.526 204.356 162.111 204.912 161.76C208.139 157.898 210.083 152.926 210.083 147.5C210.083 135.212 200.122 125.25 187.833 125.25ZM104.5 -0.25C128.57 -0.25 148.083 19.2627 148.083 43.333C148.083 67.4034 128.57 86.917 104.5 86.917C80.4293 86.9168 60.9165 67.4033 60.9165 43.333C60.9167 19.2629 80.4294 -0.249826 104.5 -0.25ZM104.5 0.25C80.7055 0.250174 61.4167 19.539 61.4165 43.333C61.4165 67.1272 80.7054 86.4168 104.5 86.417C128.294 86.417 147.583 67.1273 147.583 43.333C147.583 19.5389 128.294 0.25 104.5 0.25Z" fill="url(#paint2_linear_1_124)"/>
</g>
<defs>
<linearGradient id="paint0_linear_1_124" x1="202.772" y1="84" x2="41.5241" y2="214.084" gradientUnits="userSpaceOnUse">
<stop stop-color="white" stop-opacity="0"/>
<stop offset="0.25" stop-color="white" stop-opacity="0.02"/>
<stop offset="0.5" stop-color="white" stop-opacity="0.1"/>
<stop offset="0.6" stop-color="white" stop-opacity="0.02"/>
<stop offset="0.7" stop-color="white" stop-opacity="0"/>
</linearGradient>
<linearGradient id="paint1_linear_1_124" x1="137.463" y1="42.7084" x2="95.5677" y2="79.267" gradientUnits="userSpaceOnUse">
<stop stop-color="white" stop-opacity="0"/>
<stop offset="0.5" stop-color="white" stop-opacity="0.1"/>
<stop offset="1" stop-color="white" stop-opacity="0"/>
</linearGradient>
<linearGradient id="paint2_linear_1_124" x1="197.217" y1="67.6165" x2="91.2234" y2="159.283" gradientUnits="userSpaceOnUse">
<stop offset="0.25" stop-color="#606060" stop-opacity="0"/>
<stop offset="0.603684" stop-color="#606060"/>
<stop offset="1" stop-color="#606060" stop-opacity="0"/>
</linearGradient>
<clipPath id="clip0_1_124">
<rect width="210" height="210" fill="white"/>
</clipPath>
</defs>
</svg>
