<svg width="210" height="210" viewBox="0 0 210 210" fill="none" xmlns="http://www.w3.org/2000/svg">
<g clip-path="url(#clip0_1_153)">
<path d="M129.26 95.5938C134.008 84.5876 142.407 75.556 153.041 70.0228C163.674 64.4895 175.89 62.7933 187.629 65.2203C199.367 67.6473 209.909 74.0489 217.476 83.3452C225.043 92.6415 229.172 104.263 229.166 116.25C229.166 156.521 187.5 189.167 135.416 189.167C92.9476 189.167 50.4892 180.625 27.3851 163.521C22.9476 160.229 20.8122 154.854 20.9267 149.333C22.0622 92.5313 27.3642 -19.1666 104.166 -19.1666C112.454 -19.1666 120.403 -15.8742 126.263 -10.0137C132.124 -4.1532 135.416 3.79536 135.416 12.0834C135.416 17.6087 133.221 22.9078 129.314 26.8148C125.407 30.7218 120.108 32.9167 114.583 32.9167C103.073 32.9167 97.4997 28.2917 93.7497 22.5M156.25 105.833C149.963 101.116 142.69 97.8822 134.976 96.375C127.262 94.8677 119.307 95.1259 111.707 97.1301C104.108 99.1343 97.0597 102.833 91.0922 107.948C85.1247 113.063 80.3923 119.463 77.2497 126.667M103.791 31.0938C83.5309 43.0938 98.958 95.4167 83.333 116.25" stroke="url(#paint0_linear_1_153)" stroke-width="20" stroke-linecap="round" stroke-linejoin="round"/>
<path d="M129.26 95.5938C134.008 84.5876 142.407 75.556 153.041 70.0228C163.674 64.4895 175.89 62.7933 187.629 65.2203C199.367 67.6473 209.909 74.049 217.476 83.3452C225.043 92.6415 229.172 104.263 229.166 116.25C229.166 156.521 187.5 189.167 135.416 189.167C92.9476 189.167 50.4892 180.625 27.3851 163.521C22.9476 160.229 20.8122 154.854 20.9267 149.333C22.0622 92.5313 27.3642 -19.1666 104.166 -19.1666C112.454 -19.1666 120.403 -15.8742 126.263 -10.0137C132.124 -4.1532 135.416 3.79536 135.416 12.0834C135.416 17.6087 133.221 22.9078 129.314 26.8148C125.407 30.7218 120.108 32.9167 114.583 32.9167C103.073 32.9167 97.4997 28.2917 93.7497 22.5M156.25 105.833C149.963 101.116 142.69 97.8822 134.976 96.375C127.262 94.8677 119.307 95.1259 111.707 97.1301C104.108 99.1343 97.0597 102.833 91.0922 107.948C85.1247 113.063 80.3923 119.463 77.2497 126.667M103.791 31.0938C83.5309 43.0938 98.958 95.4167 83.333 116.25" stroke="url(#paint1_linear_1_153)" stroke-opacity="0.5" stroke-width="20" stroke-linecap="round" stroke-linejoin="round"/>
<path d="M104.166 -28.1666C114.841 -28.1666 125.079 -23.9258 132.627 -16.3776C140.175 -8.82923 144.416 1.40845 144.416 12.0834C144.416 19.9957 141.273 27.5842 135.678 33.1791C130.083 38.7737 122.494 41.9164 114.582 41.9164C111.516 41.9163 108.665 41.643 106.015 41.101C104.892 42.6853 103.846 45.0592 102.999 48.6166C101.588 54.5465 101.135 62.0087 100.818 70.6888C100.573 77.3631 100.407 84.7673 99.7629 91.8597C102.868 90.4517 106.096 89.3018 109.412 88.4271C114.115 87.187 118.934 86.517 123.766 86.4203C129.559 76.0564 138.273 67.562 148.886 62.0394C161.356 55.5501 175.684 53.5604 189.45 56.4066C203.217 59.253 215.581 66.7611 224.455 77.6635C233.329 88.5651 238.172 102.194 238.166 116.25L238.157 117.354C237.417 163.989 189.826 198.166 135.416 198.166C113.618 198.166 91.7064 195.978 72.1448 191.535C52.7069 187.119 34.975 180.338 22.0295 170.754L22.0227 170.749C14.8071 165.397 11.7652 156.992 11.928 149.147C12.4945 120.812 14.0841 77.4794 25.5891 41.0707C31.3565 22.8193 39.8287 5.58487 52.5422 -7.17834C65.4925 -20.179 82.4981 -28.1665 104.166 -28.1666ZM104.166 -27.6666C82.6351 -27.6665 65.7562 -19.7344 52.8967 -6.82483C40.261 5.86028 31.821 23.011 26.0667 41.2211C14.586 77.5527 12.9945 120.818 12.428 149.157C12.2678 156.873 15.2592 165.11 22.3206 170.348L22.3274 170.353C35.1954 179.879 52.8531 186.638 72.2561 191.046C91.776 195.481 113.649 197.666 135.416 197.666C189.674 197.666 236.922 163.603 237.657 117.345L237.666 116.25C237.672 102.309 232.869 88.7913 224.068 77.9789C215.266 67.1658 203.003 59.7189 189.349 56.8959C175.695 54.073 161.485 56.0467 149.116 62.4828C138.505 68.0046 129.809 76.5227 124.064 86.9154C119.175 86.9901 114.297 87.6569 109.539 88.9115C105.969 89.853 102.504 91.1152 99.1838 92.6781C99.8938 85.3485 100.063 77.6305 100.318 70.6703C100.635 61.995 101.088 54.4852 102.513 48.5004C103.414 44.7141 104.551 42.2032 105.802 40.5453C108.503 41.1235 111.424 41.4163 114.582 41.4164C122.362 41.4164 129.823 38.3264 135.324 32.8256C140.826 27.3245 143.916 19.8631 143.916 12.0834C143.916 1.54106 139.728 -8.56948 132.274 -16.024C124.819 -23.4785 114.708 -27.6666 104.166 -27.6666ZM104.166 -10.6666C110.2 -10.6666 115.987 -8.26985 120.253 -4.00354C124.52 0.262901 126.916 6.04974 126.916 12.0834C126.916 15.3543 125.617 18.4911 123.304 20.8041C120.991 23.1169 117.853 24.4164 114.582 24.4164C111.192 24.4163 108.802 23.9184 107.069 23.2504C107.024 23.2317 106.978 23.2146 106.933 23.1967C106.378 22.9757 105.892 22.7386 105.463 22.4945C103.682 21.4801 102.263 20.0093 100.884 17.8802C98.3326 13.9402 93.0705 12.8137 89.1301 15.3646C85.1899 17.916 84.0634 23.1791 86.6145 27.1195C87.771 28.9057 89.1365 30.7084 90.7893 32.4066C88.4351 36.1934 86.9575 40.4404 85.9758 44.5638C84.1067 52.4155 83.6408 61.5388 83.3293 70.0482C83.0054 78.8991 82.8447 87.2163 81.8459 94.722C80.8789 101.989 79.252 107.257 76.8489 110.709C73.8984 114.571 71.4136 118.785 69.4583 123.268C67.5814 127.571 69.5483 132.58 73.8508 134.457C78.1535 136.334 83.1631 134.368 85.0403 130.066C86.3352 127.097 87.9531 124.292 89.8577 121.698C89.9517 121.585 90.0439 121.469 90.1331 121.35C90.2612 121.179 90.3855 121.006 90.51 120.832C92.3183 118.494 94.3657 116.338 96.6243 114.402C101.618 110.122 107.515 107.026 113.874 105.349C118.558 104.114 123.403 103.672 128.21 104.029C128.449 104.059 128.688 104.077 128.927 104.086C130.406 104.221 131.882 104.431 133.346 104.717C139.801 105.978 145.887 108.685 151.148 112.632C154.902 115.45 160.23 114.69 163.048 110.935C165.866 107.18 165.106 101.852 161.351 99.0345C155.698 94.7928 149.36 91.5832 142.629 89.5345C146.461 84.5889 151.338 80.4904 156.964 77.5629C165.862 72.9327 176.085 71.5135 185.907 73.5443C195.73 75.5752 204.552 80.9323 210.884 88.7113C217.216 96.4903 220.671 106.215 220.666 116.245V116.25C220.666 149.978 184.897 180.666 135.416 180.666C114.715 180.666 94.124 178.581 76.0217 174.469C58.372 170.46 43.6266 164.644 33.4163 157.395L32.4426 156.689C30.6328 155.342 29.3562 152.831 29.425 149.51V149.503C29.994 121.039 31.6229 80.0589 42.2766 46.3441C47.5899 29.5298 54.9465 15.2054 64.9407 5.17224C74.7113 -4.63645 87.2967 -10.6665 104.166 -10.6666ZM104.166 -10.1666C87.4338 -10.1665 74.9749 -4.19176 65.2952 5.52576C55.3788 15.4809 48.0534 29.7214 42.7532 46.4945C32.1238 80.1322 30.4941 121.045 29.925 149.513L29.9241 149.52C29.8577 152.716 31.0875 155.062 32.7463 156.292C42.9048 163.811 57.952 169.852 76.1321 173.982C94.1927 178.085 114.746 180.166 135.416 180.166C184.744 180.166 220.166 149.593 220.166 116.25V116.245C220.171 106.33 216.756 96.7165 210.496 89.0267C204.237 81.3369 195.516 76.0412 185.806 74.0336C176.096 72.0261 165.99 73.4292 157.195 78.0062C151.85 80.7872 147.19 84.638 143.473 89.2728C149.999 91.345 156.148 94.5052 161.652 98.6351C165.627 101.619 166.431 107.26 163.448 111.236C160.464 115.211 154.823 116.015 150.848 113.032C145.648 109.129 139.631 106.455 133.25 105.208C131.809 104.927 130.358 104.719 128.903 104.586C128.655 104.577 128.407 104.556 128.159 104.526C123.412 104.175 118.628 104.613 114.002 105.832C107.716 107.49 101.886 110.55 96.9495 114.781C94.7152 116.696 92.69 118.829 90.9016 121.143C90.7796 121.312 90.6579 121.482 90.5325 121.65C90.4486 121.762 90.3616 121.87 90.2737 121.977C88.3855 124.546 86.7812 127.324 85.4983 130.265C83.5108 134.821 78.2065 136.904 73.6506 134.916C69.0949 132.929 67.013 127.624 69.0002 123.068C70.9691 118.554 73.4702 114.31 76.4397 110.421C78.7727 107.069 80.3871 101.898 81.3508 94.6556C82.3456 87.1804 82.5049 78.8966 82.8293 70.0306C83.1406 61.526 83.6073 52.3543 85.4895 44.4476C86.4494 40.4157 87.8881 36.2396 90.1633 32.475C88.6038 30.8315 87.3023 29.1027 86.1946 27.392C83.4933 23.2198 84.6858 17.6473 88.8577 14.9457C93.0299 12.2442 98.6024 13.4366 101.304 17.6088C102.653 19.6925 104.019 21.0965 105.71 22.0599C107.397 23.0206 110.065 23.9163 114.582 23.9164C117.721 23.9164 120.731 22.6696 122.95 20.4506C125.169 18.2314 126.416 15.2216 126.416 12.0834C126.416 6.18235 124.072 0.52265 119.9 -3.65002C115.727 -7.82256 110.067 -10.1666 104.166 -10.1666Z" fill="url(#paint2_linear_1_153)"/>
</g>
<defs>
<linearGradient id="paint0_linear_1_153" x1="229.722" y1="-19.1666" x2="44.7008" y2="208.185" gradientUnits="userSpaceOnUse">
<stop offset="0.299418" stop-color="white" stop-opacity="0"/>
<stop offset="0.358781" stop-color="white" stop-opacity="0.02"/>
<stop offset="0.5" stop-color="white" stop-opacity="0.1"/>
<stop offset="0.6" stop-color="white" stop-opacity="0.02"/>
<stop offset="0.7" stop-color="white" stop-opacity="0"/>
</linearGradient>
<linearGradient id="paint1_linear_1_153" x1="137.169" y1="35.0001" x2="93.4337" y2="71.2406" gradientUnits="userSpaceOnUse">
<stop stop-color="white" stop-opacity="0"/>
<stop offset="0.5" stop-color="white" stop-opacity="0.1"/>
<stop offset="1" stop-color="white" stop-opacity="0"/>
</linearGradient>
<linearGradient id="paint2_linear_1_153" x1="218.973" y1="-5.1712" x2="80.0815" y2="148.895" gradientUnits="userSpaceOnUse">
<stop offset="0.355477" stop-color="#606060" stop-opacity="0"/>
<stop offset="0.603684" stop-color="#606060"/>
<stop offset="1" stop-color="#606060" stop-opacity="0"/>
</linearGradient>
<clipPath id="clip0_1_153">
<rect width="210" height="210" fill="white"/>
</clipPath>
</defs>
</svg>
