<svg width="25" height="24" viewBox="0 0 25 24" fill="none" xmlns="http://www.w3.org/2000/svg">
<path d="M12.5001 3C7.00006 3 2.50006 6.58 2.50006 11C2.52531 12.0627 2.78489 13.1067 3.26026 14.0574C3.73563 15.0081 4.41507 15.8422 5.25006 16.5C5.25006 17.1 4.83006 18.67 2.50006 21C4.87006 20.89 7.14006 20 8.97006 18.5C10.1101 18.83 11.3101 19 12.5001 19C18.0001 19 22.5001 15.42 22.5001 11C22.5001 6.58 18.0001 3 12.5001 3ZM12.5001 17C8.08006 17 4.50006 14.31 4.50006 11C4.50006 7.69 8.08006 5 12.5001 5C16.9201 5 20.5001 7.69 20.5001 11C20.5001 14.31 16.9201 17 12.5001 17ZM17.5001 12V10H15.5001V12H17.5001ZM13.5001 12V10H11.5001V12H13.5001ZM9.50006 12V10H7.50006V12H9.50006Z" fill="white"/>
</svg>
