<svg width="25" height="24" viewBox="0 0 25 24" fill="none" xmlns="http://www.w3.org/2000/svg">
<path d="M3.5 11H6.5C7.03043 11 7.53914 11.2107 7.91421 11.5858C8.28929 11.9609 8.5 12.4696 8.5 13V16C8.5 16.5304 8.28929 17.0391 7.91421 17.4142C7.53914 17.7893 7.03043 18 6.5 18H5.5C4.96957 18 4.46086 17.7893 4.08579 17.4142C3.71071 17.0391 3.5 16.5304 3.5 16V11ZM3.5 11C3.5 9.8181 3.73279 8.64778 4.18508 7.55585C4.63738 6.46392 5.30031 5.47177 6.13604 4.63604C6.97177 3.80031 7.96392 3.13738 9.05585 2.68508C10.1478 2.23279 11.3181 2 12.5 2C13.6819 2 14.8522 2.23279 15.9442 2.68508C17.0361 3.13738 18.0282 3.80031 18.864 4.63604C19.6997 5.47177 20.3626 6.46392 20.8149 7.55585C21.2672 8.64778 21.5 9.8181 21.5 11M21.5 11V16M21.5 11H18.5C17.9696 11 17.4609 11.2107 17.0858 11.5858C16.7107 11.9609 16.5 12.4696 16.5 13V16C16.5 16.5304 16.7107 17.0391 17.0858 17.4142C17.4609 17.7893 17.9696 18 18.5 18H19.5C20.0304 18 20.5391 17.7893 20.9142 17.4142C21.2893 17.0391 21.5 16.5304 21.5 16M21.5 16V18C21.5 19.0609 21.0786 20.0783 20.3284 20.8284C19.5783 21.5786 18.5609 22 17.5 22H12.5" stroke="white" stroke-width="2" stroke-linecap="round" stroke-linejoin="round"/>
</svg>
