<svg width="115" height="35" viewBox="0 0 115 35" fill="none" xmlns="http://www.w3.org/2000/svg">
<path fill-rule="evenodd" clip-rule="evenodd" d="M53.5581 14.5328C54.6721 14.5328 55.695 14.624 56.4798 14.9278C58.1356 15.5607 59.1889 16.9836 59.1889 19.0445C59.1889 21.0751 58.0749 22.6195 56.4191 23.2524C55.6342 23.5562 54.5809 23.6778 53.1682 23.6778H42.9902V9.2666H58.0141V12.5934H47.3551V14.5328H53.5581ZM53.315 20.0421C53.7404 20.0421 54.0695 20.0117 54.3126 19.9205C54.824 19.7433 55.0316 19.2876 55.0316 18.8622C55.0316 18.7053 55.0063 18.5533 54.9557 18.4268C54.9253 18.3457 54.8848 18.2748 54.8341 18.209C54.748 18.0926 54.6366 17.9963 54.4898 17.9255C54.4493 17.9052 54.4037 17.8849 54.3531 17.8647C54.2771 17.8394 54.1961 17.8191 54.11 17.7989C53.8822 17.7533 53.6189 17.7432 53.315 17.7432H47.3551V20.0421H53.315ZM65.0475 9.2666H71.4277L77.3016 23.6778H72.3898L71.5493 21.5865H64.926L64.1108 23.6778H59.1737L65.0475 9.2666ZM68.0857 12.5934L66.0096 18.4065H70.496L68.4199 12.5934H68.0857ZM82.9172 18.3204V23.6778H78.5523V9.2666H82.9172V14.5328H89.9303V9.2666H94.3003V23.6778H89.9303V18.3204H82.9172ZM101.207 23.6778V18.2293H102.412L107.623 23.6778H113.431L106.175 16.1684L113.162 9.2666H107.678L102.412 14.6847H101.207V9.2666H96.8422V23.6778H101.207Z" fill="#101010"/>
<path d="M0 0H34.8025V17.6013C34.8025 22.113 32.4074 26.2854 28.5236 28.5438L17.3987 35L6.27894 28.5438C2.39511 26.2854 0 22.113 0 17.6013V0Z" fill="#101010"/>
<path fill-rule="evenodd" clip-rule="evenodd" d="M9.55029 9.2666V14.7404C10.2946 13.8948 11.6517 13.3226 13.1961 13.3226H14.8773V19.6876C14.8773 21.3789 14.4215 22.8625 13.743 23.6778H21.06C20.3815 22.8625 19.9257 21.3789 19.9257 19.6876V13.3226H21.6069C23.1513 13.3226 24.5083 13.8948 25.2527 14.7404V9.2666H9.55029Z" fill="#F4F4F4"/>
</svg>
