<svg width="115" height="35" viewBox="0 0 115 35" fill="none" xmlns="http://www.w3.org/2000/svg">
<g clip-path="url(#clip0_1_56)">
<path fill-rule="evenodd" clip-rule="evenodd" d="M53.8764 14.5327C54.9905 14.5327 56.0133 14.6238 56.7982 14.9276C58.454 15.5606 59.5072 16.9835 59.5072 19.0444C59.5072 21.0749 58.3932 22.6193 56.7374 23.2523C55.9525 23.5561 54.8993 23.6776 53.4865 23.6776H43.3086V9.26648H58.3325V12.5933H47.6735V14.5327H53.8764ZM53.6334 20.0419C54.0587 20.0419 54.3879 20.0116 54.6309 19.9204C55.1424 19.7432 55.35 19.2875 55.35 18.8621C55.35 18.7051 55.3247 18.5532 55.274 18.4266C55.2436 18.3456 55.2031 18.2747 55.1525 18.2089C55.0664 18.0924 54.955 17.9962 54.8082 17.9253C54.7677 17.9051 54.7221 17.8848 54.6714 17.8646C54.5955 17.8393 54.5145 17.819 54.4284 17.7987C54.2005 17.7532 53.9372 17.743 53.6334 17.743H47.6735V20.0419H53.6334ZM65.3659 9.26648H71.7461L77.6199 23.6776H72.7082L71.8676 21.5864H65.2444L64.4291 23.6776H59.492L65.3659 9.26648ZM68.4041 12.5933L66.328 18.4064H70.8144L68.7383 12.5933H68.4041ZM83.2355 18.3203V23.6776H78.8707V9.26648H83.2355V14.5327H90.2487V9.26648H94.6186V23.6776H90.2487V18.3203H83.2355ZM101.525 23.6776V18.2292H102.731L107.941 23.6776H113.749L106.493 16.1682L113.481 9.26648H107.997L102.731 14.6846H101.525V9.26648H97.1606V23.6776H101.525Z" fill="white"/>
<path d="M0.318115 0H35.1206V17.6013C35.1206 22.113 32.7255 26.2854 28.8417 28.5438L17.7168 35L6.59705 28.5438C2.71323 26.2854 0.318115 22.113 0.318115 17.6013V0Z" fill="white"/>
<path fill-rule="evenodd" clip-rule="evenodd" d="M9.86816 9.26648V14.7403C10.6125 13.8947 11.9696 13.3225 13.514 13.3225H15.1951V19.6875C15.1951 21.3787 14.7394 22.8624 14.0609 23.6776H21.3779C20.6993 22.8624 20.2436 21.3787 20.2436 19.6875V13.3225H21.9247C23.4691 13.3225 24.8262 13.8947 25.5706 14.7403V9.26648H9.86816Z" fill="#101010"/>
</g>
<defs>
<clipPath id="clip0_1_56">
<rect width="114.074" height="35" fill="white" transform="translate(0.318115)"/>
</clipPath>
</defs>
</svg>
