<svg width="63" height="67" viewBox="0 0 63 67" fill="none" xmlns="http://www.w3.org/2000/svg">
<path d="M31.248 8.62984L29.69 8.68812C23.2894 8.93096 17.1071 11.0487 10.7958 15.1676L9.9424 15.7213L8.95998 15.1579C6.72721 13.8659 3.77005 12.1173 3.78985 12.0979C4.19673 11.7967 9.81342 8.9601 11.1034 8.387C11.3515 8.28012 11.8676 8.05667 12.2446 7.88181C13.8423 7.17269 16.5713 6.17214 18.9429 5.44356C20.2628 5.03556 24.1229 4.08353 25.1947 3.89899C25.2966 3.8823 25.4098 3.86256 25.5259 3.84136C25.8165 3.78839 26.1245 3.7269 26.316 3.68522L26.7825 3.5881V2.09212C26.7825 0.71264 26.7725 0.596068 26.6038 0.596068C26.5698 0.596068 26.5151 0.599784 26.4432 0.606632C25.8856 0.659527 24.2937 0.902215 23.3092 1.0915C19.9948 1.72295 15.6086 3.08298 11.7981 4.64694C8.56307 5.97783 3.37307 8.591 1.02122 10.0773L0.20752 10.5921L0.247189 11.6413C0.505223 18.7813 0.574662 19.9761 0.941878 23.2791C1.53728 28.6705 2.49983 32.9642 4.00821 36.9568C4.31202 37.7587 4.45864 38.1368 4.56641 38.2893C4.59394 38.3283 4.61895 38.3525 4.64336 38.3654C4.69829 38.3942 4.75031 38.3656 4.82191 38.3168C4.92112 38.2585 5.58604 37.8505 6.29055 37.4231C6.57374 37.2537 6.99246 37.0004 7.47146 36.7097C8.20113 36.267 9.07057 35.7375 9.81342 35.286C11.034 34.5379 12.076 33.9551 12.1057 33.9939C12.1851 34.0716 13.5148 36.9471 13.882 37.8214L14.1673 38.3241L13.8324 38.6957C12.7668 39.9488 11.8411 40.8099 10.1502 42.0004C9.41621 42.5171 8.53806 43.0958 7.44169 43.7957C7.43098 43.8027 7.44102 43.8394 7.46901 43.9016C7.75227 44.5311 9.87631 47.7708 11.0141 49.2648C13.6736 52.762 16.7797 55.9386 20.6994 59.1541C22.7635 60.854 26.7924 63.6029 30.0969 65.5752C31.1189 66.1872 31.3075 66.2652 31.506 66.1777C33.0739 65.4878 37.9363 62.3695 40.5264 60.3974C43.2156 58.3574 46.9766 54.8603 48.8521 52.6649C50.0528 51.2563 51.6109 49.3329 52.1467 48.5848C54.3795 45.4957 56.771 40.9882 58.1008 37.4134C58.5473 36.2282 59.4305 33.5859 59.4305 33.4693C59.4305 33.4208 59.103 33.207 58.7061 33.003C58.2369 32.7537 57.4678 32.338 56.6485 31.8923C55.4577 31.2444 54.161 30.533 53.5261 30.1762C52.9803 29.8654 52.3451 29.5059 52.107 29.3699C51.8688 29.2436 51.6505 29.0687 51.6208 29.0008C51.591 28.9328 51.6704 28.3499 51.7795 27.7185C52.2757 24.9693 52.5535 22.0939 52.7421 17.567L52.8017 15.935L53.2185 15.7116C54.7268 14.8664 56.6916 13.7299 57.8229 13.0499L59.1328 12.263V12.6224C59.1328 12.8167 59.0832 14.1184 59.0336 15.5076C58.8847 19.1213 58.5969 22.2493 58.1801 24.8236C58.1615 24.937 58.144 25.0483 58.1276 25.1562C58.0223 25.8519 57.9685 26.4025 58.0115 26.4362C58.1107 26.5333 60.8594 28.0779 60.8793 28.0585C60.9587 27.9808 61.4747 24.7459 61.6734 23.1236C62.0106 20.2676 62.4177 13.5647 62.4073 11.039L62.3976 10.4562L61.663 9.98987C59.4206 8.58124 58.1107 7.85267 55.5603 6.60928C49.1697 3.49099 43.4538 1.57724 37.8967 0.69326C36.2891 0.440664 33.6693 0.20752 32.3197 0.20752H31.248V0.232145V3.30381V8.62984ZM37.7478 3.81156C44.2179 4.94813 51.2337 7.59038 57.7832 11.3596L58.9641 12.0396L58.5771 12.2727C57.2771 13.0693 53.2284 15.4007 52.9902 15.4881C52.7421 15.5756 52.6429 15.5367 51.978 15.0996C50.3307 14.0213 48.5445 13.0596 46.7781 12.3019C45.4881 11.7481 45.4384 11.7093 45.4384 11.4179C45.4384 10.8738 45.0118 10.0675 44.4065 9.48467C43.7415 8.83384 43.3943 8.63953 42.4317 8.39669C40.8241 7.979 38.9485 8.84353 38.1944 10.3396C37.4402 11.8453 37.7181 13.5841 38.9089 14.7693C39.2959 15.1579 40.3477 15.7504 40.6554 15.7504C40.8241 15.7504 40.8043 15.9059 40.4867 16.9744C40.3279 17.5088 40.0302 18.5773 39.8218 19.3641C39.6234 20.1608 39.415 20.8019 39.3653 20.8019C39.0875 20.8019 37.599 19.9956 35.7135 18.8396C34.5425 18.1208 33.2029 17.295 32.7365 17.0133C31.2778 16.1099 31.4365 16.4887 31.4365 13.9339V11.719H32.0617C32.409 11.719 33.1136 11.7578 33.6296 11.7967L34.5723 11.8842L34.5128 3.3841L35.2868 3.45208C35.7135 3.48122 36.8249 3.64639 37.7478 3.81156ZM42.2928 10.5436C43.0073 10.835 43.4538 11.6413 43.3248 12.4087C43.2057 13.1082 42.3721 13.7978 41.6378 13.8076C41.0424 13.8076 40.3081 13.3607 40.0104 12.7973C39.8416 12.4864 39.8218 11.8356 39.9607 11.4762C40.2982 10.631 41.4195 10.1841 42.2928 10.5436ZM31.0892 12.4184C31.119 12.8264 31.1487 13.8173 31.1487 14.6333V16.1099L29.045 17.431C27.884 18.1596 26.9213 18.7424 26.9114 18.723C26.9015 18.7133 26.7328 18.179 26.5443 17.5476C26.3557 16.9064 25.929 15.4687 25.5917 14.3515C25.2642 13.2344 25.0061 12.3019 25.026 12.2824C25.0756 12.2339 27.7649 11.787 28.3205 11.7384C28.5389 11.719 29.2335 11.6995 29.8686 11.6898L31.0197 11.6704L31.0892 12.4184ZM4.87155 13.0887C5.5463 13.5064 6.20124 13.9047 6.34019 13.9921C6.80662 14.2739 9.66457 15.9447 9.734 15.9642C9.77367 15.9836 9.86298 16.819 9.9325 17.8293L10.0516 19.6653L9.75388 19.8596C8.57296 20.695 7.93789 22.2201 8.21572 23.551C8.44398 24.6196 8.9401 25.3967 9.77367 25.9602C11.411 27.0579 13.6637 26.7568 14.8644 25.2705C15.3904 24.6196 15.6782 23.8425 15.6881 23.0362C15.698 22.191 15.6086 21.8413 15.2415 21.1613C14.8843 20.491 14.3186 19.9761 13.5446 19.607L12.9889 19.335V17.7807L13.9713 18.519C15.7476 19.8499 16.8491 21.2196 17.6827 23.143C18.2682 24.4739 18.6452 26.1836 18.6452 27.4756C18.6452 29.3602 17.772 32.4299 16.5911 34.7225L16.2338 35.4219L16.0652 35.0334C15.2713 33.2653 13.9813 30.3025 13.8721 30.0013C13.7828 29.7585 13.6934 29.6516 13.6041 29.6905C13.5247 29.7197 12.2744 30.4482 10.8156 31.3128C7.35238 33.3625 6.34019 33.9454 6.29055 33.9065C6.22111 33.8288 5.55627 31.4099 5.31811 30.3219C4.46467 26.5431 3.85936 21.6859 3.66087 16.9647C3.56166 14.507 3.53189 12.3504 3.60133 12.3504C3.6311 12.3504 4.19674 12.6807 4.87155 13.0887ZM25.1749 14.0796C25.4626 15.0218 25.8894 16.4498 26.1374 17.2562C26.3855 18.0527 26.584 18.7813 26.584 18.859C26.584 18.995 25.7504 19.5293 24.5001 20.1996C24.2024 20.3648 23.5573 20.6367 23.0612 20.8019C22.2872 21.0739 22.0291 21.1127 21.1757 21.1225C19.2307 21.1322 17.9506 20.6173 14.5369 18.4899L13.0584 17.5573L13.3461 17.3339C13.7033 17.0425 15.6583 15.9059 16.7101 15.3619C18.8437 14.2739 21.3047 13.283 23.3986 12.6904C24.0336 12.5059 24.5695 12.3601 24.5993 12.3601C24.629 12.3504 24.8871 13.1275 25.1749 14.0796ZM45.8552 15.2647C47.1156 15.8864 48.9216 16.9064 49.3483 17.2465L49.6163 17.4505L48.2071 18.4219C45.7858 20.083 44.4461 20.763 43.0271 21.0642C42.253 21.2196 40.9729 21.1905 40.1691 20.9961L39.7226 20.8893L40.2584 19.0242C41.2806 15.4784 41.1416 15.8185 41.479 15.8864C42.1538 16.0127 43.7217 15.4687 44.2476 14.9247C44.3767 14.7887 44.5255 14.6819 44.5751 14.6819C44.6347 14.6819 45.2103 14.9442 45.8552 15.2647ZM30.851 17.4698C29.7992 21.2779 27.7053 23.9979 25.2145 24.775C24.6092 24.9694 24.3611 24.9985 23.6268 24.9499C22.1879 24.8722 21.8704 24.6973 19.4788 22.7253C18.3277 21.783 17.1369 20.7825 16.8491 20.5105L16.3132 20.015L17.1269 20.4133C19.9253 21.7539 22.1879 21.7636 24.6886 20.4424C25.3435 20.0927 28.2114 18.3248 30.0572 17.1201C30.6327 16.751 31.1091 16.4402 31.119 16.4402C31.1289 16.4305 31.0098 16.8968 30.851 17.4698ZM36.3387 19.5973C39.018 21.171 39.7921 21.4236 41.8165 21.4333C43.2553 21.4333 43.6721 21.3362 45.1407 20.6853C45.6072 20.4813 45.9148 20.3745 45.8354 20.4424C44.5255 21.6664 41.221 24.2893 40.705 24.5128C38.9585 25.2705 37.4005 25.0956 35.8524 23.9785C34.5723 23.0556 33.5006 21.7247 32.6372 19.9761C32.1311 18.9561 31.4464 17.0522 31.4464 16.6636C31.4464 16.5859 32.0915 16.9453 32.9548 17.5088C33.7785 18.0527 35.3067 18.995 36.3387 19.5973ZM31.3969 17.7613C31.5854 18.7813 32.5877 20.8019 33.5701 22.1813C34.1754 23.0362 35.5349 24.2796 36.2692 24.6585C37.331 25.2122 38.6806 25.4162 39.7325 25.1734C39.9508 25.1248 40.1393 25.0956 40.1493 25.1151C40.1592 25.1248 39.673 25.5231 39.0676 25.999C37.6386 27.1356 36.815 27.7962 35.8425 28.5831L35.0586 29.2242L34.9395 28.4957C34.741 27.2619 34.1158 26.4459 32.9548 25.8825C32.2403 25.5328 32.151 25.5133 31.248 25.5133C30.4342 25.5133 30.2258 25.5522 29.7396 25.7756C28.5587 26.3099 27.745 27.4174 27.616 28.6414L27.5465 29.2436L26.8122 28.6414C26.1076 28.0682 25.8 27.8156 23.7161 26.1544C23.21 25.7464 22.694 25.3384 22.5749 25.2413C22.3765 25.0665 22.3765 25.0568 22.565 25.1344C22.6742 25.1734 23.1703 25.2219 23.6764 25.251C24.4107 25.2802 24.7183 25.251 25.2642 25.0859C27.6557 24.3767 29.7793 21.8704 30.851 18.4802C31.0396 17.8876 31.2281 17.4019 31.2579 17.4019C31.2976 17.4019 31.3571 17.567 31.3969 17.7613ZM49.6658 19.7528C49.5567 22.7253 49.3781 24.2796 48.7429 27.7476C48.5544 28.7579 48.3758 29.7488 48.3559 29.9333L48.3064 30.2734L49.6262 31.0796C51.1543 32.0219 55.6397 34.8391 55.7092 34.9071C55.7687 34.9556 55.0443 36.7723 54.2703 38.5305C53.4963 40.2986 51.6803 43.6305 51.4918 43.6305C51.4322 43.6305 50.1025 40.1334 50.1025 39.9682C50.1025 39.9002 50.2612 39.5602 50.4696 39.2008C51.4124 37.5202 50.7277 35.4219 48.9513 34.5476C48.4056 34.2757 48.2865 34.2562 47.3041 34.2562H46.2323L45.6965 33.2362C44.6347 31.2253 44.2476 29.7197 44.2476 27.5825C44.2377 24.4059 45.3392 21.579 47.3636 19.5876C48.0483 18.9173 49.4674 17.8002 49.646 17.7904C49.6956 17.7904 49.7056 18.6162 49.6658 19.7528ZM45.5476 21.3265C45.2996 21.6081 44.7438 22.8613 44.4461 23.7745C43.4339 26.9316 43.7217 30.2151 45.2896 33.2556C45.8453 34.3534 45.895 34.4991 45.7361 34.5476C45.3591 34.6642 44.7637 35.1791 44.4263 35.6745C44.069 36.2088 43.9202 36.5974 43.8011 37.2385L43.7415 37.6076L43.1461 36.9471C40.5462 34.1105 39.4249 31.5557 39.6332 28.9911C39.7921 26.9122 40.6256 25.1442 41.9355 24.0853C42.3523 23.7453 43.3347 22.939 44.1385 22.2882C44.9324 21.6373 45.5973 21.1225 45.627 21.1419C45.6468 21.171 45.6171 21.2487 45.5476 21.3265ZM18.546 22.3659C18.9529 22.7059 19.7666 23.3859 20.362 23.8619C21.5032 24.7945 21.9597 25.3967 22.4658 26.611C22.9719 27.8351 23.1604 29.6225 22.9123 30.9145C22.5153 32.9837 21.1062 35.4317 19.2108 37.3745C18.6254 37.9671 18.6254 37.9671 17.9705 38.0156C17.9194 38.0196 17.8672 38.0248 17.8142 38.031C17.8059 38.032 17.7976 38.033 17.7892 38.0341C17.7783 38.0355 17.7673 38.0371 17.7561 38.0387C16.8713 38.1708 14.7912 39.065 14.6578 39.1226C14.6533 39.1245 14.6511 39.1255 14.6511 39.1255C14.6511 39.1255 14.6534 39.1229 14.656 39.1198C14.6595 39.1159 14.6634 39.1113 14.6629 39.1116C14.6614 39.1124 14.6584 39.1141 14.654 39.1166C14.5784 39.1599 14.0955 39.4391 13.8423 39.5991C13.5347 39.7837 13.2866 39.9197 13.2866 39.8808C13.2866 39.842 13.5645 39.5311 13.8919 39.1814C14.0395 39.0277 14.2101 38.8491 14.3534 38.6884C14.349 38.6933 14.3577 38.6835 14.3534 38.6884C14.3606 38.6802 14.3677 38.6721 14.375 38.6639C15.1418 37.7958 15.8206 36.8405 16.4262 35.8046C16.4286 35.8005 16.431 35.7964 16.4334 35.7924C16.4369 35.7863 16.4405 35.7802 16.444 35.7741C16.4467 35.7695 16.4494 35.765 16.452 35.7604C17.3649 34.1898 18.0814 32.4509 18.5659 30.6133C18.8238 29.6516 18.8735 29.2631 18.9131 27.8447C18.9628 26.3099 18.9429 26.1156 18.7147 25.1636C18.4368 24.027 18.0101 22.9196 17.4941 21.9676C17.3055 21.6276 17.1567 21.307 17.1567 21.2682C17.1567 21.2196 17.3055 21.307 17.4842 21.4624C17.6529 21.6179 18.1391 22.0259 18.546 22.3659ZM12.6416 21.4819C13.1675 21.7247 13.495 22.1716 13.5645 22.7059C13.624 23.2887 13.5347 23.5607 13.1278 24.0076C12.711 24.4642 12.2347 24.6293 11.6592 24.5516C11.1233 24.4739 10.4684 23.9396 10.3095 23.4636C10.0516 22.7059 10.4187 21.8413 11.1531 21.4819C11.6592 21.2391 12.1255 21.2391 12.6416 21.4819ZM23.6268 26.4653C24.1031 26.8442 25.2046 27.7282 26.068 28.4276C27.4374 29.5157 27.6756 29.739 27.7748 30.0791C27.9633 30.6911 28.3603 31.2934 28.9358 31.8373L29.4618 32.3231L29.1641 33.9648C28.9954 34.8682 28.8068 35.6745 28.7373 35.7523C28.5885 35.9465 27.6557 37.0345 27.5267 37.1803C27.4274 37.2774 25.294 39.7545 24.7382 40.4054L24.5298 40.6483L23.6864 40.0168C22.1482 38.8705 21.2452 38.4236 19.7964 38.0934L19.1017 37.938L19.3498 37.7048C20.749 36.3739 22.0887 34.3728 22.7734 32.5854C23.6168 30.3996 23.5275 27.9322 22.5451 26.0087L22.2077 25.3482L22.4856 25.5522C22.6344 25.6688 23.1505 26.0768 23.6268 26.4653ZM40.0798 26.0282C39.4944 27.2327 39.3355 27.9808 39.3455 29.5933C39.3455 30.8951 39.3753 31.1477 39.6233 31.9248C40.1989 33.7608 41.3104 35.5191 43.0866 37.3745L43.5629 37.8797L43.037 37.9963C41.6874 38.3071 40.189 39.0842 38.7699 40.2111L38.0952 40.7357L37.9066 40.5122C37.8074 40.386 37.331 39.8225 36.8646 39.2591C36.3883 38.6957 35.4952 37.6174 34.8601 36.8597L33.709 35.4802L33.4212 33.9454C33.2624 33.1002 33.1334 32.3619 33.1334 32.3134C33.1433 32.2551 33.312 32.0996 33.5204 31.9539C33.9968 31.6333 34.4731 30.9728 34.7807 30.2053C34.9098 29.8751 35.0983 29.5545 35.2075 29.4865C35.3067 29.4185 36.3287 28.6025 37.47 27.6796C39.8714 25.7368 40.318 25.3774 40.3477 25.4065C40.3577 25.4162 40.2386 25.6979 40.0798 26.0282ZM48.1972 36.3739C48.8918 36.8305 49.0704 37.7145 48.6041 38.4528C48.3957 38.7734 47.711 39.162 47.3437 39.162C47.0064 39.162 46.5102 38.9288 46.2125 38.6276C44.9423 37.3745 46.6888 35.3928 48.1972 36.3739ZM35.7631 38.4334C36.4677 39.2882 37.2219 40.2014 37.4402 40.454L37.8371 40.9202L36.5272 42.2025C33.9968 44.6894 32.8655 46.2826 31.8334 48.7792L31.4464 49.702V39.7448H33.0342C34.2349 39.7448 34.6219 39.7157 34.6219 39.6185C34.6219 39.5602 34.4632 38.8219 34.2746 37.9963C34.0861 37.1705 33.9273 36.4322 33.9273 36.3643C33.9273 36.2185 34.096 36.4128 35.7631 38.4334ZM28.3205 37.7728C28.132 38.5111 27.9633 39.2299 27.9236 39.366C27.8641 39.5894 27.8939 39.6283 28.1817 39.6866C28.3503 39.7157 29.0946 39.7448 29.819 39.7448H31.1487V44.67L31.1388 49.6048L30.861 48.9054C29.819 46.3214 28.0626 43.922 25.4031 41.4643C25.0359 41.1242 24.8275 40.8523 24.8672 40.7842C24.9069 40.7162 25.2741 40.2694 25.6909 39.7934C26.1077 39.3077 26.9213 38.3654 27.5069 37.6757C28.1023 36.9956 28.5985 36.4419 28.6083 36.4419C28.6282 36.4419 28.4992 37.0442 28.3205 37.7728ZM43.821 38.3557C43.8507 38.4528 43.9797 38.7637 44.1088 39.0551L44.3469 39.57L43.682 40.5122C43.0866 41.3477 42.005 42.698 41.1913 43.6305C40.9233 43.9317 40.8737 43.9511 40.7447 43.8249C40.4271 43.514 38.3929 41.066 38.3929 40.998C38.3929 40.9591 38.9089 40.5414 39.5241 40.0848C40.7645 39.1814 42.0248 38.5402 42.9874 38.3362C43.7912 38.1614 43.7515 38.1614 43.821 38.3557ZM19.9154 38.4334C20.7589 38.6276 21.8306 39.1231 22.7039 39.7254C23.478 40.25 24.2024 40.862 24.2024 40.9882C24.2024 41.0271 23.9642 41.3282 23.6764 41.6488C23.3887 41.9694 22.8726 42.5717 22.5253 42.9797C22.1879 43.3974 21.8803 43.7277 21.8406 43.718C21.6466 43.6983 19.9922 41.4547 18.9341 39.8808C18.4222 39.1195 18.0498 38.5149 18.0498 38.3945C18.0498 38.2391 19.1712 38.2585 19.9154 38.4334ZM15.6186 40.5705C16.6705 42.2608 17.9307 43.9997 19.4689 45.8551L20.0643 46.5643L18.7445 49.158L17.4346 51.742L16.5911 50.8677C15.4896 49.7117 13.5843 47.3997 12.6614 46.0882C11.7783 44.8254 10.4386 42.6785 10.3889 42.4357C10.3691 42.3094 10.895 41.9111 12.5919 40.8231C13.8224 40.0265 14.8545 39.4048 14.8942 39.434C14.9339 39.4728 15.2614 39.978 15.6186 40.5705ZM50.5292 42.0763C50.8964 43.0671 51.1941 43.9414 51.1941 44.0289C51.1941 44.1648 50.2315 45.7385 49.5964 46.642C49.0804 47.3803 47.8995 48.8666 47.2644 49.5952L46.5995 50.3626L46.3018 50.0323C46.143 49.8477 45.5278 49.1968 44.9522 48.5848C43.0966 46.6323 42.9576 46.4769 42.9576 46.3991C42.9576 46.3603 43.2354 46.0203 43.5828 45.6317C44.4958 44.6214 45.508 43.3488 46.3713 42.0957L47.1354 41.0077H47.5621C48.1475 41.0077 48.9117 40.7648 49.3681 40.4345C49.5765 40.2791 49.7849 40.182 49.8147 40.2208C49.8444 40.25 50.1719 41.0854 50.5292 42.0763ZM26.2366 42.7659C28.4198 44.9711 29.6702 46.778 30.5533 49.0317C30.8808 49.8768 31.2976 51.3826 31.2281 51.4603C31.0793 51.5963 28.2511 49.702 26.6336 48.3905C25.5321 47.4969 22.6742 44.7866 22.2971 44.2814C22.1184 44.0385 22.1184 43.9899 22.2375 43.8442C22.3169 43.7568 22.7337 43.2614 23.1604 42.7563C23.597 42.2511 24.0734 41.6974 24.242 41.5226L24.5298 41.2117L24.8871 41.4837C25.0856 41.6391 25.6909 42.2122 26.2366 42.7659ZM38.7005 41.9402C38.9982 42.2997 39.286 42.6397 39.3355 42.698C39.8714 43.2711 40.576 44.1551 40.576 44.2425C40.5661 44.5437 37.4799 47.458 35.7929 48.7597C34.5624 49.702 31.7739 51.4991 31.5258 51.4991C31.238 51.4991 32.0022 48.9443 32.6869 47.6037C33.1533 46.7002 34.0861 45.3208 34.8006 44.5048C35.4555 43.7471 37.9562 41.2991 38.0753 41.2991C38.115 41.2991 38.4028 41.5905 38.7005 41.9402ZM44.6049 48.6723C45.5278 49.6437 46.2919 50.5083 46.3118 50.5666C46.3415 50.7123 42.9874 54.0637 41.7172 55.1615C39.1669 57.3569 36.3486 59.3872 33.5204 61.0775C32.5479 61.6506 31.5755 62.1849 31.506 62.1849C31.4663 62.1849 31.4464 60.6209 31.4464 58.7071V55.2198L31.7243 55.0837C34.8006 53.5488 39.5936 49.9449 42.005 47.3705C42.5507 46.7877 42.7195 46.6614 42.8088 46.7585C42.8683 46.8266 43.682 47.6911 44.6049 48.6723ZM21.7215 48.2254C23.0711 49.5369 24.5199 50.79 25.4428 51.4603C25.6611 51.6157 25.8596 51.7614 25.8894 51.7906C26.1077 52.0334 29.4419 54.19 30.5335 54.802L31.1388 55.142L31.1686 58.6683C31.1885 61.4855 31.1686 62.1752 31.0694 62.1363C30.9999 62.1169 30.0175 61.5146 28.8862 60.7957C25.9489 58.9501 22.9024 56.7546 21.0467 55.1517C19.8758 54.122 17.6529 51.9751 17.6926 51.8974C17.7124 51.8683 18.288 50.7123 18.9827 49.3329C19.6773 47.9632 20.2528 46.8363 20.2628 46.8363C20.2826 46.8363 20.9375 47.4677 21.7215 48.2254Z" fill="#242424"/>
<path d="M4.82191 38.3168C4.92112 38.2585 5.58604 37.8505 6.29055 37.4231C6.57374 37.2537 6.99246 37.0004 7.47146 36.7097C8.22264 38.3839 9.00292 39.9031 10.1502 42.0004C9.41621 42.5171 8.53806 43.0958 7.44169 43.7957C7.43098 43.8027 7.44102 43.8394 7.46901 43.9016C6.29725 41.9556 5.65592 40.7673 4.56641 38.2893C4.59394 38.3283 4.61895 38.3525 4.64336 38.3654C4.69829 38.3942 4.75031 38.3656 4.82191 38.3168Z" fill="#242424"/>
<path d="M59.4305 33.4693C59.4305 33.4208 59.103 33.207 58.7061 33.003C58.2369 32.7537 57.4678 32.338 56.6485 31.8923C57.2924 29.6783 57.7042 27.807 58.1276 25.1562C58.0223 25.8519 57.9685 26.4025 58.0115 26.4362C58.1107 26.5333 60.8594 28.0779 60.8793 28.0585C60.3946 30.1575 60.0971 31.3386 59.4305 33.4693Z" fill="#242424"/>
<path d="M25.5259 3.84136C25.8165 3.78839 26.1245 3.7269 26.316 3.68522L26.7825 3.5881V2.09212C26.7825 0.71264 26.7725 0.596068 26.6038 0.596068C26.5698 0.596068 26.5151 0.599784 26.4432 0.606632C28.1186 0.386457 29.527 0.282854 31.248 0.232145V3.30381C29.5068 3.30942 27.8229 3.44902 25.5259 3.84136Z" fill="#242424"/>
<path d="M16.444 35.7741C16.4467 35.7695 16.4494 35.765 16.452 35.7604C16.9163 36.6225 17.3136 37.3169 17.7561 38.0387C16.8713 38.1708 14.7912 39.065 14.6578 39.1226C14.6572 39.1217 14.6566 39.1207 14.656 39.1198C14.6595 39.1159 14.6634 39.1113 14.6629 39.1116C14.6614 39.1124 14.6584 39.1141 14.654 39.1166C14.5616 38.9699 14.4696 38.8206 14.375 38.6639C15.1418 37.7958 15.8206 36.8405 16.4262 35.8046L16.4334 35.7924C16.4369 35.7863 16.4405 35.7802 16.444 35.7741Z" fill="#242424"/>
<path d="M25.5259 3.84136C25.4098 3.86256 25.2966 3.8823 25.1947 3.89899C24.1229 4.08353 20.2628 5.03556 18.9429 5.44356C16.5713 6.17214 13.8423 7.17269 12.2446 7.88181C11.8676 8.05667 11.3515 8.28012 11.1034 8.387C9.81342 8.9601 4.19673 11.7967 3.78985 12.0979C3.77005 12.1173 6.72721 13.8659 8.95998 15.1579L9.94239 15.7213L10.7958 15.1676C17.1071 11.0487 23.2894 8.93096 29.69 8.68812L31.248 8.62984V3.30381M25.5259 3.84136C25.8165 3.78839 26.1245 3.7269 26.316 3.68522L26.7825 3.5881V2.09212C26.7825 0.71264 26.7725 0.596068 26.6038 0.596068C26.5698 0.596068 26.5151 0.599784 26.4432 0.606632M25.5259 3.84136C27.8229 3.44902 29.5068 3.30942 31.248 3.30381M26.4432 0.606632C25.8856 0.659527 24.2937 0.902215 23.3092 1.0915C19.9948 1.72295 15.6086 3.08298 11.7981 4.64694C8.56307 5.97783 3.37307 8.591 1.02122 10.0773L0.20752 10.5921L0.247189 11.6413C0.505223 18.7813 0.574662 19.9761 0.941878 23.2791C1.53728 28.6705 2.49983 32.9642 4.00821 36.9568C4.31202 37.7587 4.45864 38.1368 4.56641 38.2893M26.4432 0.606632C28.1186 0.386457 29.527 0.282854 31.248 0.232145M4.56641 38.2893C4.59394 38.3283 4.61895 38.3525 4.64336 38.3654C4.69829 38.3942 4.75031 38.3656 4.82191 38.3168C4.92112 38.2585 5.58604 37.8505 6.29055 37.4231C6.57374 37.2537 6.99246 37.0004 7.47146 36.7097M4.56641 38.2893C5.65592 40.7673 6.29725 41.9556 7.46901 43.9016M7.47146 36.7097C8.20113 36.267 9.07057 35.7375 9.81342 35.286C11.034 34.5379 12.076 33.9551 12.1057 33.9939C12.1851 34.0716 13.5148 36.9471 13.882 37.8214L14.1673 38.3241L13.8324 38.6957C12.7668 39.9488 11.8411 40.8099 10.1502 42.0004M7.47146 36.7097C8.22264 38.3839 9.00292 39.9031 10.1502 42.0004M10.1502 42.0004C9.41621 42.5171 8.53806 43.0958 7.44169 43.7957C7.43098 43.8027 7.44102 43.8394 7.46901 43.9016M7.46901 43.9016C7.75227 44.5311 9.87631 47.7708 11.0141 49.2648C13.6736 52.762 16.7797 55.9386 20.6994 59.1541C22.7635 60.854 26.7924 63.6029 30.0969 65.5752C31.119 66.1872 31.3075 66.2652 31.506 66.1777C33.0739 65.4878 37.9363 62.3695 40.5264 60.3974C43.2157 58.3574 46.9766 54.8603 48.8521 52.6649C50.0528 51.2563 51.6109 49.3329 52.1467 48.5848C54.3795 45.4957 56.771 40.9882 58.1008 37.4134C58.5473 36.2282 59.4305 33.5859 59.4305 33.4693M59.4305 33.4693C59.4305 33.4208 59.103 33.207 58.7061 33.003C58.2369 32.7537 57.4678 32.338 56.6485 31.8923M59.4305 33.4693C60.0971 31.3386 60.3946 30.1575 60.8793 28.0585M56.6485 31.8923C55.4577 31.2444 54.161 30.533 53.5261 30.1762C52.9803 29.8654 52.3452 29.5059 52.107 29.3699C51.8688 29.2436 51.6505 29.0687 51.6208 29.0008C51.591 28.9328 51.6704 28.3499 51.7795 27.7185C52.2757 24.9693 52.5535 22.0939 52.7421 17.567L52.8017 15.935L53.2185 15.7116C54.7268 14.8664 56.6916 13.7299 57.8229 13.0499L59.1328 12.263V12.6224C59.1328 12.8167 59.0832 14.1184 59.0336 15.5076C58.8847 19.1213 58.5969 22.2493 58.1801 24.8236C58.1615 24.937 58.144 25.0483 58.1276 25.1562M56.6485 31.8923C57.2924 29.6783 57.7042 27.807 58.1276 25.1562M58.1276 25.1562C58.0223 25.8519 57.9685 26.4025 58.0115 26.4362C58.1107 26.5333 60.8594 28.0779 60.8793 28.0585M60.8793 28.0585C60.9587 27.9808 61.4747 24.7459 61.6734 23.1236C62.0106 20.2676 62.4177 13.5647 62.4073 11.039L62.3976 10.4562L61.663 9.98987C59.4206 8.58124 58.1107 7.85267 55.5603 6.60928C49.1697 3.49099 43.4538 1.57724 37.8967 0.69326C36.2891 0.440664 33.6693 0.20752 32.3197 0.20752H31.248V0.232145M31.248 0.232145V3.30381M17.7561 38.0387C17.7673 38.0371 17.7783 38.0355 17.7892 38.0341C17.7976 38.033 17.8059 38.032 17.8142 38.031C17.8672 38.0248 17.9194 38.0196 17.9705 38.0156C18.6254 37.9671 18.6254 37.9671 19.2108 37.3745C21.1062 35.4317 22.5153 32.9837 22.9123 30.9145C23.1604 29.6225 22.9719 27.8351 22.4658 26.611C21.9597 25.3967 21.5032 24.7945 20.362 23.8619C19.7666 23.3859 18.9529 22.7059 18.546 22.3659C18.1391 22.0259 17.6529 21.6179 17.4842 21.4624C17.3055 21.307 17.1567 21.2196 17.1567 21.2682C17.1567 21.307 17.3055 21.6276 17.4941 21.9676C18.0101 22.9196 18.4368 24.027 18.7147 25.1636C18.9429 26.1156 18.9628 26.3099 18.9131 27.8447C18.8735 29.2631 18.8238 29.6516 18.5659 30.6133C18.0814 32.4509 17.3649 34.1898 16.452 35.7604M17.7561 38.0387C16.8713 38.1708 14.7912 39.065 14.6578 39.1226M17.7561 38.0387C17.3136 37.3169 16.9163 36.6225 16.452 35.7604M14.6578 39.1226C14.6533 39.1245 14.6511 39.1255 14.6511 39.1255C14.6511 39.1255 14.6534 39.1229 14.656 39.1198M14.6578 39.1226C14.6572 39.1217 14.6566 39.1207 14.656 39.1198M14.656 39.1198C14.6595 39.1159 14.6634 39.1113 14.6629 39.1116C14.6614 39.1124 14.6584 39.1141 14.654 39.1166M14.654 39.1166C14.5784 39.1599 14.0955 39.4391 13.8423 39.5991C13.5347 39.7837 13.2866 39.9197 13.2866 39.8808C13.2866 39.842 13.5645 39.5311 13.8919 39.1814C14.0395 39.0277 14.2101 38.8491 14.3534 38.6884M14.654 39.1166C14.5616 38.9699 14.4696 38.8206 14.375 38.6639M14.3534 38.6884C14.349 38.6933 14.3577 38.6835 14.3534 38.6884ZM14.3534 38.6884C14.3606 38.6802 14.3677 38.6721 14.375 38.6639M14.375 38.6639C15.1418 37.7958 15.8206 36.8405 16.4262 35.8046M16.4262 35.8046C16.4286 35.8005 16.431 35.7964 16.4334 35.7924M16.4262 35.8046L16.4334 35.7924M16.4334 35.7924C16.4369 35.7863 16.4405 35.7802 16.444 35.7741C16.4467 35.7695 16.4494 35.765 16.452 35.7604M37.7478 3.81156C44.2179 4.94813 51.2338 7.59038 57.7832 11.3596L58.9641 12.0396L58.5771 12.2727C57.2771 13.0693 53.2284 15.4007 52.9902 15.4881C52.7421 15.5756 52.6429 15.5367 51.978 15.0996C50.3307 14.0213 48.5445 13.0596 46.7781 12.3019C45.4881 11.7481 45.4384 11.7093 45.4384 11.4179C45.4384 10.8738 45.0118 10.0675 44.4065 9.48467C43.7415 8.83384 43.3943 8.63953 42.4317 8.39669C40.8241 7.979 38.9485 8.84353 38.1944 10.3396C37.4402 11.8453 37.7181 13.5841 38.9089 14.7693C39.2959 15.1579 40.3477 15.7504 40.6554 15.7504C40.8241 15.7504 40.8043 15.9059 40.4867 16.9744C40.3279 17.5088 40.0302 18.5773 39.8218 19.3641C39.6234 20.1608 39.415 20.8019 39.3653 20.8019C39.0875 20.8019 37.599 19.9956 35.7135 18.8396C34.5425 18.1208 33.2029 17.295 32.7365 17.0133C31.2778 16.1099 31.4365 16.4887 31.4365 13.9339V11.719H32.0617C32.409 11.719 33.1136 11.7578 33.6296 11.7967L34.5723 11.8842L34.5128 3.3841L35.2868 3.45208C35.7135 3.48122 36.8249 3.64639 37.7478 3.81156ZM42.2928 10.5436C43.0073 10.835 43.4538 11.6413 43.3248 12.4087C43.2057 13.1082 42.3721 13.7978 41.6378 13.8076C41.0424 13.8076 40.3081 13.3607 40.0104 12.7973C39.8416 12.4864 39.8218 11.8356 39.9607 11.4762C40.2982 10.631 41.4195 10.1841 42.2928 10.5436ZM31.0892 12.4184C31.119 12.8264 31.1487 13.8173 31.1487 14.6333V16.1099L29.045 17.431C27.884 18.1596 26.9213 18.7424 26.9114 18.723C26.9015 18.7133 26.7328 18.179 26.5443 17.5476C26.3557 16.9064 25.929 15.4687 25.5917 14.3515C25.2642 13.2344 25.0061 12.3019 25.026 12.2824C25.0756 12.2339 27.7649 11.787 28.3205 11.7384C28.5389 11.719 29.2335 11.6995 29.8686 11.6898L31.0197 11.6704L31.0892 12.4184ZM4.87155 13.0887C5.5463 13.5064 6.20124 13.9047 6.34019 13.9921C6.80662 14.2739 9.66456 15.9447 9.734 15.9642C9.77367 15.9836 9.86298 16.819 9.9325 17.8293L10.0516 19.6653L9.75388 19.8596C8.57296 20.695 7.93789 22.2201 8.21572 23.551C8.44398 24.6196 8.9401 25.3967 9.77367 25.9602C11.411 27.0579 13.6637 26.7568 14.8644 25.2705C15.3904 24.6196 15.6782 23.8425 15.6881 23.0362C15.698 22.191 15.6086 21.8413 15.2415 21.1613C14.8843 20.491 14.3186 19.9761 13.5446 19.607L12.9889 19.335V17.7807L13.9713 18.519C15.7476 19.8499 16.8491 21.2196 17.6827 23.143C18.2682 24.4739 18.6452 26.1836 18.6452 27.4756C18.6452 29.3602 17.772 32.4299 16.5911 34.7225L16.2338 35.4219L16.0652 35.0334C15.2713 33.2653 13.9813 30.3025 13.8721 30.0013C13.7828 29.7585 13.6934 29.6516 13.6041 29.6905C13.5247 29.7197 12.2744 30.4482 10.8156 31.3128C7.35238 33.3625 6.34019 33.9454 6.29055 33.9065C6.22111 33.8288 5.55627 31.4099 5.31811 30.3219C4.46467 26.5431 3.85936 21.6859 3.66087 16.9647C3.56166 14.507 3.53189 12.3504 3.60133 12.3504C3.6311 12.3504 4.19674 12.6807 4.87155 13.0887ZM25.1749 14.0796C25.4626 15.0218 25.8894 16.4498 26.1374 17.2562C26.3855 18.0527 26.584 18.7813 26.584 18.859C26.584 18.995 25.7504 19.5293 24.5001 20.1996C24.2024 20.3648 23.5573 20.6367 23.0612 20.8019C22.2872 21.0739 22.0291 21.1127 21.1757 21.1225C19.2307 21.1322 17.9506 20.6173 14.5369 18.4899L13.0584 17.5573L13.3461 17.3339C13.7033 17.0425 15.6583 15.9059 16.7101 15.3619C18.8437 14.2739 21.3047 13.283 23.3986 12.6904C24.0336 12.5059 24.5695 12.3601 24.5993 12.3601C24.629 12.3504 24.8871 13.1275 25.1749 14.0796ZM45.8552 15.2647C47.1156 15.8864 48.9216 16.9064 49.3483 17.2465L49.6163 17.4505L48.2071 18.4219C45.7858 20.083 44.4461 20.763 43.0271 21.0642C42.253 21.2196 40.9729 21.1905 40.1691 20.9961L39.7226 20.8893L40.2584 19.0242C41.2806 15.4784 41.1416 15.8185 41.479 15.8864C42.1538 16.0127 43.7217 15.4687 44.2476 14.9247C44.3767 14.7887 44.5255 14.6819 44.5751 14.6819C44.6347 14.6819 45.2103 14.9442 45.8552 15.2647ZM30.851 17.4698C29.7992 21.2779 27.7053 23.9979 25.2145 24.775C24.6092 24.9694 24.3611 24.9985 23.6268 24.9499C22.1879 24.8722 21.8704 24.6973 19.4788 22.7253C18.3277 21.783 17.1369 20.7825 16.8491 20.5105L16.3132 20.015L17.1269 20.4133C19.9253 21.7539 22.1879 21.7636 24.6886 20.4424C25.3435 20.0927 28.2114 18.3248 30.0572 17.1201C30.6327 16.751 31.1091 16.4402 31.119 16.4402C31.1289 16.4305 31.0098 16.8968 30.851 17.4698ZM36.3387 19.5973C39.018 21.171 39.7921 21.4236 41.8165 21.4333C43.2553 21.4333 43.6721 21.3362 45.1407 20.6853C45.6072 20.4813 45.9148 20.3745 45.8354 20.4424C44.5255 21.6664 41.221 24.2893 40.705 24.5128C38.9585 25.2705 37.4005 25.0956 35.8524 23.9785C34.5723 23.0556 33.5006 21.7247 32.6372 19.9761C32.1311 18.9561 31.4464 17.0522 31.4464 16.6636C31.4464 16.5859 32.0915 16.9453 32.9548 17.5088C33.7785 18.0527 35.3067 18.995 36.3387 19.5973ZM31.3969 17.7613C31.5854 18.7813 32.5877 20.8019 33.5701 22.1813C34.1754 23.0362 35.5349 24.2796 36.2692 24.6585C37.331 25.2122 38.6806 25.4162 39.7325 25.1734C39.9508 25.1248 40.1393 25.0956 40.1493 25.1151C40.1592 25.1248 39.673 25.5231 39.0676 25.999C37.6386 27.1356 36.815 27.7962 35.8425 28.5831L35.0586 29.2242L34.9395 28.4957C34.741 27.2619 34.1159 26.4459 32.9548 25.8825C32.2403 25.5328 32.151 25.5133 31.248 25.5133C30.4342 25.5133 30.2258 25.5522 29.7396 25.7756C28.5587 26.3099 27.745 27.4174 27.616 28.6414L27.5465 29.2436L26.8122 28.6414C26.1076 28.0682 25.8 27.8156 23.7161 26.1544C23.21 25.7464 22.694 25.3384 22.5749 25.2413C22.3765 25.0665 22.3765 25.0568 22.565 25.1344C22.6742 25.1734 23.1703 25.2219 23.6764 25.251C24.4107 25.2802 24.7183 25.251 25.2642 25.0859C27.6557 24.3767 29.7793 21.8704 30.851 18.4802C31.0396 17.8876 31.2281 17.4019 31.2579 17.4019C31.2976 17.4019 31.3571 17.567 31.3969 17.7613ZM49.6658 19.7528C49.5567 22.7253 49.3781 24.2796 48.7429 27.7476C48.5544 28.7579 48.3758 29.7488 48.3559 29.9333L48.3064 30.2734L49.6262 31.0796C51.1543 32.0219 55.6397 34.8391 55.7092 34.9071C55.7687 34.9556 55.0443 36.7723 54.2703 38.5305C53.4963 40.2986 51.6803 43.6305 51.4918 43.6305C51.4322 43.6305 50.1025 40.1334 50.1025 39.9682C50.1025 39.9002 50.2612 39.5602 50.4696 39.2008C51.4124 37.5202 50.7277 35.4219 48.9513 34.5476C48.4056 34.2756 48.2865 34.2562 47.3041 34.2562H46.2323L45.6965 33.2362C44.6347 31.2253 44.2476 29.7197 44.2476 27.5825C44.2377 24.4059 45.3392 21.579 47.3636 19.5876C48.0483 18.9173 49.4674 17.8002 49.646 17.7904C49.6956 17.7904 49.7056 18.6162 49.6658 19.7528ZM45.5476 21.3265C45.2996 21.6081 44.7438 22.8613 44.4461 23.7745C43.4339 26.9316 43.7217 30.2151 45.2896 33.2556C45.8453 34.3534 45.895 34.4991 45.7361 34.5476C45.3591 34.6642 44.7637 35.1791 44.4263 35.6745C44.069 36.2088 43.9202 36.5974 43.8011 37.2385L43.7415 37.6076L43.1461 36.9471C40.5462 34.1105 39.4249 31.5557 39.6332 28.9911C39.7921 26.9122 40.6256 25.1442 41.9355 24.0853C42.3523 23.7453 43.3347 22.939 44.1385 22.2882C44.9324 21.6373 45.5973 21.1225 45.627 21.1419C45.6468 21.171 45.6171 21.2487 45.5476 21.3265ZM12.6416 21.4819C13.1675 21.7247 13.495 22.1716 13.5645 22.7059C13.624 23.2887 13.5347 23.5607 13.1278 24.0076C12.711 24.4642 12.2347 24.6293 11.6592 24.5516C11.1233 24.4739 10.4684 23.9396 10.3095 23.4636C10.0516 22.7059 10.4187 21.8413 11.1531 21.4819C11.6592 21.2391 12.1255 21.2391 12.6416 21.4819ZM23.6268 26.4653C24.1031 26.8442 25.2046 27.7282 26.068 28.4276C27.4374 29.5157 27.6756 29.739 27.7748 30.0791C27.9633 30.6911 28.3603 31.2934 28.9358 31.8373L29.4618 32.3231L29.1641 33.9648C28.9954 34.8682 28.8068 35.6745 28.7373 35.7522C28.5885 35.9465 27.6557 37.0345 27.5267 37.1803C27.4274 37.2774 25.294 39.7545 24.7382 40.4054L24.5298 40.6483L23.6864 40.0168C22.1482 38.8705 21.2452 38.4236 19.7964 38.0934L19.1017 37.938L19.3498 37.7048C20.749 36.3739 22.0887 34.3728 22.7734 32.5854C23.6168 30.3996 23.5275 27.9322 22.5451 26.0087L22.2077 25.3482L22.4856 25.5522C22.6344 25.6688 23.1505 26.0768 23.6268 26.4653ZM40.0798 26.0282C39.4944 27.2327 39.3355 27.9808 39.3455 29.5933C39.3455 30.8951 39.3753 31.1477 39.6233 31.9248C40.1989 33.7608 41.3104 35.5191 43.0866 37.3745L43.5629 37.8797L43.037 37.9963C41.6874 38.3071 40.189 39.0842 38.7699 40.2111L38.0952 40.7357L37.9066 40.5122C37.8074 40.386 37.331 39.8225 36.8646 39.2591C36.3883 38.6957 35.4952 37.6174 34.8601 36.8597L33.709 35.4802L33.4212 33.9454C33.2624 33.1002 33.1334 32.3619 33.1334 32.3134C33.1433 32.2551 33.3121 32.0996 33.5204 31.9539C33.9968 31.6333 34.4731 30.9728 34.7807 30.2053C34.9098 29.8751 35.0983 29.5545 35.2075 29.4865C35.3067 29.4185 36.3287 28.6025 37.47 27.6796C39.8714 25.7368 40.318 25.3774 40.3477 25.4065C40.3577 25.4162 40.2386 25.6979 40.0798 26.0282ZM48.1972 36.3739C48.8918 36.8305 49.0704 37.7145 48.6041 38.4528C48.3957 38.7734 47.711 39.162 47.3437 39.162C47.0064 39.162 46.5102 38.9288 46.2125 38.6276C44.9423 37.3745 46.6888 35.3928 48.1972 36.3739ZM35.7631 38.4334C36.4677 39.2882 37.2219 40.2014 37.4402 40.454L37.8371 40.9202L36.5272 42.2025C33.9968 44.6894 32.8655 46.2825 31.8334 48.7792L31.4464 49.702V39.7448H33.0342C34.2349 39.7448 34.6219 39.7157 34.6219 39.6185C34.6219 39.5602 34.4632 38.822 34.2746 37.9963C34.0861 37.1705 33.9273 36.4322 33.9273 36.3643C33.9273 36.2185 34.096 36.4128 35.7631 38.4334ZM28.3205 37.7728C28.132 38.5111 27.9633 39.23 27.9236 39.366C27.8641 39.5894 27.8939 39.6283 28.1817 39.6865C28.3503 39.7157 29.0946 39.7448 29.819 39.7448H31.1487V44.67L31.1388 49.6048L30.861 48.9054C29.819 46.3214 28.0626 43.922 25.4031 41.4643C25.0359 41.1242 24.8275 40.8523 24.8672 40.7842C24.9069 40.7162 25.2741 40.2694 25.6909 39.7934C26.1077 39.3077 26.9213 38.3654 27.5069 37.6757C28.1023 36.9956 28.5985 36.4419 28.6083 36.4419C28.6282 36.4419 28.4992 37.0442 28.3205 37.7728ZM43.821 38.3557C43.8507 38.4528 43.9797 38.7637 44.1088 39.0551L44.3469 39.57L43.682 40.5122C43.0866 41.3477 42.005 42.698 41.1913 43.6305C40.9233 43.9317 40.8737 43.9511 40.7447 43.8249C40.4271 43.514 38.3929 41.066 38.3929 40.998C38.3929 40.9591 38.9089 40.5414 39.5241 40.0848C40.7645 39.1814 42.0248 38.5402 42.9874 38.3362C43.7912 38.1614 43.7515 38.1614 43.821 38.3557ZM19.9154 38.4334C20.7589 38.6276 21.8306 39.1231 22.7039 39.7254C23.478 40.25 24.2024 40.862 24.2024 40.9882C24.2024 41.0271 23.9642 41.3282 23.6764 41.6488C23.3887 41.9694 22.8726 42.5717 22.5253 42.9797C22.1879 43.3974 21.8803 43.7277 21.8406 43.718C21.6466 43.6983 19.9922 41.4547 18.9341 39.8808C18.4222 39.1195 18.0498 38.5149 18.0498 38.3945C18.0498 38.2391 19.1712 38.2585 19.9154 38.4334ZM15.6186 40.5705C16.6705 42.2608 17.9307 43.9997 19.4689 45.8551L20.0643 46.5643L18.7445 49.158L17.4346 51.742L16.5911 50.8677C15.4896 49.7117 13.5843 47.3997 12.6614 46.0882C11.7783 44.8254 10.4386 42.6785 10.3889 42.4357C10.3691 42.3094 10.895 41.9111 12.5919 40.8231C13.8224 40.0265 14.8545 39.4048 14.8942 39.434C14.9339 39.4728 15.2614 39.978 15.6186 40.5705ZM50.5292 42.0763C50.8964 43.0671 51.1941 43.9414 51.1941 44.0289C51.1941 44.1648 50.2315 45.7385 49.5964 46.642C49.0804 47.3803 47.8995 48.8666 47.2644 49.5952L46.5995 50.3626L46.3018 50.0323C46.143 49.8477 45.5278 49.1968 44.9522 48.5848C43.0966 46.6323 42.9576 46.4769 42.9576 46.3991C42.9576 46.3603 43.2354 46.0203 43.5828 45.6317C44.4958 44.6214 45.508 43.3488 46.3713 42.0957L47.1354 41.0077H47.5621C48.1475 41.0077 48.9117 40.7648 49.3681 40.4345C49.5765 40.2791 49.7849 40.182 49.8147 40.2208C49.8444 40.25 50.1719 41.0854 50.5292 42.0763ZM26.2366 42.7659C28.4198 44.9711 29.6702 46.778 30.5533 49.0317C30.8808 49.8768 31.2976 51.3826 31.2281 51.4603C31.0793 51.5963 28.2511 49.702 26.6336 48.3905C25.5321 47.4969 22.6742 44.7866 22.2971 44.2814C22.1184 44.0385 22.1184 43.9899 22.2375 43.8442C22.3169 43.7568 22.7337 43.2614 23.1604 42.7563C23.597 42.2511 24.0734 41.6974 24.242 41.5226L24.5298 41.2117L24.8871 41.4837C25.0856 41.6391 25.6909 42.2122 26.2366 42.7659ZM38.7005 41.9402C38.9982 42.2997 39.286 42.6397 39.3355 42.698C39.8714 43.2711 40.576 44.1551 40.576 44.2425C40.5661 44.5437 37.4799 47.458 35.7929 48.7597C34.5624 49.702 31.7739 51.4991 31.5258 51.4991C31.238 51.4991 32.0022 48.9443 32.6869 47.6037C33.1533 46.7002 34.0861 45.3208 34.8006 44.5048C35.4555 43.7471 37.9562 41.2991 38.0753 41.2991C38.115 41.2991 38.4028 41.5905 38.7005 41.9402ZM44.6049 48.6723C45.5278 49.6437 46.2919 50.5083 46.3118 50.5666C46.3415 50.7123 42.9874 54.0637 41.7172 55.1615C39.1669 57.3569 36.3486 59.3872 33.5204 61.0775C32.5479 61.6506 31.5755 62.1849 31.506 62.1849C31.4663 62.1849 31.4464 60.6209 31.4464 58.7071V55.2198L31.7243 55.0837C34.8006 53.5488 39.5936 49.9449 42.005 47.3705C42.5507 46.7877 42.7195 46.6614 42.8088 46.7585C42.8683 46.8266 43.682 47.6911 44.6049 48.6723ZM21.7215 48.2254C23.0711 49.5369 24.5199 50.79 25.4428 51.4603C25.6611 51.6157 25.8596 51.7614 25.8894 51.7906C26.1077 52.0334 29.4419 54.19 30.5335 54.802L31.1388 55.142L31.1686 58.6683C31.1885 61.4855 31.1686 62.1752 31.0694 62.1363C30.9999 62.1169 30.0175 61.5146 28.8862 60.7957C25.9489 58.95 22.9024 56.7546 21.0467 55.1517C19.8758 54.122 17.6529 51.9751 17.6926 51.8975C17.7124 51.8683 18.288 50.7123 18.9827 49.3329C19.6773 47.9632 20.2528 46.8363 20.2628 46.8363C20.2826 46.8363 20.9375 47.4677 21.7215 48.2254Z" stroke="#242424" stroke-width="0.415067" stroke-linecap="round" stroke-linejoin="round"/>
</svg>
