<svg width="141" height="28" viewBox="0 0 141 28" fill="none" xmlns="http://www.w3.org/2000/svg">
<rect y="2" width="24" height="24" rx="4" fill="#101010"/>
<path d="M9.49347 12.6031L10.9883 17.5459L10.1916 20.1803C10.0106 20.7783 9.54699 21.2468 8.95463 21.4302C7.96779 21.7355 6.92267 21.1757 6.62171 20.1794C6.10327 18.4646 5.33435 15.9223 4.86291 14.3636C4.63239 13.6016 5.05819 12.7957 5.81363 12.5632C5.95235 12.5206 6.09283 12.5 6.23071 12.5C6.84351 12.5 7.41023 12.9001 7.59855 13.5217L8.40707 16.1943L9.49347 12.6031Z" fill="#F4F4F4"/>
<path d="M14.7872 21.4532C14.7781 21.456 14.769 21.4588 14.7598 21.4616C13.7834 21.764 12.7492 21.2097 12.451 20.2243L9.46584 10.356C9.23624 9.59692 9.65908 8.77052 10.4055 8.51952C11.1519 8.26856 11.9505 8.68428 12.1801 9.44332L14.2302 16.2203L16.8109 7.68952C17.0437 6.91984 17.8181 6.58452 18.5316 6.94444C19.287 7.177 19.7125 7.9832 19.482 8.74516C18.3253 12.5687 17.1686 16.3922 16.0119 20.2158C15.8328 20.8078 15.3738 21.2715 14.7872 21.4532Z" fill="#F4F4F4"/>
<path d="M38.3869 22L33.8068 5.02409H36.9855L39.23 14.1729C39.4047 14.9172 39.568 15.6616 39.7199 16.4059C39.8794 17.1427 40.0313 17.8832 40.1756 18.6276C40.3275 17.8832 40.487 17.1427 40.6541 16.4059C40.8212 15.6616 40.9959 14.9172 41.1782 14.1729L43.5138 5.02409H46.6925L49.0054 14.1729C49.1877 14.9096 49.3624 15.6464 49.5295 16.3831C49.6966 17.1123 49.8561 17.8415 50.008 18.5706C50.2966 17.1351 50.6156 15.6692 50.965 14.1729L53.2095 5.02409H56.3996L51.8081 22H48.4015L45.8039 12.179C45.6823 11.7157 45.5646 11.2296 45.4507 10.7207C45.3368 10.2042 45.219 9.66493 45.0975 9.10286C44.976 9.66493 44.8582 10.2042 44.7443 10.7207C44.6304 11.2296 44.5126 11.7157 44.3911 12.179L41.8049 22H38.3869ZM54.8843 22L60.9455 5.02409H64.728L70.7664 22H67.451L66.0952 17.944H59.5099L58.12 22H54.8843ZM60.353 15.4717H65.2749L64.4774 13.0791C64.2267 12.2968 63.9685 11.4803 63.7026 10.6296C63.4444 9.77886 63.1558 8.81803 62.8368 7.74707C62.5177 8.81803 62.2253 9.77886 61.9595 10.6296C61.6936 11.4803 61.4316 12.2968 61.1733 13.0791L60.353 15.4717ZM75.3351 5.02409V22H72.3273V5.02409H75.3351ZM85.5662 22.2734C84.0016 22.2734 82.6192 21.9127 81.4191 21.1911C80.219 20.4695 79.2772 19.4517 78.5936 18.1377C77.91 16.8237 77.5682 15.2856 77.5682 13.5234C77.5682 11.7461 77.91 10.2004 78.5936 8.88639C79.2772 7.57237 80.219 6.55458 81.4191 5.83301C82.6192 5.11144 84.0016 4.75065 85.5662 4.75065C86.8423 4.75065 87.9968 5.0013 89.0298 5.5026C90.0628 6.00391 90.9135 6.71029 91.5819 7.62174C92.2579 8.5332 92.6908 9.60796 92.8807 10.846H89.8159C89.5881 9.76747 89.0981 8.93197 88.3462 8.33952C87.5942 7.74707 86.6752 7.45085 85.589 7.45085C84.556 7.45085 83.6636 7.7015 82.9116 8.2028C82.1673 8.7041 81.5938 9.41048 81.1912 10.3219C80.7963 11.2334 80.5988 12.3006 80.5988 13.5234C80.5988 14.7387 80.7963 15.8021 81.1912 16.7135C81.5938 17.6174 82.1673 18.32 82.9116 18.8213C83.656 19.3226 84.5485 19.5732 85.589 19.5732C86.6676 19.5732 87.5828 19.2808 88.3348 18.696C89.0868 18.1111 89.5843 17.2794 89.8273 16.2008H92.8807C92.6908 17.4389 92.2579 18.5137 91.5819 19.4251C90.9135 20.329 90.0628 21.0316 89.0298 21.5329C87.9968 22.0266 86.8423 22.2734 85.5662 22.2734ZM102.383 22.2734C100.864 22.2734 99.5078 21.9127 98.3153 21.1911C97.1304 20.4619 96.1923 19.4441 95.5011 18.1377C94.8175 16.8237 94.4757 15.2856 94.4757 13.5234C94.4757 11.7537 94.8175 10.2118 95.5011 8.89779C96.1923 7.58377 97.1304 6.56597 98.3153 5.8444C99.5078 5.11523 100.864 4.75065 102.383 4.75065C103.894 4.75065 105.246 5.11523 106.439 5.8444C107.631 6.56597 108.569 7.58377 109.253 8.89779C109.944 10.2118 110.29 11.7537 110.29 13.5234C110.29 15.2856 109.944 16.8237 109.253 18.1377C108.569 19.4517 107.631 20.4695 106.439 21.1911C105.246 21.9127 103.894 22.2734 102.383 22.2734ZM102.383 19.5732C103.309 19.5732 104.137 19.3378 104.866 18.8669C105.603 18.3959 106.184 17.7123 106.61 16.8161C107.035 15.9122 107.248 14.8147 107.248 13.5234C107.248 12.2246 107.035 11.1233 106.61 10.2194C106.184 9.31554 105.603 8.62815 104.866 8.15723C104.137 7.68631 103.309 7.45085 102.383 7.45085C101.456 7.45085 100.624 7.68631 99.8875 8.15723C99.1584 8.62815 98.5773 9.31554 98.1444 10.2194C97.719 11.1233 97.5063 12.2246 97.5063 13.5234C97.5063 14.8147 97.719 15.9122 98.1444 16.8161C98.5773 17.7123 99.1584 18.3959 99.8875 18.8669C100.624 19.3378 101.456 19.5732 102.383 19.5732ZM112.523 22V5.02409H119.142C120.388 5.02409 121.463 5.24436 122.366 5.6849C123.278 6.12543 123.98 6.75206 124.474 7.56478C124.968 8.3775 125.215 9.33832 125.215 10.4473C125.215 11.6018 124.93 12.593 124.36 13.4209C123.791 14.2488 123.001 14.8678 121.99 15.278L125.534 22H122.218L119.028 15.8249C119.005 15.8249 118.979 15.8249 118.948 15.8249H115.53V22H112.523ZM115.53 13.3411H118.994C119.997 13.3411 120.79 13.0829 121.375 12.5664C121.96 12.0423 122.252 11.3359 122.252 10.4473C122.252 9.56619 121.956 8.8674 121.364 8.35091C120.779 7.83442 119.981 7.57617 118.971 7.57617H115.53V13.3411ZM127.562 22V5.02409H139.354V7.63314H130.569V12.0993H138.693V14.6628H130.569V19.391H139.354V22H127.562Z" fill="#101010"/>
</svg>
