<svg width="142" height="29" viewBox="0 0 142 29" fill="none" xmlns="http://www.w3.org/2000/svg">
<rect x="0.520996" y="2.5" width="24" height="24" rx="4" fill="white"/>
<path d="M10.0143 13.1033L11.5092 18.0461L10.7124 20.6805C10.5315 21.2785 10.0679 21.747 9.47551 21.9303C8.48867 22.2357 7.44355 21.6759 7.14259 20.6796C6.62415 18.9647 5.85523 16.4225 5.38379 14.8638C5.15327 14.1018 5.57907 13.2959 6.33451 13.0633C6.47323 13.0208 6.61371 13.0002 6.75159 13.0002C7.36439 13.0002 7.93111 13.4003 8.11943 14.0219L8.92795 16.6945L10.0143 13.1033Z" fill="#101010"/>
<path d="M15.3081 21.9532C15.299 21.9561 15.2898 21.9589 15.2807 21.9617C14.3043 22.264 13.27 21.7097 12.9719 20.7243L9.98672 10.8561C9.75712 10.097 10.18 9.27058 10.9264 9.01958C11.6728 8.76862 12.4714 9.18434 12.701 9.94338L14.751 16.7203L17.3318 8.18958C17.5646 7.4199 18.339 7.08458 19.0525 7.4445C19.8079 7.67706 20.2334 8.48326 20.0028 9.24522C18.8462 13.0688 17.6894 16.8923 16.5328 20.7159C16.3536 21.3079 15.8947 21.7716 15.3081 21.9532Z" fill="#101010"/>
<path d="M38.9081 22.5L34.328 5.52409H37.5068L39.7512 14.6729C39.9259 15.4172 40.0892 16.1616 40.2411 16.9059C40.4006 17.6427 40.5525 18.3832 40.6969 19.1276C40.8488 18.3832 41.0083 17.6427 41.1754 16.9059C41.3425 16.1616 41.5172 15.4172 41.6995 14.6729L44.0351 5.52409H47.2138L49.5266 14.6729C49.7089 15.4096 49.8836 16.1464 50.0507 16.8831C50.2178 17.6123 50.3773 18.3415 50.5292 19.0706C50.8178 17.6351 51.1369 16.1692 51.4862 14.6729L53.7307 5.52409H56.9208L52.3293 22.5H48.9228L46.3251 12.679C46.2036 12.2157 46.0859 11.7296 45.9719 11.2207C45.858 10.7042 45.7403 10.1649 45.6187 9.60286C45.4972 10.1649 45.3795 10.7042 45.2655 11.2207C45.1516 11.7296 45.0339 12.2157 44.9124 12.679L42.3261 22.5H38.9081ZM55.4055 22.5L61.4667 5.52409H65.2493L71.2877 22.5H67.9723L66.6165 18.444H60.0312L58.6412 22.5H55.4055ZM60.8743 15.9717H65.7961L64.9986 13.5791C64.748 12.7968 64.4897 11.9803 64.2239 11.1296C63.9656 10.2789 63.677 9.31803 63.358 8.24707C63.039 9.31803 62.7466 10.2789 62.4807 11.1296C62.2149 11.9803 61.9528 12.7968 61.6946 13.5791L60.8743 15.9717ZM75.8564 5.52409V22.5H72.8486V5.52409H75.8564ZM86.0875 22.7734C84.5228 22.7734 83.1404 22.4127 81.9404 21.6911C80.7403 20.9695 79.7984 19.9517 79.1148 18.6377C78.4312 17.3237 78.0894 15.7856 78.0894 14.0234C78.0894 12.2461 78.4312 10.7004 79.1148 9.38639C79.7984 8.07237 80.7403 7.05458 81.9404 6.33301C83.1404 5.61144 84.5228 5.25065 86.0875 5.25065C87.3635 5.25065 88.518 5.5013 89.551 6.0026C90.584 6.50391 91.4347 7.21029 92.1031 8.12174C92.7791 9.0332 93.2121 10.108 93.4019 11.346H90.3372C90.1093 10.2675 89.6194 9.43197 88.8674 8.83952C88.1155 8.24707 87.1964 7.95085 86.1103 7.95085C85.0773 7.95085 84.1848 8.2015 83.4329 8.7028C82.6885 9.2041 82.115 9.91048 81.7125 10.8219C81.3175 11.7334 81.12 12.8006 81.12 14.0234C81.12 15.2387 81.3175 16.3021 81.7125 17.2135C82.115 18.1174 82.6885 18.82 83.4329 19.3213C84.1772 19.8226 85.0697 20.0732 86.1103 20.0732C87.1888 20.0732 88.1041 19.7808 88.856 19.196C89.608 18.6111 90.1055 17.7794 90.3486 16.7008H93.4019C93.2121 17.9389 92.7791 19.0137 92.1031 19.9251C91.4347 20.829 90.584 21.5316 89.551 22.0329C88.518 22.5266 87.3635 22.7734 86.0875 22.7734ZM102.904 22.7734C101.385 22.7734 100.029 22.4127 98.8365 21.6911C97.6516 20.9619 96.7136 19.9441 96.0224 18.6377C95.3388 17.3237 94.997 15.7856 94.997 14.0234C94.997 12.2537 95.3388 10.7118 96.0224 9.39779C96.7136 8.08377 97.6516 7.06597 98.8365 6.3444C100.029 5.61523 101.385 5.25065 102.904 5.25065C104.415 5.25065 105.767 5.61523 106.96 6.3444C108.152 7.06597 109.09 8.08377 109.774 9.39779C110.465 10.7118 110.811 12.2537 110.811 14.0234C110.811 15.7856 110.465 17.3237 109.774 18.6377C109.09 19.9517 108.152 20.9695 106.96 21.6911C105.767 22.4127 104.415 22.7734 102.904 22.7734ZM102.904 20.0732C103.831 20.0732 104.658 19.8378 105.388 19.3669C106.124 18.8959 106.705 18.2123 107.131 17.3161C107.556 16.4122 107.769 15.3147 107.769 14.0234C107.769 12.7246 107.556 11.6233 107.131 10.7194C106.705 9.81554 106.124 9.12815 105.388 8.65723C104.658 8.18631 103.831 7.95085 102.904 7.95085C101.977 7.95085 101.146 8.18631 100.409 8.65723C99.6796 9.12815 99.0986 9.81554 98.6656 10.7194C98.2403 11.6233 98.0276 12.7246 98.0276 14.0234C98.0276 15.3147 98.2403 16.4122 98.6656 17.3161C99.0986 18.2123 99.6796 18.8959 100.409 19.3669C101.146 19.8378 101.977 20.0732 102.904 20.0732ZM113.044 22.5V5.52409H119.663C120.909 5.52409 121.984 5.74436 122.888 6.1849C123.799 6.62543 124.502 7.25206 124.995 8.06478C125.489 8.8775 125.736 9.83832 125.736 10.9473C125.736 12.1018 125.451 13.093 124.881 13.9209C124.312 14.7488 123.522 15.3678 122.512 15.778L126.055 22.5H122.74L119.549 16.3249C119.527 16.3249 119.5 16.3249 119.47 16.3249H116.052V22.5H113.044ZM116.052 13.8411H119.515C120.518 13.8411 121.312 13.5829 121.896 13.0664C122.481 12.5423 122.774 11.8359 122.774 10.9473C122.774 10.0662 122.477 9.3674 121.885 8.85091C121.3 8.33442 120.503 8.07617 119.492 8.07617H116.052V13.8411ZM128.083 22.5V5.52409H139.875V8.13314H131.091V12.5993H139.214V15.1628H131.091V19.891H139.875V22.5H128.083Z" fill="white"/>
</svg>
